<svg width="192" height="43" viewBox="0 0 192 43" fill="none" xmlns="http://www.w3.org/2000/svg">
<path d="M8.064 42V42.5H8.41904L8.53606 42.1648L8.064 42ZM0.616 42L0.145729 41.8302L-0.0961826 42.5H0.616V42ZM15.4 1.064V0.564H15.049L14.9297 0.894162L15.4 1.064ZM22.736 1.064L23.2063 0.894162L23.087 0.564H22.736V1.064ZM37.52 42V42.5H38.2322L37.9903 41.8302L37.52 42ZM29.96 42L29.4879 42.1648L29.605 42.5H29.96V42ZM26.656 32.536L27.1281 32.3712L27.011 32.036H26.656V32.536ZM11.368 32.536V32.036H11.013L10.8959 32.3712L11.368 32.536ZM18.144 13.272L18.6157 13.4379L18.6159 13.4372L18.144 13.272ZM13.496 26.488L13.0243 26.3221L12.7901 26.988H13.496V26.488ZM24.584 26.488V26.988H25.2927L25.0551 26.3203L24.584 26.488ZM19.88 13.272L19.4032 13.4226L19.4059 13.4312L19.4089 13.4397L19.88 13.272ZM19.04 10.136L19.5356 10.0699L18.5511 10.0312L19.04 10.136ZM8.064 41.5H0.616V42.5H8.064V41.5ZM1.08627 42.1698L15.8703 1.23384L14.9297 0.894162L0.145729 41.8302L1.08627 42.1698ZM15.4 1.564H22.736V0.564H15.4V1.564ZM22.2657 1.23384L37.0497 42.1698L37.9903 41.8302L23.2063 0.894162L22.2657 1.23384ZM37.52 41.5H29.96V42.5H37.52V41.5ZM30.4321 41.8352L27.1281 32.3712L26.1839 32.7008L29.4879 42.1648L30.4321 41.8352ZM26.656 32.036H11.368V33.036H26.656V32.036ZM10.8959 32.3712L7.59194 41.8352L8.53606 42.1648L11.8401 32.7008L10.8959 32.3712ZM17.6723 13.1061L13.0243 26.3221L13.9677 26.6539L18.6157 13.4379L17.6723 13.1061ZM13.496 26.988H24.584V25.988H13.496V26.988ZM25.0551 26.3203L20.3511 13.1043L19.4089 13.4397L24.1129 26.6557L25.0551 26.3203ZM20.3568 13.1214C20.0147 12.0381 19.6404 10.8562 19.5356 10.0699L18.5444 10.2021C18.6636 11.0958 19.0733 12.3779 19.4032 13.4226L20.3568 13.1214ZM18.5511 10.0312C18.3876 10.7941 18.0574 12.0059 17.6721 13.1068L18.6159 13.4372C19.0146 12.2981 19.3564 11.0459 19.5289 10.2408L18.5511 10.0312ZM42.6532 42H42.1532V42.5H42.6532V42ZM42.6532 1.064V0.564H42.1532V1.064H42.6532ZM66.0612 21.504L65.8675 21.0431L64.6275 21.5642L65.9068 21.9796L66.0612 21.504ZM49.8212 7.392V6.892H49.3212V7.392H49.8212ZM49.8212 18.536H49.3212V19.036H49.8212V18.536ZM49.8212 24.584V24.084H49.3212V24.584H49.8212ZM49.8212 35.672H49.3212V36.172H49.8212V35.672ZM43.1532 42V1.064H42.1532V42H43.1532ZM42.6532 1.564H58.9492V0.564H42.6532V1.564ZM58.9492 1.564C62.8991 1.564 66.0202 2.59259 68.1454 4.39897C70.2607 6.19703 71.4412 8.80891 71.4412 12.096H72.4412C72.4412 8.55108 71.1576 5.64696 68.793 3.63703C66.4382 1.63541 63.0632 0.564 58.9492 0.564V1.564ZM71.4412 12.096C71.4412 14.2898 70.9541 16.1397 70.026 17.6273C69.0995 19.1124 67.7148 20.2666 65.8675 21.0431L66.2549 21.9649C68.2716 21.1174 69.8269 19.8356 70.8744 18.1567C71.9203 16.4803 72.4412 14.4382 72.4412 12.096H71.4412ZM65.9068 21.9796C67.9749 22.651 69.5006 23.7535 70.5138 25.2308C71.5291 26.7111 72.0572 28.6081 72.0572 30.912H73.0572C73.0572 28.4559 72.4932 26.3488 71.3385 24.6652C70.1818 22.9785 68.4595 21.757 66.2156 21.0284L65.9068 21.9796ZM72.0572 30.912C72.0572 34.2875 70.888 36.9092 68.744 38.697C66.5873 40.4953 63.3835 41.5 59.2292 41.5V42.5C63.5309 42.5 66.9911 41.4607 69.3844 39.465C71.7904 37.4588 73.0572 34.5365 73.0572 30.912H72.0572ZM59.2292 41.5H42.6532V42.5H59.2292V41.5ZM58.3332 6.892H49.8212V7.892H58.3332V6.892ZM49.3212 7.392V18.536H50.3212V7.392H49.3212ZM49.8212 19.036H58.5012V18.036H49.8212V19.036ZM58.5012 19.036C60.5451 19.036 62.2095 18.4952 63.3655 17.4095C64.5262 16.3194 65.1052 14.7452 65.1052 12.824H64.1052C64.1052 14.5428 63.5922 15.8246 62.6809 16.6805C61.7649 17.5408 60.3772 18.036 58.5012 18.036V19.036ZM65.1052 12.824C65.1052 10.9493 64.5057 9.4388 63.3076 8.40625C62.1215 7.38405 60.4199 6.892 58.3332 6.892V7.892C60.2784 7.892 61.7128 8.35195 62.6548 9.16375C63.5847 9.96519 64.1052 11.1707 64.1052 12.824H65.1052ZM58.9492 24.084H49.8212V25.084H58.9492V24.084ZM49.3212 24.584V35.672H50.3212V24.584H49.3212ZM49.8212 36.172H58.9492V35.172H49.8212V36.172ZM58.9492 36.172C61.0391 36.172 62.7439 35.6644 63.9306 34.6026C65.1264 33.5327 65.7212 31.9675 65.7212 30.016H64.7212C64.7212 31.7605 64.196 33.0233 63.2638 33.8574C62.3225 34.6996 60.8913 35.172 58.9492 35.172V36.172ZM65.7212 30.016C65.7212 28.1636 65.1041 26.6559 63.9028 25.6194C62.7124 24.5924 61.0129 24.084 58.9492 24.084V25.084C60.8615 25.084 62.298 25.5556 63.2496 26.3766C64.1903 27.1881 64.7212 28.3964 64.7212 30.016H65.7212ZM115.982 21.504C115.982 27.6095 113.975 32.7738 110.559 36.4075C107.146 40.0389 102.296 42.172 96.5458 42.172V43.172C102.555 43.172 107.674 40.9371 111.288 37.0925C114.9 33.2502 116.982 27.8305 116.982 21.504H115.982ZM96.5458 42.172C90.8232 42.172 86.0168 40.053 82.6384 36.43C79.2576 32.8042 77.2778 27.6399 77.2778 21.504H76.2778C76.2778 27.8561 78.3299 33.2758 81.9071 37.112C85.4867 40.951 90.5643 43.172 96.5458 43.172V42.172ZM77.2778 21.504C77.2778 15.3975 79.2707 10.2329 82.6661 6.59938C86.059 2.96844 90.88 0.835999 96.6018 0.835999V-0.164001C90.6195 -0.164001 85.5285 2.07156 81.9354 5.91662C78.3448 9.7591 76.2778 15.1785 76.2778 21.504H77.2778ZM96.6018 0.835999C102.325 0.835999 107.16 2.95528 110.566 6.57945C113.975 10.2059 115.982 15.37 115.982 21.504H116.982C116.982 15.15 114.9 9.73012 111.295 5.89455C107.688 2.05672 102.583 -0.164001 96.6018 -0.164001V0.835999ZM109.422 21.504C109.422 17.0474 108.193 13.3511 105.954 10.761C103.708 8.16324 100.485 6.724 96.6018 6.724V7.724C100.222 7.724 103.159 9.05676 105.197 11.415C107.243 13.7809 108.422 17.2246 108.422 21.504H109.422ZM96.6018 6.724C92.7181 6.724 89.495 8.16324 87.2495 10.761C85.0106 13.3511 83.7818 17.0474 83.7818 21.504H84.7818C84.7818 17.2246 85.9609 13.7809 88.006 11.415C90.0445 9.05676 92.9814 7.724 96.6018 7.724V6.724ZM83.7818 21.504C83.7818 25.9606 85.0106 29.6569 87.2495 32.247C89.495 34.8448 92.7181 36.284 96.6018 36.284V35.284C92.9814 35.284 90.0445 33.9512 88.006 31.593C85.9609 29.2271 84.7818 25.7834 84.7818 21.504H83.7818ZM96.6018 36.284C100.488 36.284 103.711 34.8145 105.955 32.2039C108.192 29.601 109.422 25.9059 109.422 21.504H108.422C108.422 25.7261 107.243 29.171 105.197 31.5521C103.157 33.9255 100.219 35.284 96.6018 35.284V36.284ZM122.873 1.064V0.564H122.373V1.064H122.873ZM130.041 1.064H130.541V0.564H130.041V1.064ZM148.129 1.064V0.564H147.629V1.064H148.129ZM155.297 1.064H155.797V0.564H155.297V1.064ZM123.373 27.048V1.064H122.373V27.048H123.373ZM122.873 1.564H130.041V0.564H122.873V1.564ZM129.541 1.064V26.6H130.541V1.064H129.541ZM129.541 26.6C129.541 29.6274 130.364 32.0523 132.009 33.7201C133.655 35.389 136.054 36.228 139.057 36.228V35.228C136.236 35.228 134.127 34.443 132.721 33.0179C131.314 31.5917 130.541 29.4526 130.541 26.6H129.541ZM139.057 36.228C142.062 36.228 144.474 35.3738 146.132 33.6999C147.79 32.0267 148.629 29.6028 148.629 26.6H147.629C147.629 29.4212 146.844 31.5612 145.422 32.996C144.001 34.4302 141.876 35.228 139.057 35.228V36.228ZM148.629 26.6V1.064H147.629V26.6H148.629ZM148.129 1.564H155.297V0.564H148.129V1.564ZM154.797 1.064V27.048H155.797V1.064H154.797ZM154.797 27.048C154.797 31.7238 153.269 35.4913 150.568 38.0908C147.866 40.6923 143.94 42.172 139.057 42.172V43.172C144.142 43.172 148.336 41.6277 151.262 38.8112C154.19 35.9927 155.797 31.9482 155.797 27.048H154.797ZM139.057 42.172C134.202 42.172 130.29 40.706 127.595 38.1118C124.902 35.5197 123.373 31.7524 123.373 27.048H122.373C122.373 31.9756 123.98 36.0203 126.901 38.8322C129.82 41.642 134.001 43.172 139.057 43.172V42.172ZM160.53 7.672H160.03V8.172H160.53V7.672ZM160.53 1.064V0.564H160.03V1.064H160.53ZM191.666 1.064H192.166V0.564H191.666V1.064ZM191.666 7.672V8.172H192.166V7.672H191.666ZM179.682 7.672V7.172H179.182V7.672H179.682ZM179.682 42V42.5H180.182V42H179.682ZM172.514 42H172.014V42.5H172.514V42ZM172.514 7.672H173.014V7.172H172.514V7.672ZM161.03 7.672V1.064H160.03V7.672H161.03ZM160.53 1.564H191.666V0.564H160.53V1.564ZM191.166 1.064V7.672H192.166V1.064H191.166ZM191.666 7.172H179.682V8.172H191.666V7.172ZM179.182 7.672V42H180.182V7.672H179.182ZM179.682 41.5H172.514V42.5H179.682V41.5ZM173.014 42V7.672H172.014V42H173.014ZM172.514 7.172H160.53V8.172H172.514V7.172Z" fill="#DCDCD6"/>
</svg>
