<svg width="1027" height="85" viewBox="0 0 1027 85" fill="none" xmlns="http://www.w3.org/2000/svg">
<path d="M56.5148 2.1V1.6H56.0148V2.1H56.5148ZM73.1148 2.1H73.6148V1.6H73.1148V2.1ZM73.1148 83V83.5H73.6148V83H73.1148ZM56.5148 83L56.1077 83.2902L56.2572 83.5H56.5148V83ZM17.3148 28L17.722 27.7098L16.8289 26.4566L16.8149 27.9955L17.3148 28ZM16.8148 83V83.5H17.3103L17.3148 83.0045L16.8148 83ZM0.314844 83H-0.185156V83.5H0.314844V83ZM0.314844 2.1V1.6H-0.185156V2.1H0.314844ZM16.8148 2.1L17.2192 1.80596L17.0695 1.6H16.8148V2.1ZM56.5148 56.7L56.1104 56.994L57.0148 58.2379V56.7H56.5148ZM56.5148 2.6H73.1148V1.6H56.5148V2.6ZM72.6148 2.1V83H73.6148V2.1H72.6148ZM73.1148 82.5H56.5148V83.5H73.1148V82.5ZM56.922 82.7098L17.722 27.7098L16.9077 28.2902L56.1077 83.2902L56.922 82.7098ZM16.8149 27.9955L16.3149 82.9955L17.3148 83.0045L17.8148 28.0045L16.8149 27.9955ZM16.8148 82.5H0.314844V83.5H16.8148V82.5ZM0.814844 83V2.1H-0.185156V83H0.814844ZM0.314844 2.6H16.8148V1.6H0.314844V2.6ZM16.4104 2.39404L56.1104 56.994L56.9192 56.406L17.2192 1.80596L16.4104 2.39404ZM57.0148 56.7V2.1H56.0148V56.7H57.0148ZM99.0438 2.1H99.5438V1.6H99.0438V2.1ZM99.0438 83V83.5H99.5438V83H99.0438ZM82.4438 83H81.9438V83.5H82.4438V83ZM82.4438 2.1V1.6H81.9438V2.1H82.4438ZM98.5438 2.1V83H99.5438V2.1H98.5438ZM99.0438 82.5H82.4438V83.5H99.0438V82.5ZM82.9438 83V2.1H81.9438V83H82.9438ZM82.4438 2.6H99.0438V1.6H82.4438V2.6ZM163.823 50.4V49.9H163.375L163.326 50.3452L163.823 50.4ZM182.123 50.4L182.618 50.4679L182.696 49.9H182.123V50.4ZM181.723 32.2V32.7H182.326L182.214 32.1071L181.723 32.2ZM163.023 32.2L162.533 32.3018L162.616 32.7H163.023V32.2ZM163.823 50.9H182.123V49.9H163.823V50.9ZM181.627 50.3321C180.092 61.5242 175.37 69.9315 168.713 75.5427C162.053 81.1564 153.422 84 144.023 84V85C153.624 85 162.493 82.0936 169.357 76.3073C176.225 70.5185 181.053 61.8758 182.618 50.4679L181.627 50.3321ZM144.023 84C133.587 84 124.096 80.4407 117.215 73.498C110.336 66.5573 106.023 56.192 106.023 42.5H105.023C105.023 56.408 109.409 67.0427 116.505 74.202C123.599 81.3593 133.358 85 144.023 85V84ZM106.023 42.5C106.023 29.1104 110.335 18.7175 117.218 11.6745C124.102 4.62998 133.594 0.899997 144.023 0.899997V-0.100003C133.352 -0.100003 123.593 3.72001 116.503 10.9755C109.411 18.2324 105.023 28.8896 105.023 42.5H106.023ZM144.023 0.899997C153.468 0.899997 161.827 3.79182 168.291 9.14751C174.754 14.5028 179.351 22.3446 181.231 32.2929L182.214 32.1071C180.295 21.9554 175.591 13.8972 168.929 8.37749C162.268 2.85817 153.677 -0.100003 144.023 -0.100003V0.899997ZM181.723 31.7H163.023V32.7H181.723V31.7ZM163.512 32.0982C162.44 26.9406 159.954 23.0796 156.522 20.5121C153.095 17.9482 148.759 16.7 144.023 16.7V17.7C148.586 17.7 152.7 18.9018 155.923 21.3129C159.141 23.7204 161.506 27.3594 162.533 32.3018L163.512 32.0982ZM144.023 16.7C137.957 16.7 132.539 18.7419 128.64 23.026C124.746 27.3057 122.423 33.7643 122.423 42.5H123.423C123.423 33.9357 125.699 27.7443 129.38 23.699C133.057 19.6581 138.188 17.7 144.023 17.7V16.7ZM122.423 42.5C122.423 51.2836 124.72 57.7431 128.603 62.0114C132.49 66.2848 137.91 68.3 144.023 68.3V67.3C138.135 67.3 133.005 65.3652 129.343 61.3386C125.675 57.3069 123.423 51.1164 123.423 42.5H122.423ZM144.023 68.3C149.163 68.3 153.907 66.8747 157.539 63.9125C161.177 60.9451 163.657 56.4693 164.32 50.4548L163.326 50.3452C162.688 56.1307 160.318 60.3549 156.907 63.1375C153.489 65.9253 148.983 67.3 144.023 67.3V68.3ZM188.01 2.1V1.6H187.51V2.1H188.01ZM245.81 2.1H246.31V1.6H245.81V2.1ZM245.81 18.3V18.8H246.31V18.3H245.81ZM205.51 18.3V17.8H205.01V18.3H205.51ZM205.51 32.7H205.01V33.197L205.507 33.2L205.51 32.7ZM239.11 32.9H239.61V32.403L239.113 32.4L239.11 32.9ZM239.11 49L239.109 49.5L239.61 49.5015V49H239.11ZM205.51 48.9L205.512 48.4L205.01 48.3985V48.9H205.51ZM205.51 66.9H205.01V67.4H205.51V66.9ZM245.81 66.9H246.31V66.4H245.81V66.9ZM245.81 83V83.5H246.31V83H245.81ZM188.01 83H187.51V83.5H188.01V83ZM188.01 2.6H245.81V1.6H188.01V2.6ZM245.31 2.1V18.3H246.31V2.1H245.31ZM245.81 17.8H205.51V18.8H245.81V17.8ZM205.01 18.3V32.7H206.01V18.3H205.01ZM205.507 33.2L239.107 33.4L239.113 32.4L205.513 32.2L205.507 33.2ZM238.61 32.9V49H239.61V32.9H238.61ZM239.112 48.5L205.512 48.4L205.509 49.4L239.109 49.5L239.112 48.5ZM205.01 48.9V66.9H206.01V48.9H205.01ZM205.51 67.4H245.81V66.4H205.51V67.4ZM245.31 66.9V83H246.31V66.9H245.31ZM245.81 82.5H188.01V83.5H245.81V82.5ZM188.51 83V2.1H187.51V83H188.51ZM285.575 2.1V1.6H285.075V2.1H285.575ZM359.875 2.1H360.375V1.6H359.875V2.1ZM359.875 18.3V18.8H360.375V18.3H359.875ZM331.675 18.3V17.8H331.175V18.3H331.675ZM331.675 83V83.5H332.175V83H331.675ZM313.775 83H313.275V83.5H313.775V83ZM313.775 18.3H314.275V17.8H313.775V18.3ZM285.575 18.3H285.075V18.8H285.575V18.3ZM285.575 2.6H359.875V1.6H285.575V2.6ZM359.375 2.1V18.3H360.375V2.1H359.375ZM359.875 17.8H331.675V18.8H359.875V17.8ZM331.175 18.3V83H332.175V18.3H331.175ZM331.675 82.5H313.775V83.5H331.675V82.5ZM314.275 83V18.3H313.275V83H314.275ZM313.775 17.8H285.575V18.8H313.775V17.8ZM286.075 18.3V2.1H285.075V18.3H286.075ZM400.37 0.899997C411.299 0.899997 420.813 4.75484 427.596 11.8578C434.38 18.9616 438.47 29.3551 438.47 42.5H439.47C439.47 29.1449 435.311 18.4884 428.319 11.1672C421.327 3.84515 411.541 -0.100003 400.37 -0.100003V0.899997ZM438.47 42.5C438.47 56.2416 434.132 66.6065 427.229 73.5346C420.323 80.465 410.807 84 400.37 84V85C411.034 85 420.818 81.385 427.937 74.2404C435.058 67.0935 439.47 56.4584 439.47 42.5H438.47ZM400.37 84C389.935 84 380.444 80.4407 373.563 73.498C366.684 66.5573 362.37 56.192 362.37 42.5H361.37C361.37 56.408 365.757 67.0427 372.853 74.202C379.947 81.3593 389.706 85 400.37 85V84ZM362.37 42.5C362.37 29.1104 366.682 18.7175 373.565 11.6745C380.45 4.62998 389.941 0.899997 400.37 0.899997V-0.100003C389.699 -0.100003 379.941 3.72001 372.85 10.9755C365.758 18.2324 361.37 28.8896 361.37 42.5H362.37ZM400.37 68.3C406.532 68.3 411.953 66.2853 415.828 62.0108C419.699 57.7419 421.97 51.2822 421.97 42.5H420.97C420.97 51.1178 418.742 57.3081 415.087 61.3392C411.438 65.3647 406.309 67.3 400.37 67.3V68.3ZM421.97 42.5C421.97 33.7657 419.673 27.3069 415.791 23.0266C411.904 18.7413 406.485 16.7 400.37 16.7V17.7C406.256 17.7 411.386 19.6587 415.05 23.6984C418.718 27.7431 420.97 33.9343 420.97 42.5H421.97ZM400.37 16.7C394.305 16.7 388.886 18.7419 384.988 23.026C381.094 27.3057 378.77 33.7643 378.77 42.5H379.77C379.77 33.9357 382.047 27.7443 385.728 23.699C389.404 19.6581 394.536 17.7 400.37 17.7V16.7ZM378.77 42.5C378.77 51.2836 381.068 57.7431 384.95 62.0114C388.838 66.2848 394.258 68.3 400.37 68.3V67.3C394.483 67.3 389.353 65.3652 385.69 61.3386C382.023 57.3069 379.77 51.1164 379.77 42.5H378.77ZM544.607 2.1V1.6H544.256L544.137 1.93019L544.607 2.1ZM563.407 2.1H563.907V1.6H563.407V2.1ZM563.407 83V83.5H563.907V83H563.407ZM546.407 83H545.907V83.5H546.407V83ZM546.407 36.7H546.907L545.941 36.5179L546.407 36.7ZM528.307 83V83.5H528.648L528.773 83.182L528.307 83ZM514.907 83L514.441 83.1817L514.565 83.5H514.907V83ZM496.807 36.6L497.273 36.4183L496.307 36.6H496.807ZM496.807 83V83.5H497.307V83H496.807ZM479.807 83H479.307V83.5H479.807V83ZM479.807 2.1V1.6H479.307V2.1H479.807ZM498.507 2.1L498.977 1.92954L498.858 1.6H498.507V2.1ZM521.607 65.8L521.137 65.9705L521.608 67.2695L522.077 65.9698L521.607 65.8ZM544.607 2.6H563.407V1.6H544.607V2.6ZM562.907 2.1V83H563.907V2.1H562.907ZM563.407 82.5H546.407V83.5H563.407V82.5ZM546.907 83V36.7H545.907V83H546.907ZM545.941 36.5179L527.841 82.818L528.773 83.182L546.873 36.882L545.941 36.5179ZM528.307 82.5H514.907V83.5H528.307V82.5ZM515.373 82.8183L497.273 36.4183L496.341 36.7817L514.441 83.1817L515.373 82.8183ZM496.307 36.6V83H497.307V36.6H496.307ZM496.807 82.5H479.807V83.5H496.807V82.5ZM480.307 83V2.1H479.307V83H480.307ZM479.807 2.6H498.507V1.6H479.807V2.6ZM498.037 2.27046L521.137 65.9705L522.077 65.6295L498.977 1.92954L498.037 2.27046ZM522.077 65.9698L545.077 2.2698L544.137 1.93019L521.137 65.6302L522.077 65.9698ZM572.678 2.1V1.6H572.178V2.1H572.678ZM630.478 2.1H630.978V1.6H630.478V2.1ZM630.478 18.3V18.8H630.978V18.3H630.478ZM590.178 18.3V17.8H589.678V18.3H590.178ZM590.178 32.7H589.678V33.197L590.175 33.2L590.178 32.7ZM623.778 32.9H624.278V32.403L623.781 32.4L623.778 32.9ZM623.778 49L623.777 49.5L624.278 49.5015V49H623.778ZM590.178 48.9L590.18 48.4L589.678 48.3985V48.9H590.178ZM590.178 66.9H589.678V67.4H590.178V66.9ZM630.478 66.9H630.978V66.4H630.478V66.9ZM630.478 83V83.5H630.978V83H630.478ZM572.678 83H572.178V83.5H572.678V83ZM572.678 2.6H630.478V1.6H572.678V2.6ZM629.978 2.1V18.3H630.978V2.1H629.978ZM630.478 17.8H590.178V18.8H630.478V17.8ZM589.678 18.3V32.7H590.678V18.3H589.678ZM590.175 33.2L623.775 33.4L623.781 32.4L590.181 32.2L590.175 33.2ZM623.278 32.9V49H624.278V32.9H623.278ZM623.78 48.5L590.18 48.4L590.177 49.4L623.777 49.5L623.78 48.5ZM589.678 48.9V66.9H590.678V48.9H589.678ZM590.178 67.4H630.478V66.4H590.178V67.4ZM629.978 66.9V83H630.978V66.9H629.978ZM630.478 82.5H572.678V83.5H630.478V82.5ZM573.178 83V2.1H572.178V83H573.178ZM639.768 2.1V1.6H639.268V2.1H639.768ZM697.568 2.1H698.068V1.6H697.568V2.1ZM697.568 18.3V18.8H698.068V18.3H697.568ZM657.268 18.3V17.8H656.768V18.3H657.268ZM657.268 32.7H656.768V33.197L657.265 33.2L657.268 32.7ZM690.868 32.9H691.368V32.403L690.871 32.4L690.868 32.9ZM690.868 49L690.866 49.5L691.368 49.5015V49H690.868ZM657.268 48.9L657.269 48.4L656.768 48.3985V48.9H657.268ZM657.268 66.9H656.768V67.4H657.268V66.9ZM697.568 66.9H698.068V66.4H697.568V66.9ZM697.568 83V83.5H698.068V83H697.568ZM639.768 83H639.268V83.5H639.768V83ZM639.768 2.6H697.568V1.6H639.768V2.6ZM697.068 2.1V18.3H698.068V2.1H697.068ZM697.568 17.8H657.268V18.8H697.568V17.8ZM656.768 18.3V32.7H657.768V18.3H656.768ZM657.265 33.2L690.865 33.4L690.871 32.4L657.271 32.2L657.265 33.2ZM690.368 32.9V49H691.368V32.9H690.368ZM690.869 48.5L657.269 48.4L657.266 49.4L690.866 49.5L690.869 48.5ZM656.768 48.9V66.9H657.768V48.9H656.768ZM657.268 67.4H697.568V66.4H657.268V67.4ZM697.068 66.9V83H698.068V66.9H697.068ZM697.568 82.5H639.768V83.5H697.568V82.5ZM640.268 83V2.1H639.268V83H640.268ZM702.958 2.1V1.6H702.458V2.1H702.958ZM777.258 2.1H777.758V1.6H777.258V2.1ZM777.258 18.3V18.8H777.758V18.3H777.258ZM749.058 18.3V17.8H748.558V18.3H749.058ZM749.058 83V83.5H749.558V83H749.058ZM731.158 83H730.658V83.5H731.158V83ZM731.158 18.3H731.658V17.8H731.158V18.3ZM702.958 18.3H702.458V18.8H702.958V18.3ZM702.958 2.6H777.258V1.6H702.958V2.6ZM776.758 2.1V18.3H777.758V2.1H776.758ZM777.258 17.8H749.058V18.8H777.258V17.8ZM748.558 18.3V83H749.558V18.3H748.558ZM749.058 82.5H731.158V83.5H749.058V82.5ZM731.658 83V18.3H730.658V83H731.658ZM731.158 17.8H702.958V18.8H731.158V17.8ZM703.458 18.3V2.1H702.458V18.3H703.458ZM862.712 2.1V1.6H862.401L862.263 1.87923L862.712 2.1ZM883.312 2.1L883.746 2.34759L884.172 1.6H883.312V2.1ZM855.612 50.7L855.177 50.4524L855.112 50.5675V50.7H855.612ZM855.612 83V83.5H856.112V83H855.612ZM838.612 83H838.112V83.5H838.612V83ZM838.612 50.7H839.112V50.5679L839.047 50.4531L838.612 50.7ZM811.012 2.1V1.6H810.153L810.577 2.34691L811.012 2.1ZM831.512 2.1L831.96 1.87923L831.823 1.6H831.512V2.1ZM847.112 33.8L846.663 34.0208L847.112 34.9324L847.56 34.0208L847.112 33.8ZM862.712 2.6H883.312V1.6H862.712V2.6ZM882.877 1.85241L855.177 50.4524L856.046 50.9476L883.746 2.34759L882.877 1.85241ZM855.112 50.7V83H856.112V50.7H855.112ZM855.612 82.5H838.612V83.5H855.612V82.5ZM839.112 83V50.7H838.112V83H839.112ZM839.047 50.4531L811.446 1.85309L810.577 2.34691L838.177 50.9469L839.047 50.4531ZM811.012 2.6H831.512V1.6H811.012V2.6ZM831.063 2.32077L846.663 34.0208L847.56 33.5792L831.96 1.87923L831.063 2.32077ZM847.56 34.0208L863.16 2.32077L862.263 1.87923L846.663 33.5792L847.56 34.0208ZM915.702 0.899997C926.631 0.899997 936.145 4.75484 942.928 11.8578C949.712 18.9616 953.802 29.3551 953.802 42.5H954.802C954.802 29.1449 950.643 18.4884 943.651 11.1672C936.659 3.84515 926.873 -0.100003 915.702 -0.100003V0.899997ZM953.802 42.5C953.802 56.2416 949.464 66.6065 942.561 73.5346C935.655 80.465 926.139 84 915.702 84V85C926.366 85 936.15 81.385 943.269 74.2404C950.391 67.0935 954.802 56.4584 954.802 42.5H953.802ZM915.702 84C905.267 84 895.776 80.4407 888.895 73.498C882.016 66.5573 877.702 56.192 877.702 42.5H876.702C876.702 56.408 881.089 67.0427 888.185 74.202C895.279 81.3593 905.038 85 915.702 85V84ZM877.702 42.5C877.702 29.1104 882.014 18.7175 888.897 11.6745C895.782 4.62998 905.273 0.899997 915.702 0.899997V-0.100003C905.031 -0.100003 895.273 3.72001 888.182 10.9755C881.09 18.2324 876.702 28.8896 876.702 42.5H877.702ZM915.702 68.3C921.864 68.3 927.285 66.2853 931.16 62.0108C935.031 57.7419 937.302 51.2822 937.302 42.5H936.302C936.302 51.1178 934.074 57.3081 930.419 61.3392C926.77 65.3647 921.641 67.3 915.702 67.3V68.3ZM937.302 42.5C937.302 33.7657 935.005 27.3069 931.123 23.0266C927.236 18.7413 921.817 16.7 915.702 16.7V17.7C921.588 17.7 926.718 19.6587 930.382 23.6984C934.05 27.7431 936.302 33.9343 936.302 42.5H937.302ZM915.702 16.7C909.637 16.7 904.218 18.7419 900.32 23.026C896.426 27.3057 894.102 33.7643 894.102 42.5H895.102C895.102 33.9357 897.379 27.7443 901.06 23.699C904.736 19.6581 909.868 17.7 915.702 17.7V16.7ZM894.102 42.5C894.102 51.2836 896.4 57.7431 900.282 62.0114C904.17 66.2848 909.59 68.3 915.702 68.3V67.3C909.815 67.3 904.685 65.3652 901.022 61.3386C897.355 57.3069 895.102 51.1164 895.102 42.5H894.102ZM1010.46 1.99999V1.49999H1009.96V1.99999H1010.46ZM1026.36 1.99999H1026.86V1.49999H1026.36V1.99999ZM959.864 1.99999V1.49999H959.364V1.99999H959.864ZM975.664 1.99999H976.164V1.49999H975.664V1.99999ZM1010.46 2.49999H1026.36V1.49999H1010.46V2.49999ZM1025.86 1.99999V52H1026.86V1.99999H1025.86ZM1025.86 52C1025.86 60.8121 1023.41 68.8037 1018.12 74.5874C1012.83 80.3631 1004.65 84 993.064 84V85C1004.87 85 1013.34 81.2869 1018.86 75.2626C1024.36 69.2463 1026.86 60.9879 1026.86 52H1025.86ZM993.064 84C981.676 84 973.52 80.3645 968.207 74.5866C962.887 68.8011 960.364 60.8086 960.364 52H959.364C959.364 60.9914 961.941 69.2489 967.471 75.2634C973.008 81.2855 981.452 85 993.064 85V84ZM960.364 52V1.99999H959.364V52H960.364ZM959.864 2.49999H975.664V1.49999H959.864V2.49999ZM975.164 1.99999V51.8H976.164V1.99999H975.164ZM975.164 51.8V52.4H976.164V51.8H975.164ZM975.164 52.4C975.164 58.8925 977.602 63.0997 981.106 65.6659C984.585 68.2133 989.053 69.1 993.064 69.1V68.1C989.175 68.1 984.944 67.2367 981.697 64.8591C978.476 62.5003 976.164 58.6075 976.164 52.4H975.164ZM993.064 69.1C997.124 69.1 1001.59 68.2137 1005.06 65.6521C1008.55 63.0718 1010.96 58.8391 1010.96 52.3H1009.96C1009.96 58.5609 1007.67 62.4782 1004.47 64.8478C1001.23 67.2363 997.004 68.1 993.064 68.1V69.1ZM1010.96 52.3V51.8H1009.96V52.3H1010.96ZM1010.96 51.8V1.99999H1009.96V51.8H1010.96Z" fill="#4A4A48"/>
</svg>
