<svg width="396" height="88" viewBox="0 0 396 88" fill="none" xmlns="http://www.w3.org/2000/svg">
<path d="M0.943359 84.55V85.05H1.44336H32.4434C53.9423 85.05 71.4434 66.7027 71.4434 44.0499C71.4434 21.4963 53.9415 3.14995 32.4434 3.14995H1.44336H0.943359V3.64995V84.55ZM53.0502 45.8678L53.0434 45.9086V45.95V45.9511V45.9523V45.9535V45.9546V45.9558V45.9569V45.9581V45.9593V45.9604V45.9616V45.9627V45.9639V45.965V45.9661V45.9673V45.9684V45.9696V45.9707V45.9718V45.9729V45.9741V45.9752V45.9763V45.9774V45.9786V45.9797V45.9808V45.9819V45.983V45.9841V45.9852V45.9863V45.9874V45.9885V45.9896V45.9907V45.9918V45.9929V45.994V45.9951V45.9962V45.9973V45.9983V45.9994V46.0005V46.0016V46.0027V46.0037V46.0048V46.0059V46.0069V46.008V46.0091V46.0101V46.0112V46.0123V46.0133V46.0144V46.0154V46.0165V46.0175V46.0186V46.0196V46.0207V46.0217V46.0227V46.0238V46.0248V46.0259V46.0269V46.0279V46.029V46.03V46.031V46.032V46.0331V46.0341V46.0351V46.0361V46.0371V46.0382V46.0392V46.0402V46.0412V46.0422V46.0432V46.0442V46.0452V46.0462V46.0472V46.0482V46.0492V46.0502V46.0512V46.0522V46.0532V46.0542V46.0552V46.0562V46.0572V46.0582V46.0592V46.0601V46.0611V46.0621V46.0631V46.0641V46.065V46.066V46.067V46.068V46.0689V46.0699V46.0709V46.0719V46.0728V46.0738V46.0747V46.0757V46.0767V46.0776V46.0786V46.0796V46.0805V46.0815V46.0824V46.0834V46.0843V46.0853V46.0862V46.0872V46.0881V46.0891V46.09V46.091V46.0919V46.0929V46.0938V46.0947V46.0957V46.0966V46.0976V46.0985V46.0994V46.1004V46.1013V46.1022V46.1032V46.1041V46.105V46.1059V46.1069V46.1078V46.1087V46.1096V46.1106V46.1115V46.1124V46.1133V46.1143V46.1152V46.1161V46.117V46.1179V46.1189V46.1198V46.1207V46.1216V46.1225V46.1234V46.1243V46.1252V46.1262V46.1271V46.128V46.1289V46.1298V46.1307V46.1316V46.1325V46.1334V46.1343V46.1352V46.1361V46.137V46.1379V46.1388V46.1397V46.1406V46.1415V46.1424V46.1433V46.1442V46.1451V46.146V46.1469V46.1478V46.1487V46.1496V46.1505V46.1514V46.1523V46.1532V46.154V46.1549V46.1558V46.1567V46.1576V46.1585V46.1594V46.1603V46.1612V46.162V46.1629V46.1638V46.1647V46.1656V46.1665V46.1674V46.1682V46.1691V46.17V46.1709V46.1718V46.1727V46.1735V46.1744V46.1753V46.1762V46.1771V46.178V46.1788V46.1797V46.1806V46.1815V46.1824V46.1832V46.1841V46.185V46.1859V46.1868V46.1876V46.1885V46.1894V46.1903V46.1912V46.192V46.1929V46.1938V46.1947V46.1956V46.1964V46.1973V46.1982V46.1991V46.2V46.2008V46.2017V46.2026V46.2035V46.2043V46.2052V46.2061V46.207V46.2079V46.2087V46.2096V46.2105V46.2114V46.2123V46.2131V46.214V46.2149V46.2158V46.2167V46.2175V46.2184V46.2193V46.2202V46.2211V46.222V46.2228V46.2237V46.2246V46.2255V46.2264V46.2272V46.2281V46.229V46.2299V46.2308V46.2317V46.2326V46.2334V46.2343V46.2352V46.2361V46.237V46.2379V46.2388V46.2396V46.2405V46.2414V46.2423V46.2432V46.2441V46.245V46.2459V46.2468V46.2477V46.2485V46.2494V46.2503V46.2512V46.2521V46.253V46.2539V46.2548V46.2557V46.2566V46.2575V46.2584V46.2593V46.2602V46.2611V46.262V46.2629V46.2638V46.2647V46.2656V46.2665V46.2674V46.2683V46.2692V46.2701V46.271V46.2719V46.2728V46.2738V46.2747V46.2756V46.2765V46.2774V46.2783V46.2792V46.2801V46.2811V46.282V46.2829V46.2838V46.2847V46.2856V46.2866V46.2875V46.2884V46.2893V46.2903V46.2912V46.2921V46.293V46.294V46.2949V46.2958V46.2968V46.2977V46.2986V46.2996V46.3005V46.3014V46.3024V46.3033V46.3042V46.3052V46.3061V46.3071V46.308V46.3089V46.3099V46.3108V46.3118V46.3127V46.3137V46.3146V46.3156V46.3165V46.3175V46.3184V46.3194V46.3204V46.3213V46.3223V46.3232V46.3242V46.3252V46.3261V46.3271V46.3281V46.329V46.33V46.331V46.3319V46.3329V46.3339V46.3349V46.3358V46.3368V46.3378V46.3388V46.3398V46.3407V46.3417V46.3427V46.3437V46.3447V46.3457V46.3467V46.3477V46.3487V46.3497V46.3507V46.3517V46.3527V46.3537V46.3547V46.3557V46.3567V46.3577V46.3587V46.3597V46.3607V46.3617V46.3628V46.3638V46.3648V46.3658V46.3668V46.3679V46.3689V46.3699V46.371V46.372V46.373V46.3741V46.3751V46.3761V46.3772V46.3782V46.3793V46.3803V46.3813V46.3824V46.3834V46.3845V46.3855V46.3866V46.3877V46.3887V46.3898V46.3908V46.3919V46.393V46.394V46.3951V46.3962V46.3973V46.3983V46.3994V46.4005V46.4016V46.4026V46.4037V46.4048V46.4059V46.407V46.4081V46.4092V46.4103V46.4114V46.4125V46.4136V46.4147V46.4158V46.4169V46.418V46.4191V46.4202V46.4213V46.4225V46.4236V46.4247V46.4258V46.427V46.4281V46.4292V46.4304V46.4315V46.4326V46.4338V46.4349V46.4361V46.4372V46.4384V46.4395V46.4407V46.4418V46.443V46.4441V46.4453V46.4464V46.4476V46.4488V46.45V46.45V46.45V46.45V46.4501V46.4501V46.4501V46.4502V46.4502V46.4502V46.4503V46.4503V46.4504V46.4504V46.4504V46.4504V46.4505V46.4505V46.4506V46.4506V46.4506V46.4507V46.4507V46.4508V46.4508V46.4509V46.4509V46.451V46.451V46.4511V46.4511V46.4511V46.4512V46.4512V46.4512V46.4513V46.4513V46.4513V46.4514V46.4514V46.4514V46.4515V46.4515V46.4516V46.4516V46.4516V46.4517V46.4517V46.4517V46.4518V46.4518V46.4519V46.4519V46.452V46.452V46.452V46.4521V46.4521V46.4522V46.4522V46.4523V46.4523V46.4524V46.4524V46.4525V46.4525V46.4526V46.4526V46.4527V46.4527V46.4528V46.4528V46.4529V46.4529V46.453V46.4531V46.4531V46.4532V46.4532V46.4533V46.4534V46.4534V46.4535V46.4536V46.4536V46.4537V46.4537V46.4538V46.4539V46.4539V46.454V46.4541V46.4542V46.4542V46.4543V46.4544V46.4544V46.4545V46.4546V46.4547V46.4548V46.4548V46.4549V46.455V46.4551V46.4551V46.4552V46.4553V46.4554V46.4555V46.4556V46.4557V46.4557V46.4558V46.4559V46.456V46.4561V46.4562V46.4563V46.4564V46.4565V46.4566V46.4567V46.4568V46.4569V46.457V46.4571V46.4572V46.4573V46.4574V46.4575V46.4576V46.4577V46.4578V46.4579V46.458V46.4581V46.4582V46.4583V46.4584V46.4586V46.4587V46.4588V46.4589V46.459V46.4591V46.4593V46.4594V46.4595V46.4596V46.4597V46.4599V46.46V46.4601V46.4603V46.4604V46.4605V46.4606V46.4608V46.4609V46.461V46.4612V46.4613V46.4615V46.4616V46.4617V46.4619V46.462V46.4622V46.4623V46.4625V46.4626V46.4627V46.4629V46.4631V46.4632V46.4634V46.4635V46.4637V46.4638V46.464V46.4641V46.4643V46.4645V46.4646V46.4648V46.4649V46.4651V46.4653V46.4655V46.4656V46.4658V46.466V46.4661V46.4663V46.4665V46.4667V46.4668V46.467V46.4672V46.4674V46.4676V46.4678V46.4679V46.4681V46.4683V46.4685V46.4687V46.4689V46.4691V46.4693V46.4695V46.4697V46.4699V46.4701V46.4703V46.4705V46.4707V46.4709V46.4711V46.4713V46.4715V46.4717V46.4719V46.4721V46.4724V46.4726V46.4728V46.473V46.4732V46.4735V46.4737V46.4739V46.4741V46.4744V46.4746V46.4748V46.4751V46.4753V46.4755V46.4758V46.476V46.4762V46.4765V46.4767V46.477V46.4772V46.4775V46.4777V46.478V46.4782V46.4785V46.4787V46.479V46.4792V46.4795V46.4798V46.48V46.4803V46.4805V46.4808V46.4811V46.4814V46.4816V46.4819V46.4822V46.4824V46.4827V46.483V46.4833V46.4836V46.4839V46.4841V46.4844V46.4847V46.485V46.4853V46.4856V46.4859V46.4862V46.4865V46.4868V46.4871V46.4874V46.4877V46.488V46.4883V46.4886V46.4889V46.4892V46.4896V46.4899V46.4902V46.4905V46.4908V46.4912V46.4915V46.4918V46.4921V46.4925V46.4928V46.4931V46.4935V46.4938V46.4942V46.4945V46.4948V46.4952V46.4955V46.4959V46.4962V46.4966V46.4969V46.4973V46.4976V46.498V46.4984V46.4987V46.4991V46.4994V46.4998V46.5002V46.5006V46.5009V46.5013V46.5017V46.5021V46.5024V46.5028V46.5032V46.5036V46.504V46.5044V46.5048V46.5052V46.5056V46.5059V46.5063V46.5067V46.5071V46.5076V46.508V46.5084V46.5088V46.5092V46.5096V46.51V46.5104V46.5109V46.5113V46.5117V46.5121V46.5126V46.513V46.5134V46.5139V46.5143V46.5147V46.5152V46.5156V46.5161V46.5165V46.5169V46.5174V46.5178V46.5183V46.5188V46.5192V46.5197V46.5201V46.5206V46.5211V46.5215V46.522V46.5225V46.5229V46.5234V46.5239V46.5244V46.5249V46.5253V46.5258V46.5263V46.5264C51.9497 58.0465 43.0998 68.05 33.0434 68.05H19.8434V20.15H33.0434C38.3156 20.15 43.2358 22.8595 46.9012 27.1378C50.5643 31.4134 52.9453 37.2266 53.1434 43.358V43.3587V43.3605V43.3622V43.3639V43.3657V43.3674V43.3692V43.3709V43.3726V43.3743V43.3761V43.3778V43.3795V43.3812V43.3829V43.3847V43.3864V43.3881V43.3898V43.3915V43.3932V43.3949V43.3966V43.3983V43.4V43.4017V43.4034V43.4051V43.4067V43.4084V43.4101V43.4118V43.4135V43.4151V43.4168V43.4185V43.4202V43.4218V43.4235V43.4251V43.4268V43.4285V43.4301V43.4318V43.4334V43.4351V43.4367V43.4384V43.44V43.4417V43.4433V43.4449V43.4466V43.4482V43.4498V43.4515V43.4531V43.4547V43.4563V43.458V43.4596V43.4612V43.4628V43.4644V43.466V43.4676V43.4693V43.4709V43.4725V43.4741V43.4757V43.4773V43.4789V43.4805V43.482V43.4836V43.4852V43.4868V43.4884V43.49V43.4916V43.4931V43.4947V43.4963V43.4979V43.4994V43.501V43.5026V43.5041V43.5057V43.5073V43.5088V43.5104V43.5119V43.5135V43.515V43.5166V43.5181V43.5197V43.5212V43.5228V43.5243V43.5258V43.5274V43.5289V43.5305V43.532V43.5335V43.535V43.5366V43.5381V43.5396V43.5411V43.5427V43.5442V43.5457V43.5472V43.5487V43.5502V43.5517V43.5533V43.5548V43.5563V43.5578V43.5593V43.5608V43.5623V43.5638V43.5653V43.5667V43.5682V43.5697V43.5712V43.5727V43.5742V43.5757V43.5771V43.5786V43.5801V43.5816V43.583V43.5845V43.586V43.5875V43.5889V43.5904V43.5919V43.5933V43.5948V43.5962V43.5977V43.5992V43.6006V43.6021V43.6035V43.605V43.6064V43.6079V43.6093V43.6107V43.6122V43.6136V43.6151V43.6165V43.6179V43.6194V43.6208V43.6222V43.6237V43.6251V43.6265V43.6279V43.6294V43.6308V43.6322V43.6336V43.635V43.6365V43.6379V43.6393V43.6407V43.6421V43.6435V43.6449V43.6463V43.6477V43.6491V43.6505V43.6519V43.6533V43.6547V43.6561V43.6575V43.6589V43.6603V43.6617V43.6631V43.6645V43.6659V43.6672V43.6686V43.67V43.6714V43.6728V43.6741V43.6755V43.6769V43.6783V43.6796V43.681V43.6824V43.6838V43.6851V43.6865V43.6879V43.6892V43.6906V43.6919V43.6933V43.6947V43.696V43.6974V43.6987V43.7001V43.7014V43.7028V43.7041V43.7055V43.7068V43.7082V43.7095V43.7108V43.7122V43.7135V43.7149V43.7162V43.7175V43.7189V43.7202V43.7215V43.7229V43.7242V43.7255V43.7269V43.7282V43.7295V43.7308V43.7322V43.7335V43.7348V43.7361V43.7375V43.7388V43.7401V43.7414V43.7427V43.744V43.7453V43.7467V43.748V43.7493V43.7506V43.7519V43.7532V43.7545V43.7558V43.7571V43.7584V43.7597V43.761V43.7623V43.7636V43.7649V43.7662V43.7675V43.7688V43.7701V43.7714V43.7726V43.7739V43.7752V43.7765V43.7778V43.7791V43.7804V43.7816V43.7829V43.7842V43.7855V43.7868V43.788V43.7893V43.7906V43.7919V43.7931V43.7944V43.7957V43.797V43.7982V43.7995V43.8008V43.802V43.8033V43.8046V43.8058V43.8071V43.8084V43.8096V43.8109V43.8121V43.8134V43.8147V43.8159V43.8172V43.8184V43.8197V43.8209V43.8222V43.8234V43.8247V43.8259V43.8272V43.8284V43.8297V43.8309V43.8322V43.8334V43.8347V43.8359V43.8372V43.8384V43.8396V43.8409V43.8421V43.8434V43.8446V43.8458V43.8471V43.8483V43.8495V43.8508V43.852V43.8532V43.8545V43.8557V43.8569V43.8582V43.8594V43.8606V43.8619V43.8631V43.8643V43.8655V43.8668V43.868V43.8692V43.8704V43.8717V43.8729V43.8741V43.8753V43.8765V43.8778V43.879V43.8802V43.8814V43.8826V43.8838V43.8851V43.8863V43.8875V43.8887V43.8899V43.8911V43.8923V43.8936V43.8948V43.896V43.8972V43.8984V43.8996V43.9008V43.902V43.9032V43.9044V43.9056V43.9068V43.908V43.9092V43.9104V43.9116V43.9128V43.9141V43.9153V43.9165V43.9177V43.9189V43.9201V43.9213V43.9225V43.9236V43.9248V43.926V43.9272V43.9284V43.9296V43.9308V43.932V43.9332V43.9344V43.9356V43.9368V43.938V43.9392V43.9404V43.9416V43.9427V43.9439V43.9451V43.9463V43.9475V43.9487V43.9499V43.9511V43.9523V43.9534V43.9546V43.9558V43.957V43.9582V43.9594V43.9606V43.9617V43.9629V43.9641V43.9653V43.9665V43.9677V43.9688V43.97V43.9712V43.9724V43.9736V43.9748V43.9759V43.9771V43.9783V43.9795V43.9807V43.9818V43.983V43.9842V43.9854V43.9866V43.9877V43.9889V43.9901V43.9913V43.9924V43.9936V43.9948V43.996V43.9971V43.9983V43.9995V44.0007V44.0019V44.003V44.0042V44.0054V44.0066V44.0077V44.0089V44.0101V44.0113V44.0124V44.0136V44.0148V44.0159V44.0171V44.0183V44.0195V44.0206V44.0218V44.023V44.0242V44.0253V44.0265V44.0277V44.0289V44.03V44.0312V44.0324V44.0335V44.0347V44.0359V44.0371V44.0382V44.0394V44.0406V44.0417V44.0429V44.0441V44.0453V44.0464V44.0476V44.0488V44.0499C53.1434 44.7582 53.1422 45.3158 53.0502 45.8678ZM77.0293 3.14995H76.5293V3.64995V84.55V85.05H77.0293H134.829H135.329V84.55V68.45V67.95H134.829H95.0293V50.9514L128.128 51.0499L128.629 51.0514V50.55V34.45V33.9529L128.132 33.95L95.0293 33.7529V20.35H134.829H135.329V19.85V3.64995V3.14995H134.829H77.0293ZM179.328 35.6619L179.326 35.6615C174.511 34.6081 170.116 33.6181 166.923 32.1933C163.722 30.7652 161.919 28.9909 161.919 26.45C161.919 23.8098 163.638 21.8718 166.103 20.5668C168.568 19.2618 171.685 18.65 174.219 18.65C177.998 18.65 181.835 19.5596 184.709 21.1969C187.588 22.8365 189.419 25.1494 189.419 27.95V29.55V30.05H189.919H207.619H208.119V29.55V27.95C208.119 20.1957 204.798 13.5805 199.111 8.91344C193.431 4.25187 185.412 1.54995 176.019 1.54995C165.84 1.54995 157.398 4.11942 151.487 8.71782C145.565 13.3255 142.219 19.9463 142.219 27.95C142.219 35.7263 146.336 40.5953 152.007 43.8704C157.644 47.1263 164.87 48.8403 171.203 50.3362C171.203 50.3363 171.204 50.3364 171.204 50.3366L171.479 50.4026C176.39 51.581 180.877 52.6577 184.162 54.1549C187.514 55.6832 189.419 57.5573 189.419 60.25C189.419 63.6919 187.743 65.8843 185.196 67.2466C182.614 68.6277 179.135 69.15 175.619 69.15C171.909 69.15 168.251 68.5544 165.539 67.1322C162.854 65.7238 161.119 63.5252 161.119 60.25V58.65V58.15H160.619H141.419H140.919V58.65V60.25C140.919 67.6477 144.009 74.2365 149.57 78.9683C155.127 83.6964 163.123 86.55 172.919 86.55C184.643 86.55 193.617 83.7326 199.671 78.8388C205.737 73.9351 208.819 66.9865 208.819 58.85C208.819 54.7122 207.79 51.3542 206.021 48.6059C204.255 45.8618 201.769 43.7524 198.896 42.0803C193.173 38.7504 185.827 37.1116 179.351 35.667L179.328 35.6619ZM232.313 3.64995V3.14995H231.813H215.213H214.713V3.64995V84.55V85.05H215.213H231.813H232.313V84.55V3.64995ZM281.292 44.25H280.792V44.75V56.75V57.25H281.292H295.04C291.534 65.2569 284.788 68.85 276.792 68.85C270.904 68.85 265.774 66.9152 262.112 62.8885C258.444 58.8569 256.192 52.6664 256.192 44.0499C256.192 35.5363 258.468 29.3443 262.15 25.2859C265.827 21.2319 270.959 19.25 276.792 19.25C281.161 19.25 285.085 20.305 288.301 22.465C291.513 24.6232 294.051 27.9052 295.62 32.4142L295.736 32.75H296.092H314.092H314.71L314.581 32.1455C310.43 12.7091 295.622 1.44995 276.792 1.44995C266.121 1.44995 256.362 5.26996 249.272 12.5255C242.18 19.7824 237.792 30.4395 237.792 44.0499C237.792 57.958 242.178 68.5926 249.274 75.7519C256.368 82.9093 266.127 86.55 276.792 86.55C286.195 86.55 294.864 83.7958 301.674 78.2649L303.003 84.5533L303.086 84.95H303.492H314.392H314.892V84.45V44.75V44.25H314.392H281.292ZM377.956 3.14995H377.456V3.64995V56.7121L338.66 3.35591L338.51 3.14995H338.256H321.756H321.256V3.64995V84.55V85.05H321.756H338.256H338.751L338.756 84.5545L339.242 31.0933L377.549 84.8402L377.698 85.05H377.956H394.556H395.056V84.55V3.64995V3.14995H394.556H377.956Z" stroke="#232323"/>
</svg>
