<svg width="132" height="87" viewBox="0 0 132 87" fill="none" xmlns="http://www.w3.org/2000/svg">
<path d="M99.1011 28.9465C97.6351 29.3907 96.3109 30.0424 94.8211 30.917V19.6H127.221H127.721V19.1V2.8V2.3H127.221H78.5211H78.0211V2.8V49V49.4966L78.5176 49.5L93.0176 49.6L93.3911 49.6026L93.4995 49.2452C94.3385 46.4816 95.3766 44.5171 96.9162 43.2341C98.446 41.9593 100.541 41.3 103.621 41.3C108.054 41.3 110.82 43.1414 112.502 45.7345C114.204 48.3594 114.821 51.8002 114.821 55C114.821 59.8852 113.734 63.6082 111.743 66.1004C109.765 68.5753 106.845 69.9 103.021 69.9C100.505 69.9 98.3441 69.2719 96.6375 67.9655C94.9441 66.6691 93.6523 64.6701 92.9211 61.837V61.7V61.2H92.4211H75.2211H74.7211V61.7V62.1V62.143L74.7284 62.1853C75.6364 67.4313 77.5376 73.2972 82.0275 77.8511C86.5296 82.4172 93.5697 85.6 104.621 85.6C110.68 85.6 117.31 83.5129 122.429 78.6241C127.556 73.7274 131.121 66.0635 131.121 55C131.121 40.0552 120.828 28.2 105.221 28.2C102.691 28.2 100.813 28.4276 99.1011 28.9465ZM35.8 0.5C25.1611 0.5 16.3168 4.60881 10.1409 12.0173C3.97269 19.4167 0.5 30.0653 0.5 43.1C0.5 56.7393 4.25024 67.3665 10.5609 74.5914C16.8764 81.8219 25.7184 85.6 35.8 85.6C46.0816 85.6 54.9248 81.7718 61.191 74.5143C67.4511 67.2636 71.1 56.6367 71.1 43.1C71.1 29.9704 67.7549 19.3206 61.6476 11.9436C55.5312 4.55558 46.6843 0.5 35.8 0.5ZM35.8 67.1C30.6856 67.1 26.6858 64.6748 23.9436 60.4766C21.1888 56.2591 19.7 50.2398 19.7 43.1C19.7 34.978 20.8748 28.948 23.4572 24.9592C26.0103 21.0158 29.9851 19 35.8 19C41.0713 19 45.0672 21.3812 47.7676 25.5589C50.4837 29.761 51.9 35.8038 51.9 43.1C51.9 50.3319 50.2644 56.3508 47.4355 60.5454C44.6153 64.727 40.6117 67.1 35.8 67.1Z" stroke="#EBEBE2"/>
</svg>
