<svg width="33" height="32" viewBox="0 0 33 32" fill="none" xmlns="http://www.w3.org/2000/svg">
<path fill-rule="evenodd" clip-rule="evenodd" d="M18.6852 1.27546L7.2497 16.9585H15.2199C15.9899 16.9585 16.576 17.6616 16.4507 18.435L14.4592 30.7255L25.7504 13.8192H17.5841C16.7897 13.8192 16.1977 13.0735 16.3644 12.283L18.6852 1.27546ZM17.6836 0.51864C18.483 -0.577668 20.1864 0.207055 19.9049 1.54193L17.5841 12.5494H25.7504C26.7519 12.5494 27.3451 13.6901 26.782 14.5332L15.4908 31.4394C14.7393 32.5647 13.0109 31.8614 13.2284 30.5188L15.2199 18.2283H7.2497C6.22461 18.2283 5.63706 17.0396 6.24802 16.2017L17.6836 0.51864Z" fill="#FAFF00"/>
</svg>
