<svg width="141" height="87" viewBox="0 0 141 87" fill="none" xmlns="http://www.w3.org/2000/svg">
<path d="M139.884 47.4001V46.9001H139.384H127.684V2.8001V2.3001H127.184H110.984H110.744L110.594 2.48658L74.6941 47.0866L74.5836 47.2239V47.4001V62.3001V62.8001H75.0836H110.484V83.7001V84.2001H110.984H127.184H127.684V83.7001V62.8001H139.384H139.884V62.3001V47.4001ZM35.8 0.600098C25.1611 0.600098 16.3168 4.70891 10.1409 12.1174C3.97269 19.5168 0.5 30.1654 0.5 43.2001C0.5 56.8394 4.25024 67.4666 10.5609 74.6915C16.8764 81.922 25.7184 85.7001 35.8 85.7001C46.0816 85.7001 54.9248 81.8719 61.191 74.6144C67.4511 67.3637 71.1 56.7368 71.1 43.2001C71.1 30.0705 67.7549 19.4207 61.6476 12.0437C55.5312 4.65568 46.6843 0.600098 35.8 0.600098ZM35.8 67.2001C30.6856 67.2001 26.6858 64.7749 23.9436 60.5767C21.1888 56.3592 19.7 50.3399 19.7 43.2001C19.7 35.0781 20.8748 29.0481 23.4572 25.0593C26.0103 21.1159 29.9851 19.1001 35.8 19.1001C41.0713 19.1001 45.0672 21.4813 47.7676 25.659C50.4837 29.8611 51.9 35.9039 51.9 43.2001C51.9 50.432 50.2644 56.4509 47.4355 60.6455C44.6153 64.8271 40.6117 67.2001 35.8 67.2001ZM110.484 46.9001H93.3403L110.484 25.9982V46.9001Z" stroke="#EBEBE2"/>
</svg>
