<svg width="141" height="87" viewBox="0 0 141 87" fill="none" xmlns="http://www.w3.org/2000/svg">
<path d="M139.884 47.3V46.8H139.384H127.684V2.7V2.2H127.184H110.984H110.744L110.594 2.38648L74.6941 46.9865L74.5836 47.1238V47.3V62.2V62.7H75.0836H110.484V83.6V84.1H110.984H127.184H127.684V83.6V62.7H139.384H139.884V62.2V47.3ZM71.1 43.1C71.1 29.9704 67.7549 19.3206 61.6476 11.9436C55.5312 4.55558 46.6843 0.5 35.8 0.5C25.1611 0.5 16.3168 4.60881 10.1409 12.0173C3.97269 19.4167 0.5 30.0653 0.5 43.1C0.5 56.7393 4.25024 67.3665 10.5609 74.5914C16.8764 81.8219 25.7184 85.6 35.8 85.6C46.0816 85.6 54.9248 81.7718 61.191 74.5143C67.4511 67.2636 71.1 56.6367 71.1 43.1ZM51.9 43.1C51.9 50.3319 50.2644 56.3508 47.4355 60.5454C44.6153 64.727 40.6117 67.1 35.8 67.1C30.6856 67.1 26.6858 64.6748 23.9436 60.4766C21.1888 56.2591 19.7 50.2398 19.7 43.1C19.7 34.978 20.8748 28.948 23.4572 24.9592C26.0103 21.0158 29.9851 19 35.8 19C41.0713 19 45.0672 21.3812 47.7676 25.5589C50.4837 29.761 51.9 35.8038 51.9 43.1ZM110.484 25.8981V46.8H93.3403L110.484 25.8981Z" stroke="#232323"/>
</svg>
