<svg width="131" height="43" viewBox="0 0 131 43" fill="none" xmlns="http://www.w3.org/2000/svg">
<path d="M7.704 1.064H8.204V0.564H7.704V1.064ZM7.704 35.392H7.204V35.892H7.704V35.392ZM24.84 35.392H25.34V34.892H24.84V35.392ZM24.84 42V42.5H25.34V42H24.84ZM0.536 42H0.036V42.5H0.536V42ZM0.536 1.064V0.564H0.036V1.064H0.536ZM7.204 1.064V35.392H8.204V1.064H7.204ZM7.704 35.892H24.84V34.892H7.704V35.892ZM24.34 35.392V42H25.34V35.392H24.34ZM24.84 41.5H0.536V42.5H24.84V41.5ZM1.036 42V1.064H0.036V42H1.036ZM0.536 1.564H7.704V0.564H0.536V1.564ZM35.2906 42V42.5H35.6456L35.7626 42.1648L35.2906 42ZM27.8426 42L27.3723 41.8302L27.1304 42.5H27.8426V42ZM42.6266 1.064V0.564H42.2755L42.1563 0.894162L42.6266 1.064ZM49.9626 1.064L50.4328 0.894162L50.3136 0.564H49.9626V1.064ZM64.7466 42V42.5H65.4587L65.2168 41.8302L64.7466 42ZM57.1866 42L56.7145 42.1648L56.8315 42.5H57.1866V42ZM53.8826 32.536L54.3546 32.3712L54.2376 32.036H53.8826V32.536ZM38.5946 32.536V32.036H38.2395L38.1225 32.3712L38.5946 32.536ZM45.3706 13.272L45.8422 13.4379L45.8425 13.4372L45.3706 13.272ZM40.7226 26.488L40.2509 26.3221L40.0167 26.988H40.7226V26.488ZM51.8106 26.488V26.988H52.5193L52.2816 26.3203L51.8106 26.488ZM47.1066 13.272L46.6298 13.4226L46.6325 13.4312L46.6355 13.4397L47.1066 13.272ZM46.2666 10.136L46.7622 10.0699L45.7777 10.0312L46.2666 10.136ZM35.2906 41.5H27.8426V42.5H35.2906V41.5ZM28.3128 42.1698L43.0968 1.23384L42.1563 0.894162L27.3723 41.8302L28.3128 42.1698ZM42.6266 1.564H49.9626V0.564H42.6266V1.564ZM49.4923 1.23384L64.2763 42.1698L65.2168 41.8302L50.4328 0.894162L49.4923 1.23384ZM64.7466 41.5H57.1866V42.5H64.7466V41.5ZM57.6586 41.8352L54.3546 32.3712L53.4105 32.7008L56.7145 42.1648L57.6586 41.8352ZM53.8826 32.036H38.5946V33.036H53.8826V32.036ZM38.1225 32.3712L34.8185 41.8352L35.7626 42.1648L39.0666 32.7008L38.1225 32.3712ZM44.8989 13.1061L40.2509 26.3221L41.1942 26.6539L45.8422 13.4379L44.8989 13.1061ZM40.7226 26.988H51.8106V25.988H40.7226V26.988ZM52.2816 26.3203L47.5776 13.1043L46.6355 13.4397L51.3395 26.6557L52.2816 26.3203ZM47.5834 13.1214C47.2412 12.0381 46.867 10.8562 46.7622 10.0699L45.7709 10.2021C45.8901 11.0958 46.2999 12.3779 46.6298 13.4226L47.5834 13.1214ZM45.7777 10.0312C45.6142 10.7941 45.2839 12.0059 44.8986 13.1068L45.8425 13.4372C46.2412 12.2981 46.5829 11.0459 46.7555 10.2408L45.7777 10.0312ZM95.8638 12.32V12.82H96.3791L96.3635 12.3049L95.8638 12.32ZM88.6958 12.32L88.1963 12.3438L88.219 12.82H88.6958V12.32ZM79.6798 17.584L79.5679 18.0714L79.5735 18.0726L79.6798 17.584ZM86.1198 18.984L86.0135 19.4726L86.0142 19.4727L86.1198 18.984ZM66.9678 30.744V30.244H66.4562L66.4679 30.7554L66.9678 30.744ZM74.1358 30.744L74.6357 30.7359L74.6278 30.244H74.1358V30.744ZM84.6078 25.704L84.4984 26.1919L84.5019 26.1927L84.6078 25.704ZM78.1118 24.248L78.2211 23.7601L78.2181 23.7594L78.1118 24.248ZM68.0278 12.488C68.0278 9.05281 69.4455 6.15505 71.8945 4.10759C74.35 2.05462 77.8695 0.835999 82.0878 0.835999V-0.164001C77.682 -0.164001 73.9215 1.10938 71.253 3.3404C68.578 5.57695 67.0278 8.75518 67.0278 12.488H68.0278ZM82.0878 0.835999C86.1417 0.835999 89.4032 1.95839 91.6714 3.93311C93.9338 5.90269 95.2557 8.76087 95.364 12.3351L96.3635 12.3049C96.2478 8.48712 94.8257 5.3533 92.3281 3.17889C89.8363 1.0096 86.3218 -0.164001 82.0878 -0.164001V0.835999ZM95.8638 11.82H88.6958V12.82H95.8638V11.82ZM89.1952 12.2962C89.1054 10.4109 88.3809 8.87242 87.1042 7.81231C85.8357 6.75915 84.0734 6.22 81.9758 6.22V7.22C83.9101 7.22 85.4238 7.71684 86.4653 8.58168C87.4986 9.43958 88.1181 10.7011 88.1963 12.3438L89.1952 12.2962ZM81.9758 6.22C79.6902 6.22 77.7534 6.769 76.375 7.81232C74.9823 8.86647 74.1958 10.4004 74.1958 12.264H75.1958C75.1958 10.7116 75.8372 9.47353 76.9785 8.60967C78.1341 7.73499 79.8373 7.22 81.9758 7.22V6.22ZM74.1958 12.264C74.1958 13.8156 74.6168 15.0834 75.5431 16.0651C76.4571 17.0339 77.8113 17.6682 79.5679 18.0713L79.7916 17.0967C78.1322 16.7158 76.9944 16.1461 76.2704 15.3789C75.5587 14.6246 75.1958 13.6244 75.1958 12.264H74.1958ZM79.5735 18.0726L86.0135 19.4726L86.226 18.4954L79.786 17.0954L79.5735 18.0726ZM86.0142 19.4727C89.4573 20.2164 91.9529 21.4564 93.5876 23.2036C95.2127 24.9405 96.0358 27.2311 96.0358 30.184H97.0358C97.0358 27.0329 96.1508 24.4795 94.3179 22.5204C92.4946 20.5716 89.7822 19.2636 86.2253 18.4953L86.0142 19.4727ZM96.0358 30.184C96.0358 33.8515 94.6117 36.8442 92.12 38.9285C89.6195 41.02 86.0044 42.228 81.5838 42.228V43.228C86.1791 43.228 90.04 41.972 92.7616 39.6955C95.4918 37.4118 97.0358 34.1325 97.0358 30.184H96.0358ZM81.5838 42.228C77.3006 42.228 73.8099 41.0887 71.3794 39.1C68.9577 37.1186 67.5485 34.263 67.4676 30.7326L66.4679 30.7554C66.555 34.561 68.0858 37.6974 70.7461 39.874C73.3976 42.0433 77.1309 43.228 81.5838 43.228V42.228ZM66.9678 31.244H74.1358V30.244H66.9678V31.244ZM73.6358 30.7521C73.6662 32.6364 74.4494 34.1706 75.8605 35.2193C77.2551 36.2557 79.2203 36.788 81.5838 36.788V35.788C79.3552 35.788 77.6244 35.2843 76.457 34.4167C75.3061 33.5614 74.6613 32.3236 74.6357 30.7359L73.6358 30.7521ZM81.5838 36.788C84.0278 36.788 86.0855 36.2572 87.5473 35.2347C89.0274 34.1994 89.8678 32.6768 89.8678 30.8H88.8678C88.8678 32.3392 88.1961 33.5606 86.9742 34.4153C85.734 35.2828 83.8997 35.788 81.5838 35.788V36.788ZM89.8678 30.8C89.8678 29.3396 89.4927 28.1142 88.6163 27.1581C87.7495 26.2126 86.4471 25.5909 84.7136 25.2153L84.5019 26.1927C86.1284 26.5451 87.206 27.0994 87.8792 27.8339C88.5428 28.5578 88.8678 29.5164 88.8678 30.8H89.8678ZM84.7171 25.2161L78.2211 23.7601L78.0024 24.7359L84.4984 26.1919L84.7171 25.2161ZM78.2181 23.7594C74.8139 23.0182 72.2743 21.6848 70.5867 19.8177C68.9052 17.9575 68.0278 15.5218 68.0278 12.488H67.0278C67.0278 15.7262 67.9703 18.4145 69.8448 20.4883C71.7132 22.5552 74.4656 23.9658 78.0054 24.7366L78.2181 23.7594ZM98.8895 7.672H98.3895V8.172H98.8895V7.672ZM98.8895 1.064V0.564H98.3895V1.064H98.8895ZM130.026 1.064H130.526V0.564H130.026V1.064ZM130.026 7.672V8.172H130.526V7.672H130.026ZM118.042 7.672V7.172H117.542V7.672H118.042ZM118.042 42V42.5H118.542V42H118.042ZM110.874 42H110.374V42.5H110.874V42ZM110.874 7.672H111.374V7.172H110.874V7.672ZM99.3895 7.672V1.064H98.3895V7.672H99.3895ZM98.8895 1.564H130.026V0.564H98.8895V1.564ZM129.526 1.064V7.672H130.526V1.064H129.526ZM130.026 7.172H118.042V8.172H130.026V7.172ZM117.542 7.672V42H118.542V7.672H117.542ZM118.042 41.5H110.874V42.5H118.042V41.5ZM111.374 42V7.672H110.374V42H111.374ZM110.874 7.172H98.8895V8.172H110.874V7.172Z" fill="#232323"/>
</svg>
