<svg width="80" height="82" viewBox="0 0 80 82" fill="none" xmlns="http://www.w3.org/2000/svg">
<path d="M17.9609 42.3C17.979 41.8029 18.0722 42.3184 17.5841 42.3C17.0959 42.2816 16.6856 42.6697 16.6675 43.1668L15.4568 62.4825C15.3537 65.3187 16.1301 68.116 17.6759 70.4775L20.6254 74.9833C23.086 78.7422 27.2283 81 31.6641 81H45.9254C50.8593 81 55.4793 78.5347 58.2877 74.4032L62.0632 68.8492L63.6736 65.5689C65.5984 61.6484 65.9728 57.1252 64.7197 52.9318L61.5222 42.2323C56.8333 34.3333 40.9927 39.5643 38.2677 39.5643C38.2341 41.7159 38.646 43.3591 39.3093 44.6118C40.0546 46.0195 41.15 46.9964 42.421 47.6572C45.0002 48.9981 48.275 49.0169 50.5236 48.5875L51.5711 48.3875V54.8775H50.6866C47.5024 54.8775 44.6241 56.7749 42.2644 59.3238C39.9162 61.8603 38.1999 64.9186 37.3482 66.9424M54.1904 38.0104L62.5895 8.07117C62.9336 6.84486 62.8521 5.53526 62.3588 4.363C61.0772 1.31747 57.4766 0.0885051 54.6519 1.73246L54.4664 1.8404C53.2716 2.53578 52.368 3.64675 51.9282 4.97945C50.4644 9.41568 46.5344 21.3996 44.3367 28.819L31.6151 4.38801C29.2088 2.20961 25.3905 3.75707 25.1246 7.00591C25.0761 7.59929 25.1593 8.1962 25.3681 8.75238L36.4769 38.3419M27.1219 30.7527C24.348 32.0157 23.1047 35.3297 24.3448 38.1547L30.9312 53.159C32.1713 55.9841 35.4253 57.2503 38.1992 55.9874C40.973 54.7244 42.2164 51.4104 40.9763 48.5854L34.3898 33.5811C33.1497 30.756 29.8958 29.4897 27.1219 30.7527ZM18.2022 43.6876C17.5842 42.2797 18.2039 40.6282 19.5862 39.9988L21.6205 39.0725C23.0029 38.4431 24.6245 39.0742 25.2425 40.482L29.5977 50.4034C30.4668 52.3833 29.5954 54.706 27.6513 55.5912C25.7072 56.4763 23.4266 55.5888 22.5574 53.6089L18.2022 43.6876Z" stroke="#FF7223"/>
</svg>
