<svg width="49" height="50" viewBox="0 0 49 50" fill="none" xmlns="http://www.w3.org/2000/svg">
<path d="M11.5079 25.78C11.5188 25.4817 11.5747 25.791 11.2818 25.78C10.9889 25.769 10.7427 26.0018 10.7318 26.3001L10.0055 37.8895C9.94357 39.5912 10.4094 41.2696 11.3369 42.6865L13.1066 45.39C14.5829 47.6453 17.0683 49 19.7298 49H28.2866C31.2469 49 34.0189 47.5208 35.704 45.0419L37.9692 41.7095L38.9355 39.7414C40.0904 37.389 40.315 34.6751 39.5631 32.1591L37.6447 25.7394C34.8313 21 25.327 24.1386 23.692 24.1386C23.6718 25.4296 23.919 26.4154 24.3169 27.1671C24.7641 28.0117 25.4214 28.5978 26.184 28.9943C27.7315 29.7988 29.6963 29.8102 31.0455 29.5525L31.674 29.4325V33.3265H31.1433C29.2328 33.3265 27.5058 34.465 26.09 35.9943C24.6811 37.5162 23.6513 39.3512 23.1403 40.5655M33.2456 23.2062L38.2851 5.2427C38.4915 4.50692 38.4426 3.72116 38.1466 3.0178C37.3777 1.19048 35.2173 0.453103 33.5225 1.43948L33.4112 1.50424C32.6943 1.92147 32.1522 2.58805 31.8883 3.38767C31.01 6.04941 28.652 13.2398 27.3333 17.6914L19.7004 3.03281C18.2566 1.72576 15.9656 2.65424 15.8061 4.60354C15.777 4.95958 15.8269 5.31772 15.9522 5.65143L22.6175 23.4051M17.0045 18.8516C15.3402 19.6094 14.5941 21.5978 15.3382 23.2928L19.2901 32.2954C20.0341 33.9904 21.9865 34.7502 23.6508 33.9924C25.3152 33.2346 26.0612 31.2462 25.3171 29.5512L21.3652 20.5486C20.6212 18.8536 18.6688 18.0938 17.0045 18.8516ZM11.6527 26.6125C11.2819 25.7678 11.6537 24.7769 12.4831 24.3993L13.7037 23.8435C14.5331 23.4659 15.506 23.8445 15.8768 24.6892L18.4899 30.642C19.0114 31.83 18.4886 33.2236 17.3221 33.7547C16.1556 34.2858 14.7873 33.7533 14.2658 32.5653L11.6527 26.6125Z" stroke="#FF7223" stroke-width="1.5"/>
</svg>
