<svg width="379" height="88" viewBox="0 0 379 88" fill="none" xmlns="http://www.w3.org/2000/svg">
<path d="M80.7564 3.1502H80.2564V3.6502V19.8502V20.3502H80.7564H108.456V84.5502V85.0502H108.956H126.856H127.356V84.5502V20.3502H155.056H155.556V19.8502V3.6502V3.1502H155.056H80.7564ZM178.935 3.6502V3.1502H178.435H160.535H160.035V3.6502V84.5502V85.0502H160.535H178.435H178.935V84.5502V50.9502H212.035V84.5502V85.0502H212.535H230.535H231.035V84.5502V3.6502V3.1502H230.535H212.535H212.035V3.6502V33.7502H178.935V3.6502ZM239.832 3.1502H239.332V3.6502V84.5502V85.0502H239.832H297.632H298.132V84.5502V68.4502V67.9502H297.632H257.832V50.9517L290.931 51.0502L291.432 51.0517V50.5502V34.4502V33.9532L290.935 33.9502L257.832 33.7532V20.3502H297.632H298.132V19.8502V3.6502V3.1502H297.632H239.832ZM357.862 53.8958C367.258 50.0378 373.222 40.0255 373.222 29.7502C373.222 16.0692 362.193 3.1502 344.322 3.1502H306.922H306.422V3.6502V84.5502V85.0502H306.922H324.822H325.322V84.5502V55.9502H325.326H325.335H325.344H325.353H325.362H325.372H325.381H325.391H325.401H325.41H325.42H325.43H325.44H325.451H325.461H325.471H325.482H325.492H325.503H325.514H325.525H325.536H325.547H325.558H325.57H325.581H325.593H325.604H325.616H325.628H325.64H325.652H325.664H325.677H325.689H325.702H325.714H325.727H325.74H325.753H325.766H325.779H325.792H325.806H325.819H325.833H325.847H325.86H325.874H325.889H325.903H325.917H325.931H325.946H325.961H325.975H325.99H326.005H326.021H326.036H326.051H326.067H326.082H326.098H326.114H326.13H326.146H326.162H326.179H326.195H326.212H326.228H326.245H326.262H326.279H326.296H326.314H326.331H326.349H326.367H326.384H326.402H326.42H326.439H326.457H326.475H326.494H326.513H326.532H326.551H326.57H326.589H326.608H326.628H326.648H326.667H326.687H326.707H326.728H326.748H326.768H326.789H326.81H326.831H326.852H326.873H326.894H326.915H326.937H326.959H326.98H327.002H327.025H327.047H327.069H327.092H327.114H327.137H327.16H327.183H327.206H327.23H327.253H327.277H327.301H327.325H327.349H327.373H327.398H327.422H327.447H327.472H327.497H327.522H327.547H327.572H327.598H327.624H327.65H327.676H327.702H327.728H327.755H327.781H327.808H327.835H327.862H327.889H327.917H327.944H327.972H328H328.028H328.056H328.084H328.113H328.141H328.17H328.199H328.228H328.257H328.287H328.316H328.346H328.376H328.406H328.436H328.467H328.497H328.528H328.559H328.59H328.621H328.652H328.684H328.715H328.747H328.779H328.811H328.844H328.876H328.909H328.942H328.975H329.008H329.041H329.075H329.109H329.142H329.176H329.211H329.245H329.28H329.314H329.349H329.384H329.419H329.455H329.49H329.526H329.562H329.598H329.634H329.671H329.707H329.744H329.781H329.818H329.856H329.893H329.931H329.969H330.007H330.045H330.083H330.122H330.161H330.2H330.239H330.278H330.317H330.357H330.397H330.437H330.477H330.518H330.558H330.599H330.64H330.681H330.722H330.764H330.806H330.847H330.889H330.932H330.974H331.017H331.06H331.103H331.146H331.189H331.233H331.277H331.32H331.365H331.409H331.454H331.498H331.543H331.588H331.634H331.679H331.725H331.771H331.817H331.863H331.91H331.956H332.003H332.05H332.097H332.145H332.193H332.24H332.289H332.337H332.385H332.434H332.483H332.532H332.581H332.631H332.68H332.73H332.78H332.831H332.881H332.932H332.983H333.034H333.085H333.137H333.188H333.24H333.292H333.345H333.397H333.45H333.503H333.556H333.61H333.663H333.717H333.771H333.825H333.88H333.935H333.989H334.044H334.1H334.155H334.211H334.267H334.323H334.38H334.436H334.493H334.55H334.607H334.665H334.722H334.78H334.838H334.897H334.955H335.014H335.073H335.132H335.192H335.251H335.311H335.371H335.432H335.492H335.553H335.614H335.675H335.736H335.798H335.86H335.922H335.984H336.047H336.11H336.173H336.236H336.3H336.363H336.427H336.491H336.556H336.62H336.685H336.75H336.816H336.881H336.947H337.013H337.079H337.146H337.212H337.279H337.346H337.414H337.482H337.549H337.618H337.686H337.754H337.823H337.892H337.962H338.031H338.101H338.171H338.241H338.312H338.382H338.453H338.525H338.596H338.668H338.74H338.812H338.884H338.957H339.03H339.103H339.177H339.25H339.324H339.326L355.184 84.7911L355.326 85.0502H355.622H376.222H377.119L376.647 84.2873L357.862 53.8958ZM40.2783 1.4502C29.6072 1.4502 19.8489 5.27021 12.7582 12.5257C5.66624 19.7826 1.27832 30.4398 1.27832 44.0502C1.27832 57.9582 5.66486 68.5929 12.7607 75.7522C19.8546 82.9095 29.6138 86.5502 40.2783 86.5502C50.9417 86.5502 60.7258 82.9352 67.845 75.7906C74.9665 68.6437 79.3783 58.0086 79.3783 44.0502C79.3783 30.6951 75.2188 20.0386 68.2274 12.7174C61.2353 5.39535 51.4493 1.4502 40.2783 1.4502ZM40.2783 68.8502C34.391 68.8502 29.261 66.9154 25.5982 62.8887C21.9309 58.8571 19.6783 52.6666 19.6783 44.0502C19.6783 35.4859 21.9548 29.2945 25.6356 25.2492C29.3125 21.2083 34.4436 19.2502 40.2783 19.2502C46.1639 19.2502 51.2943 21.2088 54.958 25.2486C58.6261 29.2933 60.8783 35.4845 60.8783 44.0502C60.8783 52.668 58.6501 58.8583 54.9954 62.8894C51.3457 66.9149 46.2166 68.8502 40.2783 68.8502ZM325.322 39.2502V19.8502H345.722C351.706 19.8502 356.522 23.7824 356.522 29.7502C356.522 32.701 355.314 35.0616 353.375 36.6926C351.429 38.3304 348.723 39.2502 345.722 39.2502H325.322Z" stroke="#232323"/>
</svg>
