<svg width="820" height="79" viewBox="0 0 820 79" fill="none" xmlns="http://www.w3.org/2000/svg">
<mask id="path-1-outside-1_868_195" maskUnits="userSpaceOnUse" x="0.139648" y="0.660004" width="820" height="78" fill="black">
<rect fill="white" x="0.139648" y="0.660004" width="820" height="78"/>
<path d="M59.4596 3.19001H76.3797V76H61.0797V34.33L44.7896 76H32.7296L16.4396 34.24V76H1.13965V3.19001H17.9696L38.7597 60.52L59.4596 3.19001ZM84.7236 3.19001H136.744V17.77H100.474V30.73L130.714 30.91V45.4L100.474 45.31V61.51H136.744V76H84.7236V3.19001ZM141.594 3.19001H208.464V17.77H183.084V76H166.974V17.77H141.594V3.19001ZM258.576 48.19L275.766 76H257.226L242.826 49.81C231.306 49.81 229.506 49.81 229.506 49.81V76H213.396V3.19001H247.056C262.896 3.19001 272.616 14.62 272.616 26.68C272.616 35.95 267.125 44.95 258.576 48.19ZM229.506 35.68H248.316C253.896 35.68 258.486 32.26 258.486 26.68C258.486 21.01 253.896 17.32 248.316 17.32H229.506V35.68ZM312.498 1.66C332.388 1.66 347.238 15.7 347.238 39.55C347.238 64.48 331.488 77.35 312.498 77.35C293.508 77.35 277.848 64.39 277.848 39.55C277.848 15.25 293.508 1.66 312.498 1.66ZM312.498 62.32C323.388 62.32 331.488 55.21 331.488 39.55C331.488 23.98 323.298 16.78 312.498 16.78C301.788 16.78 293.508 23.98 293.508 39.55C293.508 55.21 301.698 62.32 312.498 62.32ZM442.311 3.19001H459.231V76H443.931V34.33L427.641 76H415.581L399.291 34.24V76H383.991V3.19001H400.821L421.611 60.52L442.311 3.19001ZM513.295 76L507.625 60.97H480.805L475.135 76H459.835L486.565 3.19001H503.485L528.685 76H513.295ZM485.845 47.56H502.585L494.215 25.42L485.845 47.56ZM575.972 46.66H592.442C589.652 67 575.252 77.35 558.152 77.35C539.162 77.35 523.502 64.39 523.502 39.55C523.502 15.25 539.162 1.66 558.152 1.66C575.342 1.66 588.662 12.19 592.082 30.28H575.252C573.362 21.19 566.522 16.78 558.152 16.78C547.442 16.78 539.162 23.98 539.162 39.55C539.162 55.21 547.352 62.32 558.152 62.32C567.242 62.32 574.802 57.28 575.972 46.66ZM613.851 3.19001V30.73H644.541V3.19001H660.741V76H644.541V45.31H613.851V76H597.741V3.19001H613.851ZM684.048 3.19001V76H669.108V3.19001H684.048ZM742.979 3.19001H757.919V76H742.979L707.699 26.5L707.249 76H692.399V3.19001H707.249L742.979 52.33V3.19001ZM766.315 3.19001H818.335V17.77H782.065V30.73L812.305 30.91V45.4L782.065 45.31V61.51H818.335V76H766.315V3.19001Z"/>
</mask>
<path d="M59.4596 3.19001H76.3797V76H61.0797V34.33L44.7896 76H32.7296L16.4396 34.24V76H1.13965V3.19001H17.9696L38.7597 60.52L59.4596 3.19001ZM84.7236 3.19001H136.744V17.77H100.474V30.73L130.714 30.91V45.4L100.474 45.31V61.51H136.744V76H84.7236V3.19001ZM141.594 3.19001H208.464V17.77H183.084V76H166.974V17.77H141.594V3.19001ZM258.576 48.19L275.766 76H257.226L242.826 49.81C231.306 49.81 229.506 49.81 229.506 49.81V76H213.396V3.19001H247.056C262.896 3.19001 272.616 14.62 272.616 26.68C272.616 35.95 267.125 44.95 258.576 48.19ZM229.506 35.68H248.316C253.896 35.68 258.486 32.26 258.486 26.68C258.486 21.01 253.896 17.32 248.316 17.32H229.506V35.68ZM312.498 1.66C332.388 1.66 347.238 15.7 347.238 39.55C347.238 64.48 331.488 77.35 312.498 77.35C293.508 77.35 277.848 64.39 277.848 39.55C277.848 15.25 293.508 1.66 312.498 1.66ZM312.498 62.32C323.388 62.32 331.488 55.21 331.488 39.55C331.488 23.98 323.298 16.78 312.498 16.78C301.788 16.78 293.508 23.98 293.508 39.55C293.508 55.21 301.698 62.32 312.498 62.32ZM442.311 3.19001H459.231V76H443.931V34.33L427.641 76H415.581L399.291 34.24V76H383.991V3.19001H400.821L421.611 60.52L442.311 3.19001ZM513.295 76L507.625 60.97H480.805L475.135 76H459.835L486.565 3.19001H503.485L528.685 76H513.295ZM485.845 47.56H502.585L494.215 25.42L485.845 47.56ZM575.972 46.66H592.442C589.652 67 575.252 77.35 558.152 77.35C539.162 77.35 523.502 64.39 523.502 39.55C523.502 15.25 539.162 1.66 558.152 1.66C575.342 1.66 588.662 12.19 592.082 30.28H575.252C573.362 21.19 566.522 16.78 558.152 16.78C547.442 16.78 539.162 23.98 539.162 39.55C539.162 55.21 547.352 62.32 558.152 62.32C567.242 62.32 574.802 57.28 575.972 46.66ZM613.851 3.19001V30.73H644.541V3.19001H660.741V76H644.541V45.31H613.851V76H597.741V3.19001H613.851ZM684.048 3.19001V76H669.108V3.19001H684.048ZM742.979 3.19001H757.919V76H742.979L707.699 26.5L707.249 76H692.399V3.19001H707.249L742.979 52.33V3.19001ZM766.315 3.19001H818.335V17.77H782.065V30.73L812.305 30.91V45.4L782.065 45.31V61.51H818.335V76H766.315V3.19001Z" stroke="#232323" stroke-width="2" mask="url(#path-1-outside-1_868_195)"/>
</svg>
