<svg width="617" height="79" viewBox="0 0 617 79" fill="none" xmlns="http://www.w3.org/2000/svg">
<mask id="path-1-outside-1_881_194" maskUnits="userSpaceOnUse" x="0.139648" y="0.660004" width="616" height="78" fill="black">
<rect fill="white" x="0.139648" y="0.660004" width="616" height="78"/>
<path d="M59.4596 3.19001L38.7597 60.52L17.9696 3.19001H1.13965V76H16.4396V34.24L32.7296 76H44.7896L61.0797 34.33V76H76.3797V3.19001H59.4596ZM130.444 76H145.834L120.634 3.19001H103.714L76.9836 76H92.2836L97.9536 60.97H124.774L130.444 76ZM102.994 47.56L111.364 25.42L119.734 47.56H102.994ZM174.323 3.19001H146.423V76H174.323C193.403 76 208.973 59.71 208.973 39.55C208.973 19.48 193.403 3.19001 174.323 3.19001ZM162.533 17.59H174.863C184.673 17.59 193.043 27.67 193.403 38.92C193.403 39.19 193.403 39.37 193.403 39.55C193.403 40.18 193.403 40.72 193.313 41.26C193.313 41.44 193.313 41.53 193.313 41.71C193.313 41.71 193.313 41.71 193.313 41.8C192.323 52.33 184.223 61.6 174.863 61.6H162.533V17.59ZM259.63 48.19C268.18 44.95 273.67 35.95 273.67 26.68C273.67 14.62 263.95 3.19001 248.11 3.19001H214.45V76H230.56V49.81C230.56 49.81 232.36 49.81 243.88 49.81L258.28 76H276.82L259.63 48.19ZM230.56 35.68V17.32H249.37C254.95 17.32 259.54 21.01 259.54 26.68C259.54 32.26 254.95 35.68 249.37 35.68H230.56ZM296.363 3.19001H281.423V76H296.363V3.19001ZM332.614 3.19001H304.714V76H332.614C351.694 76 367.264 59.71 367.264 39.55C367.264 19.48 351.694 3.19001 332.614 3.19001ZM320.824 17.59H333.154C342.964 17.59 351.334 27.67 351.694 38.92C351.694 39.19 351.694 39.37 351.694 39.55C351.694 40.18 351.694 40.72 351.604 41.26C351.604 41.44 351.604 41.53 351.604 41.71C351.604 41.71 351.604 41.71 351.604 41.8C350.614 52.33 342.514 61.6 333.154 61.6H320.824V17.59ZM441.299 34.42C444.989 33.34 448.859 28.12 448.859 21.64C448.859 11.02 441.029 1.66 427.079 1.66C413.129 1.66 405.389 10.93 405.389 21.64C405.389 22.18 405.389 22.72 405.479 23.26H419.249C419.249 17.77 422.759 14.71 427.079 14.71C431.579 14.71 434.909 17.86 434.909 23.26C434.909 26.23 433.469 31.36 424.739 31.36V40.36C433.559 40.36 438.329 43.87 438.329 52.24C438.329 60.25 433.289 64.3 427.169 64.3C421.049 64.3 416.009 60.16 416.009 52.24H401.429C401.429 66.82 410.339 77.35 427.079 77.35C443.639 77.35 452.819 67.63 452.819 52.24C452.819 42.7 447.149 36.58 441.299 34.42ZM472.803 35.14C473.343 23.53 478.203 16.33 485.403 16.15C492.063 16.06 493.683 19.21 494.403 21.73H509.433C509.433 21.73 508.173 1.75 485.133 1.75C464.883 1.75 458.673 20.2 458.673 42.34C458.673 75.73 475.413 77.35 487.293 77.35C494.583 77.35 511.593 75.46 511.593 52.33C511.593 29.74 484.233 21.19 472.803 35.14ZM487.113 64.39C480.993 64.39 475.953 60.25 475.953 52.33C475.953 44.59 480.993 40.18 487.113 40.18C493.413 40.18 498.183 44.68 498.183 52.33C498.183 60.25 493.143 64.39 487.113 64.39ZM548.608 1.66C529.708 1.66 517.288 16.24 517.288 39.55C517.288 63.94 530.698 77.35 548.608 77.35C566.878 77.35 579.928 63.76 579.928 39.55C579.928 16.06 567.958 1.66 548.608 1.66ZM548.608 61.6C539.068 61.6 533.668 52.51 533.668 39.55C533.668 24.88 537.898 17.41 548.608 17.41C558.418 17.41 563.548 26.32 563.548 39.55C563.548 52.69 557.608 61.6 548.608 61.6ZM615.103 26.95C615.103 32.05 613.753 36.01 611.053 38.83C608.353 41.59 604.693 42.97 600.073 42.97C595.753 42.97 592.183 41.59 589.363 38.83C586.603 36.01 585.223 32.05 585.223 26.95C585.223 21.85 586.573 17.92 589.273 15.16C591.973 12.4 595.633 11.02 600.253 11.02C603.073 11.02 605.593 11.65 607.813 12.91C610.093 14.11 611.863 15.91 613.123 18.31C614.443 20.65 615.103 23.53 615.103 26.95ZM594.133 26.95C594.133 29.89 594.613 32.11 595.573 33.61C596.533 35.05 598.063 35.77 600.163 35.77C602.263 35.77 603.763 35.05 604.663 33.61C605.623 32.11 606.103 29.89 606.103 26.95C606.103 24.01 605.623 21.82 604.663 20.38C603.763 18.94 602.263 18.22 600.163 18.22C598.063 18.22 596.533 18.94 595.573 20.38C594.613 21.82 594.133 24.01 594.133 26.95Z"/>
</mask>
<path d="M59.4596 3.19001L38.7597 60.52L17.9696 3.19001H1.13965V76H16.4396V34.24L32.7296 76H44.7896L61.0797 34.33V76H76.3797V3.19001H59.4596ZM130.444 76H145.834L120.634 3.19001H103.714L76.9836 76H92.2836L97.9536 60.97H124.774L130.444 76ZM102.994 47.56L111.364 25.42L119.734 47.56H102.994ZM174.323 3.19001H146.423V76H174.323C193.403 76 208.973 59.71 208.973 39.55C208.973 19.48 193.403 3.19001 174.323 3.19001ZM162.533 17.59H174.863C184.673 17.59 193.043 27.67 193.403 38.92C193.403 39.19 193.403 39.37 193.403 39.55C193.403 40.18 193.403 40.72 193.313 41.26C193.313 41.44 193.313 41.53 193.313 41.71C193.313 41.71 193.313 41.71 193.313 41.8C192.323 52.33 184.223 61.6 174.863 61.6H162.533V17.59ZM259.63 48.19C268.18 44.95 273.67 35.95 273.67 26.68C273.67 14.62 263.95 3.19001 248.11 3.19001H214.45V76H230.56V49.81C230.56 49.81 232.36 49.81 243.88 49.81L258.28 76H276.82L259.63 48.19ZM230.56 35.68V17.32H249.37C254.95 17.32 259.54 21.01 259.54 26.68C259.54 32.26 254.95 35.68 249.37 35.68H230.56ZM296.363 3.19001H281.423V76H296.363V3.19001ZM332.614 3.19001H304.714V76H332.614C351.694 76 367.264 59.71 367.264 39.55C367.264 19.48 351.694 3.19001 332.614 3.19001ZM320.824 17.59H333.154C342.964 17.59 351.334 27.67 351.694 38.92C351.694 39.19 351.694 39.37 351.694 39.55C351.694 40.18 351.694 40.72 351.604 41.26C351.604 41.44 351.604 41.53 351.604 41.71C351.604 41.71 351.604 41.71 351.604 41.8C350.614 52.33 342.514 61.6 333.154 61.6H320.824V17.59ZM441.299 34.42C444.989 33.34 448.859 28.12 448.859 21.64C448.859 11.02 441.029 1.66 427.079 1.66C413.129 1.66 405.389 10.93 405.389 21.64C405.389 22.18 405.389 22.72 405.479 23.26H419.249C419.249 17.77 422.759 14.71 427.079 14.71C431.579 14.71 434.909 17.86 434.909 23.26C434.909 26.23 433.469 31.36 424.739 31.36V40.36C433.559 40.36 438.329 43.87 438.329 52.24C438.329 60.25 433.289 64.3 427.169 64.3C421.049 64.3 416.009 60.16 416.009 52.24H401.429C401.429 66.82 410.339 77.35 427.079 77.35C443.639 77.35 452.819 67.63 452.819 52.24C452.819 42.7 447.149 36.58 441.299 34.42ZM472.803 35.14C473.343 23.53 478.203 16.33 485.403 16.15C492.063 16.06 493.683 19.21 494.403 21.73H509.433C509.433 21.73 508.173 1.75 485.133 1.75C464.883 1.75 458.673 20.2 458.673 42.34C458.673 75.73 475.413 77.35 487.293 77.35C494.583 77.35 511.593 75.46 511.593 52.33C511.593 29.74 484.233 21.19 472.803 35.14ZM487.113 64.39C480.993 64.39 475.953 60.25 475.953 52.33C475.953 44.59 480.993 40.18 487.113 40.18C493.413 40.18 498.183 44.68 498.183 52.33C498.183 60.25 493.143 64.39 487.113 64.39ZM548.608 1.66C529.708 1.66 517.288 16.24 517.288 39.55C517.288 63.94 530.698 77.35 548.608 77.35C566.878 77.35 579.928 63.76 579.928 39.55C579.928 16.06 567.958 1.66 548.608 1.66ZM548.608 61.6C539.068 61.6 533.668 52.51 533.668 39.55C533.668 24.88 537.898 17.41 548.608 17.41C558.418 17.41 563.548 26.32 563.548 39.55C563.548 52.69 557.608 61.6 548.608 61.6ZM615.103 26.95C615.103 32.05 613.753 36.01 611.053 38.83C608.353 41.59 604.693 42.97 600.073 42.97C595.753 42.97 592.183 41.59 589.363 38.83C586.603 36.01 585.223 32.05 585.223 26.95C585.223 21.85 586.573 17.92 589.273 15.16C591.973 12.4 595.633 11.02 600.253 11.02C603.073 11.02 605.593 11.65 607.813 12.91C610.093 14.11 611.863 15.91 613.123 18.31C614.443 20.65 615.103 23.53 615.103 26.95ZM594.133 26.95C594.133 29.89 594.613 32.11 595.573 33.61C596.533 35.05 598.063 35.77 600.163 35.77C602.263 35.77 603.763 35.05 604.663 33.61C605.623 32.11 606.103 29.89 606.103 26.95C606.103 24.01 605.623 21.82 604.663 20.38C603.763 18.94 602.263 18.22 600.163 18.22C598.063 18.22 596.533 18.94 595.573 20.38C594.613 21.82 594.133 24.01 594.133 26.95Z" stroke="#232323" stroke-width="2" mask="url(#path-1-outside-1_881_194)"/>
</svg>
