<svg width="801" height="79" viewBox="0 0 801 79" fill="none" xmlns="http://www.w3.org/2000/svg">
<mask id="path-1-outside-1_1072_4409" maskUnits="userSpaceOnUse" x="0.0996094" y="0.700012" width="801" height="78" fill="black">
<rect fill="white" x="0.0996094" y="0.700012" width="801" height="78"/>
<path d="M13.8996 2.90001V76H1.09961V2.90001H13.8996ZM42.7035 76H30.1035V2.90001H42.8035L77.1035 54.7V2.90001H89.7035V76H77.1035L42.7035 24.2V76ZM132.185 76H105.885V2.90001H131.485C153.085 2.90001 167.985 17.8 167.985 39.6C167.985 61.1 153.385 76 132.185 76ZM130.285 14.7H118.685V64.2H130.985C145.585 64.2 154.485 54.8 154.485 39.6C154.485 24.1 145.385 14.7 130.285 14.7ZM225.308 76H179.908V2.90001H225.308V14.7H192.708V33.5H221.908V44.8H192.708V64.2H225.308V76ZM257.586 39.5L233.286 2.90001H248.486L257.386 16C260.386 20.5 262.886 24.7 265.586 29.7L282.586 2.90001H297.486L273.586 39.4L297.586 76H282.486L274.286 63.9C271.086 59 268.486 54.6 265.586 49.3L247.786 76H232.786L257.586 39.5ZM313.552 76H300.252L326.652 2.90001H339.752L366.152 76H352.652L346.752 59.1H319.452L313.552 76ZM331.552 24.7L323.252 48.3H343.052L334.652 24.7C334.052 22.8 333.352 20.6 333.152 19.1C332.852 20.5 332.252 22.7 331.552 24.7ZM433.171 77.2C411.871 77.2 398.071 62.4 398.071 39.5C398.071 16.8 412.371 1.70001 433.771 1.70001C451.071 1.70001 463.971 11.8 466.471 27.5H452.971C450.471 19 443.171 14 433.471 14C419.971 14 411.471 23.8 411.471 39.4C411.471 54.9 420.071 64.9 433.471 64.9C443.371 64.9 450.971 59.7 453.371 51.6H466.671C463.871 67 450.471 77.2 433.171 77.2ZM481.325 76H468.025L494.425 2.90001H507.525L533.925 76H520.425L514.525 59.1H487.225L481.325 76ZM499.325 24.7L491.025 48.3H510.825L502.425 24.7C501.825 22.8 501.125 20.6 500.925 19.1C500.625 20.5 500.025 22.7 499.325 24.7ZM571.992 50.8H555.892V76H543.092V2.90001H571.992C586.692 2.90001 596.192 12.5 596.192 26.8C596.192 40.9 586.592 50.8 571.992 50.8ZM569.492 14.3H555.892V39.4H569.292C578.092 39.4 582.792 34.7 582.792 26.7C582.792 18.7 577.992 14.3 569.492 14.3ZM619.759 2.90001V76H606.959V2.90001H619.759ZM629.563 14.7V2.90001H685.163V14.7H663.763V76H650.963V14.7H629.563ZM694.704 76H681.404L707.804 2.90001H720.904L747.304 76H733.804L727.904 59.1H700.604L694.704 76ZM712.704 24.7L704.404 48.3H724.204L715.804 24.7C715.204 22.8 714.504 20.6 714.304 19.1C714.004 20.5 713.404 22.7 712.704 24.7ZM769.271 2.90001V64.2H799.871V76H756.471V2.90001H769.271Z"/>
</mask>
<path d="M13.8996 2.90001V76H1.09961V2.90001H13.8996ZM42.7035 76H30.1035V2.90001H42.8035L77.1035 54.7V2.90001H89.7035V76H77.1035L42.7035 24.2V76ZM132.185 76H105.885V2.90001H131.485C153.085 2.90001 167.985 17.8 167.985 39.6C167.985 61.1 153.385 76 132.185 76ZM130.285 14.7H118.685V64.2H130.985C145.585 64.2 154.485 54.8 154.485 39.6C154.485 24.1 145.385 14.7 130.285 14.7ZM225.308 76H179.908V2.90001H225.308V14.7H192.708V33.5H221.908V44.8H192.708V64.2H225.308V76ZM257.586 39.5L233.286 2.90001H248.486L257.386 16C260.386 20.5 262.886 24.7 265.586 29.7L282.586 2.90001H297.486L273.586 39.4L297.586 76H282.486L274.286 63.9C271.086 59 268.486 54.6 265.586 49.3L247.786 76H232.786L257.586 39.5ZM313.552 76H300.252L326.652 2.90001H339.752L366.152 76H352.652L346.752 59.1H319.452L313.552 76ZM331.552 24.7L323.252 48.3H343.052L334.652 24.7C334.052 22.8 333.352 20.6 333.152 19.1C332.852 20.5 332.252 22.7 331.552 24.7ZM433.171 77.2C411.871 77.2 398.071 62.4 398.071 39.5C398.071 16.8 412.371 1.70001 433.771 1.70001C451.071 1.70001 463.971 11.8 466.471 27.5H452.971C450.471 19 443.171 14 433.471 14C419.971 14 411.471 23.8 411.471 39.4C411.471 54.9 420.071 64.9 433.471 64.9C443.371 64.9 450.971 59.7 453.371 51.6H466.671C463.871 67 450.471 77.2 433.171 77.2ZM481.325 76H468.025L494.425 2.90001H507.525L533.925 76H520.425L514.525 59.1H487.225L481.325 76ZM499.325 24.7L491.025 48.3H510.825L502.425 24.7C501.825 22.8 501.125 20.6 500.925 19.1C500.625 20.5 500.025 22.7 499.325 24.7ZM571.992 50.8H555.892V76H543.092V2.90001H571.992C586.692 2.90001 596.192 12.5 596.192 26.8C596.192 40.9 586.592 50.8 571.992 50.8ZM569.492 14.3H555.892V39.4H569.292C578.092 39.4 582.792 34.7 582.792 26.7C582.792 18.7 577.992 14.3 569.492 14.3ZM619.759 2.90001V76H606.959V2.90001H619.759ZM629.563 14.7V2.90001H685.163V14.7H663.763V76H650.963V14.7H629.563ZM694.704 76H681.404L707.804 2.90001H720.904L747.304 76H733.804L727.904 59.1H700.604L694.704 76ZM712.704 24.7L704.404 48.3H724.204L715.804 24.7C715.204 22.8 714.504 20.6 714.304 19.1C714.004 20.5 713.404 22.7 712.704 24.7ZM769.271 2.90001V64.2H799.871V76H756.471V2.90001H769.271Z" stroke="#232323" stroke-width="2" mask="url(#path-1-outside-1_1072_4409)"/>
</svg>
