<svg width="466" height="77" viewBox="0 0 466 77" fill="none" xmlns="http://www.w3.org/2000/svg">
<path d="M13.4 75V75.5H13.755L13.8721 75.1648L13.4 75ZM0.1 75L-0.370271 74.8302L-0.612183 75.5H0.1V75ZM26.5 1.9V1.4H26.149L26.0297 1.73016L26.5 1.9ZM39.6 1.9L40.0703 1.73016L39.951 1.4H39.6V1.9ZM66 75V75.5H66.7122L66.4703 74.8302L66 75ZM52.5 75L52.0279 75.1648L52.145 75.5H52.5V75ZM46.6 58.1L47.0721 57.9352L46.955 57.6H46.6V58.1ZM19.3 58.1V57.6H18.945L18.8279 57.9352L19.3 58.1ZM31.4 23.7L31.8717 23.8659L31.8719 23.8652L31.4 23.7ZM23.1 47.3L22.6283 47.1341L22.3941 47.8H23.1V47.3ZM42.9 47.3V47.8H43.6087L43.3711 47.1323L42.9 47.3ZM34.5 23.7L34.0232 23.8506L34.0259 23.8592L34.029 23.8677L34.5 23.7ZM33 18.1L33.4956 18.0339L32.5111 17.9952L33 18.1ZM13.4 74.5H0.1V75.5H13.4V74.5ZM0.570271 75.1698L26.9703 2.06984L26.0297 1.73016L-0.370271 74.8302L0.570271 75.1698ZM26.5 2.4H39.6V1.4H26.5V2.4ZM39.1297 2.06984L65.5297 75.1698L66.4703 74.8302L40.0703 1.73016L39.1297 2.06984ZM66 74.5H52.5V75.5H66V74.5ZM52.9721 74.8352L47.0721 57.9352L46.1279 58.2648L52.0279 75.1648L52.9721 74.8352ZM46.6 57.6H19.3V58.6H46.6V57.6ZM18.8279 57.9352L12.9279 74.8352L13.8721 75.1648L19.7721 58.2648L18.8279 57.9352ZM30.9283 23.5341L22.6283 47.1341L23.5717 47.4659L31.8717 23.8659L30.9283 23.5341ZM23.1 47.8H42.9V46.8H23.1V47.8ZM43.3711 47.1323L34.9711 23.5323L34.029 23.8677L42.4289 47.4677L43.3711 47.1323ZM34.9768 23.5494C34.3707 21.6301 33.6884 19.4802 33.4956 18.0339L32.5044 18.1661C32.7116 19.7198 33.4293 21.9699 34.0232 23.8506L34.9768 23.5494ZM32.5111 17.9952C32.2156 19.3741 31.6214 21.5539 30.9281 23.5348L31.8719 23.8652C32.5786 21.8461 33.1844 19.6259 33.4889 18.2048L32.5111 17.9952ZM135.753 26.5V27H136.339L136.247 26.4214L135.753 26.5ZM122.253 26.5L121.773 26.6411L121.879 27H122.253V26.5ZM122.653 50.6V50.1H122.28L122.174 50.458L122.653 50.6ZM135.953 50.6L136.445 50.6894L136.552 50.1H135.953V50.6ZM102.453 75.7C91.924 75.7 83.2879 72.0453 77.2815 65.5967C71.2718 59.1446 67.8531 49.8502 67.8531 38.5H66.8531C66.8531 50.0498 70.3345 59.6054 76.5498 66.2783C82.7684 72.9547 91.6823 76.7 102.453 76.7V75.7ZM67.8531 38.5C67.8531 27.2554 71.3934 17.9356 77.5415 11.431C83.6872 4.92883 92.4756 1.2 103.053 1.2V0.199997C92.2307 0.199997 83.1691 4.02117 76.8148 10.744C70.4628 17.4644 66.8531 27.0446 66.8531 38.5H67.8531ZM103.053 1.2C120.143 1.2 132.803 11.1547 135.259 26.5786L136.247 26.4214C133.703 10.4452 120.563 0.199997 103.053 0.199997V1.2ZM135.753 26H122.253V27H135.753V26ZM122.733 26.3589C120.161 17.6164 112.642 12.5 102.753 12.5V13.5C112.264 13.5 119.345 18.3836 121.773 26.6411L122.733 26.3589ZM102.753 12.5C95.874 12.5 90.2302 15.0015 86.3127 19.5226C82.4023 24.0357 80.2531 30.5127 80.2531 38.4H81.2531C81.2531 30.6873 83.354 24.4643 87.0685 20.1774C90.7761 15.8985 96.1322 13.5 102.753 13.5V12.5ZM80.2531 38.4C80.2531 46.2393 82.4283 52.7399 86.3494 57.2889C90.2771 61.8456 95.92 64.4 102.753 64.4V63.4C96.1863 63.4 90.8291 60.9544 87.1068 56.6361C83.378 52.3101 81.2531 46.0607 81.2531 38.4H80.2531ZM102.753 64.4C112.832 64.4 120.658 59.0923 123.133 50.742L122.174 50.458C119.848 58.3077 112.474 63.4 102.753 63.4V64.4ZM122.653 51.1H135.953V50.1H122.653V51.1ZM135.461 50.5106C132.711 65.6366 119.55 75.7 102.453 75.7V76.7C119.956 76.7 133.595 66.3634 136.445 50.6894L135.461 50.5106ZM211.632 26.5V27H212.218L212.126 26.4214L211.632 26.5ZM198.132 26.5L197.652 26.6411L197.758 27H198.132V26.5ZM198.532 50.6V50.1H198.159L198.053 50.458L198.532 50.6ZM211.832 50.6L212.324 50.6894L212.431 50.1H211.832V50.6ZM178.332 75.7C167.803 75.7 159.167 72.0453 153.16 65.5967C147.151 59.1446 143.732 49.8502 143.732 38.5H142.732C142.732 50.0498 146.213 59.6054 152.429 66.2783C158.647 72.9547 167.561 76.7 178.332 76.7V75.7ZM143.732 38.5C143.732 27.2554 147.272 17.9356 153.42 11.431C159.566 4.92883 168.354 1.2 178.932 1.2V0.199997C168.11 0.199997 159.048 4.02117 152.694 10.744C146.342 17.4644 142.732 27.0446 142.732 38.5H143.732ZM178.932 1.2C196.022 1.2 208.682 11.1547 211.138 26.5786L212.126 26.4214C209.582 10.4452 196.442 0.199997 178.932 0.199997V1.2ZM211.632 26H198.132V27H211.632V26ZM198.612 26.3589C196.04 17.6164 188.521 12.5 178.632 12.5V13.5C188.143 13.5 195.224 18.3836 197.652 26.6411L198.612 26.3589ZM178.632 12.5C171.753 12.5 166.109 15.0015 162.192 19.5226C158.281 24.0357 156.132 30.5127 156.132 38.4H157.132C157.132 30.6873 159.233 24.4643 162.947 20.1774C166.655 15.8985 172.011 13.5 178.632 13.5V12.5ZM156.132 38.4C156.132 46.2393 158.307 52.7399 162.228 57.2889C166.156 61.8456 171.799 64.4 178.632 64.4V63.4C172.065 63.4 166.708 60.9544 162.986 56.6361C159.257 52.3101 157.132 46.0607 157.132 38.4H156.132ZM178.632 64.4C188.711 64.4 196.537 59.0923 199.011 50.742L198.053 50.458C195.727 58.3077 188.353 63.4 178.632 63.4V64.4ZM198.532 51.1H211.832V50.1H198.532V51.1ZM211.34 50.5106C208.59 65.6366 195.429 75.7 178.332 75.7V76.7C195.835 76.7 209.474 66.3634 212.324 50.6894L211.34 50.5106ZM236.111 1.9H236.611V1.4H236.111V1.9ZM236.111 75V75.5H236.611V75H236.111ZM223.311 75H222.811V75.5H223.311V75ZM223.311 1.9V1.4H222.811V1.9H223.311ZM235.611 1.9V75H236.611V1.9H235.611ZM236.111 74.5H223.311V75.5H236.111V74.5ZM223.811 75V1.9H222.811V75H223.811ZM223.311 2.4H236.111V1.4H223.311V2.4ZM318.515 38.4C318.515 49.3895 314.903 58.7118 308.726 65.2825C302.551 71.8509 293.785 75.7 283.415 75.7V76.7C294.044 76.7 303.079 72.7491 309.454 65.9675C315.827 59.1882 319.515 49.6105 319.515 38.4H318.515ZM283.415 75.7C273.094 75.7 264.405 71.876 258.293 65.3215C252.179 58.7642 248.615 49.4419 248.615 38.4H247.615C247.615 49.6581 251.251 59.2358 257.562 66.0035C263.875 72.774 272.835 76.7 283.415 76.7V75.7ZM248.615 38.4C248.615 27.4095 252.203 18.0869 258.343 11.5164C264.48 4.94844 273.195 1.1 283.515 1.1V0.0999982C272.935 0.0999982 263.95 4.05156 257.612 10.8336C251.277 17.6131 247.615 27.1905 247.615 38.4H248.615ZM283.515 1.1C293.836 1.1 302.576 4.92428 308.738 11.4799C314.902 18.0379 318.515 27.36 318.515 38.4H319.515C319.515 27.14 315.827 17.5621 309.467 10.795C303.104 4.02572 294.094 0.0999982 283.515 0.0999982V1.1ZM306.015 38.4C306.015 30.5114 303.84 24.0101 299.918 19.473C295.99 14.9282 290.346 12.4 283.515 12.4V13.4C290.083 13.4 295.44 15.8218 299.162 20.127C302.89 24.4399 305.015 30.6886 305.015 38.4H306.015ZM283.515 12.4C276.683 12.4 271.04 14.9282 267.112 19.473C263.19 24.0101 261.015 30.5114 261.015 38.4H262.015C262.015 30.6886 264.14 24.4399 267.868 20.127C271.59 15.8218 276.946 13.4 283.515 13.4V12.4ZM261.015 38.4C261.015 46.2886 263.19 52.7899 267.112 57.327C271.04 61.8718 276.683 64.4 283.515 64.4V63.4C276.946 63.4 271.59 60.9782 267.868 56.673C264.14 52.3601 262.015 46.1114 262.015 38.4H261.015ZM283.515 64.4C290.35 64.4 295.992 61.8195 299.919 57.2509C303.839 52.69 306.015 46.1899 306.015 38.4H305.015C305.015 46.0101 302.89 52.26 299.161 56.5991C295.438 60.9305 290.08 63.4 283.515 63.4V64.4ZM343.528 75V75.5H344.028V75H343.528ZM330.928 75H330.428V75.5H330.928V75ZM330.928 1.9V1.4H330.428V1.9H330.928ZM343.628 1.9L344.045 1.62395L343.897 1.4H343.628V1.9ZM377.928 53.7L377.511 53.976L378.428 55.3607V53.7H377.928ZM377.928 1.9V1.4H377.428V1.9H377.928ZM390.528 1.9H391.028V1.4H390.528V1.9ZM390.528 75V75.5H391.028V75H390.528ZM377.928 75L377.512 75.2766L377.66 75.5H377.928V75ZM343.528 23.2L343.945 22.9234L343.028 21.5433V23.2H343.528ZM343.528 74.5H330.928V75.5H343.528V74.5ZM331.428 75V1.9H330.428V75H331.428ZM330.928 2.4H343.628V1.4H330.928V2.4ZM343.211 2.17605L377.511 53.976L378.345 53.4239L344.045 1.62395L343.211 2.17605ZM378.428 53.7V1.9H377.428V53.7H378.428ZM377.928 2.4H390.528V1.4H377.928V2.4ZM390.028 1.9V75H391.028V1.9H390.028ZM390.528 74.5H377.928V75.5H390.528V74.5ZM378.345 74.7234L343.945 22.9234L343.112 23.4766L377.512 75.2766L378.345 74.7234ZM343.028 23.2V75H344.028V23.2H343.028ZM413.009 75V75.5H413.364L413.481 75.1648L413.009 75ZM399.709 75L399.239 74.8302L398.997 75.5H399.709V75ZM426.109 1.9V1.4H425.758L425.639 1.73016L426.109 1.9ZM439.209 1.9L439.68 1.73016L439.56 1.4H439.209V1.9ZM465.609 75V75.5H466.322L466.08 74.8302L465.609 75ZM452.109 75L451.637 75.1648L451.754 75.5H452.109V75ZM446.209 58.1L446.681 57.9352L446.564 57.6H446.209V58.1ZM418.909 58.1V57.6H418.554L418.437 57.9352L418.909 58.1ZM431.009 23.7L431.481 23.8659L431.481 23.8652L431.009 23.7ZM422.709 47.3L422.238 47.1341L422.004 47.8H422.709V47.3ZM442.509 47.3V47.8H443.218L442.98 47.1323L442.509 47.3ZM434.109 23.7L433.633 23.8506L433.635 23.8592L433.638 23.8677L434.109 23.7ZM432.609 18.1L433.105 18.0339L432.12 17.9952L432.609 18.1ZM413.009 74.5H399.709V75.5H413.009V74.5ZM400.18 75.1698L426.58 2.06984L425.639 1.73016L399.239 74.8302L400.18 75.1698ZM426.109 2.4H439.209V1.4H426.109V2.4ZM438.739 2.06984L465.139 75.1698L466.08 74.8302L439.68 1.73016L438.739 2.06984ZM465.609 74.5H452.109V75.5H465.609V74.5ZM452.581 74.8352L446.681 57.9352L445.737 58.2648L451.637 75.1648L452.581 74.8352ZM446.209 57.6H418.909V58.6H446.209V57.6ZM418.437 57.9352L412.537 74.8352L413.481 75.1648L419.381 58.2648L418.437 57.9352ZM430.538 23.5341L422.238 47.1341L423.181 47.4659L431.481 23.8659L430.538 23.5341ZM422.709 47.8H442.509V46.8H422.709V47.8ZM442.98 47.1323L434.58 23.5323L433.638 23.8677L442.038 47.4677L442.98 47.1323ZM434.586 23.5494C433.98 21.6301 433.298 19.4802 433.105 18.0339L432.114 18.1661C432.321 19.7198 433.039 21.9699 433.633 23.8506L434.586 23.5494ZM432.12 17.9952C431.825 19.3741 431.231 21.5539 430.537 23.5348L431.481 23.8652C432.188 21.8461 432.794 19.6259 433.098 18.2048L432.12 17.9952Z" fill="#232323"/>
</svg>
