<svg width="219" height="84" viewBox="0 0 219 84" fill="none" xmlns="http://www.w3.org/2000/svg">
<path d="M1 1.05005H0.5V1.55005V17.75V18.25H1H28.7V82.4501V82.9501H29.2H47.1H47.6V82.4501V18.25H75.3H75.8V17.75V1.55005V1.05005H75.3H1ZM99.1789 1.55005V1.05005H98.6789H80.7789H80.2789V1.55005V82.4501V82.9501H80.7789H98.6789H99.1789V82.4501V48.85H132.279V82.4501V82.9501H132.779H150.779H151.279V82.4501V1.55005V1.05005H150.779H132.779H132.279V1.55005V31.65H99.1789V1.55005ZM160.076 1.05005H159.576V1.55005V82.4501V82.9501H160.076H217.876H218.376V82.4501V66.3501V65.8501H217.876H178.076V48.8515L211.174 48.95L211.676 48.9515V48.4501V32.35V31.853L211.179 31.8501L178.076 31.653V18.25H217.876H218.376V17.75V1.55005V1.05005H217.876H160.076Z" stroke="#DCDCD6"/>
</svg>
