<svg width="134" height="87" viewBox="0 0 134 87" fill="none" xmlns="http://www.w3.org/2000/svg">
<path d="M132.7 57.2C132.7 47.0113 126.989 40.228 120.741 37.4096C122.522 36.5363 124.227 34.9165 125.56 32.818C127.196 30.2411 128.3 26.8987 128.3 23.2C128.3 17.1762 126.078 11.4953 121.864 7.31983C117.648 3.14162 111.466 0.5 103.6 0.5C95.735 0.5 89.5777 3.11585 85.385 7.28286C81.195 11.4472 79 17.1287 79 23.2V23.218C79 23.8064 79 24.4413 79.1068 25.0822L79.1764 25.5H79.6H94.9H95.4V25C95.4 22.0594 96.3378 19.8168 97.8077 18.3119C99.2788 16.8057 101.32 16 103.6 16C105.98 16 108.019 16.8305 109.463 18.3451C110.909 19.8607 111.8 22.1039 111.8 25C111.8 26.5804 111.416 28.694 109.912 30.4077C108.419 32.1081 105.75 33.5 101 33.5H100.5V34V44V44.5H101C105.848 44.5 109.484 45.467 111.904 47.4957C114.306 49.5092 115.6 52.6459 115.6 57.2C115.6 61.542 114.237 64.7556 112.097 66.883C109.956 69.0129 106.99 70.1 103.7 70.1C100.413 70.1 97.4469 68.9898 95.3036 66.8465C93.1626 64.7055 91.8 61.4906 91.8 57.2V56.7H91.3H75.1H74.6V57.2C74.6 65.401 77.1072 72.5109 82.0161 77.5731C86.9278 82.6383 94.1922 85.6 103.6 85.6C112.898 85.6 120.187 82.8694 125.153 77.9165C130.119 72.9639 132.7 65.8492 132.7 57.2ZM71.1 43.1C71.1 29.9704 67.7549 19.3206 61.6476 11.9436C55.5312 4.55558 46.6843 0.5 35.8 0.5C25.1611 0.5 16.3168 4.60881 10.1409 12.0173C3.97269 19.4167 0.5 30.0653 0.5 43.1C0.5 56.7393 4.25024 67.3665 10.5609 74.5914C16.8764 81.8219 25.7184 85.6 35.8 85.6C46.0816 85.6 54.9248 81.7718 61.191 74.5143C67.4511 67.2636 71.1 56.6367 71.1 43.1ZM51.9 43.1C51.9 50.3319 50.2644 56.3508 47.4355 60.5454C44.6153 64.727 40.6117 67.1 35.8 67.1C30.6856 67.1 26.6858 64.6748 23.9436 60.4766C21.1888 56.2591 19.7 50.2398 19.7 43.1C19.7 34.978 20.8748 28.948 23.4572 24.9592C26.0103 21.0158 29.9851 19 35.8 19C41.0713 19 45.0672 21.3812 47.7676 25.5589C50.4837 29.761 51.9 35.8038 51.9 43.1Z" stroke="#232323"/>
</svg>
