<svg width="134" height="87" viewBox="0 0 134 87" fill="none" xmlns="http://www.w3.org/2000/svg">
<path d="M120.741 37.5097C122.522 36.6364 124.227 35.0166 125.56 32.9181C127.196 30.3412 128.3 26.9988 128.3 23.3001C128.3 17.2763 126.078 11.5954 121.864 7.41993C117.648 3.24172 111.466 0.600098 103.6 0.600098C95.735 0.600098 89.5777 3.21595 85.385 7.38296C81.195 11.5473 79 17.2288 79 23.3001V23.3181C79 23.9065 79 24.5414 79.1068 25.1823L79.1764 25.6001H79.6H94.9H95.4V25.1001C95.4 22.1595 96.3378 19.9169 97.8077 18.412C99.2788 16.9058 101.32 16.1001 103.6 16.1001C105.98 16.1001 108.019 16.9306 109.463 18.4452C110.909 19.9608 111.8 22.204 111.8 25.1001C111.8 26.6805 111.416 28.7941 109.912 30.5078C108.419 32.2082 105.75 33.6001 101 33.6001H100.5V34.1001V44.1001V44.6001H101C105.848 44.6001 109.484 45.5671 111.904 47.5958C114.306 49.6093 115.6 52.7459 115.6 57.3001C115.6 61.6421 114.237 64.8557 112.097 66.9831C109.956 69.113 106.99 70.2001 103.7 70.2001C100.413 70.2001 97.4469 69.0899 95.3036 66.9465C93.1626 64.8056 91.8 61.5907 91.8 57.3001V56.8001H91.3H75.1H74.6V57.3001C74.6 65.5011 77.1072 72.611 82.0161 77.6732C86.9278 82.7384 94.1922 85.7001 103.6 85.7001C112.898 85.7001 120.187 82.9695 125.153 78.0166C130.119 73.0639 132.7 65.9493 132.7 57.3001C132.7 47.1114 126.989 40.3281 120.741 37.5097ZM35.8 0.600098C25.1611 0.600098 16.3168 4.70891 10.1409 12.1174C3.97269 19.5168 0.5 30.1654 0.5 43.2001C0.5 56.8394 4.25024 67.4666 10.5609 74.6915C16.8764 81.922 25.7184 85.7001 35.8 85.7001C46.0816 85.7001 54.9248 81.8719 61.191 74.6144C67.4511 67.3637 71.1 56.7368 71.1 43.2001C71.1 30.0705 67.7549 19.4207 61.6476 12.0437C55.5312 4.65568 46.6843 0.600098 35.8 0.600098ZM35.8 67.2001C30.6856 67.2001 26.6858 64.7749 23.9436 60.5767C21.1888 56.3592 19.7 50.3399 19.7 43.2001C19.7 35.0781 20.8748 29.0481 23.4572 25.0593C26.0103 21.1159 29.9851 19.1001 35.8 19.1001C41.0713 19.1001 45.0672 21.4813 47.7676 25.659C50.4837 29.8611 51.9 35.9039 51.9 43.2001C51.9 50.432 50.2644 56.4509 47.4355 60.6455C44.6153 64.8271 40.6117 67.2001 35.8 67.2001Z" stroke="#EBEBE2"/>
</svg>
