<svg width="133" height="87" viewBox="0 0 133 87" fill="none" xmlns="http://www.w3.org/2000/svg">
<path d="M132.223 67.5V67H131.723H93.6284C93.7119 62.8169 94.8572 59.9581 97.0685 57.8493C99.3935 55.6322 102.959 54.1818 107.94 52.9863C114.343 51.4734 120.139 48.8411 124.339 44.6541C128.551 40.4546 131.123 34.7246 131.123 27.1C131.123 19.1338 129.309 12.5085 124.846 7.87801C120.38 3.24428 113.35 0.699997 103.123 0.699997C93.7292 0.699997 86.5907 3.37847 81.7992 8.05467C77.0071 12.7315 74.6234 19.3473 74.6234 27.1V28.6V29.1H75.1234H92.8234H93.3234V28.6V27.1C93.3234 24.1229 94.3767 21.5873 96.3247 19.7927C98.2757 17.9954 101.17 16.9 104.923 16.9C109.754 16.9 113.723 20.7831 113.723 25.6C113.723 28.4327 113.446 31.0842 112.051 33.2822C110.669 35.4603 108.132 37.28 103.417 38.3116L103.415 38.312C96.8636 39.7734 90.196 42.5024 85.1591 47.1578C80.1073 51.8268 76.7234 58.4096 76.7234 67.5C76.7234 74.0131 76.7235 74.0152 76.7589 77.2521C76.7736 78.589 76.7942 80.4776 76.8235 83.6047L76.8281 84.1H77.3234H131.723H132.223V83.6V67.5ZM71.1 43.1C71.1 29.9704 67.7549 19.3206 61.6476 11.9436C55.5312 4.55558 46.6843 0.5 35.8 0.5C25.1611 0.5 16.3168 4.60881 10.1409 12.0173C3.97269 19.4167 0.5 30.0653 0.5 43.1C0.5 56.7393 4.25024 67.3665 10.5609 74.5914C16.8764 81.8219 25.7184 85.6 35.8 85.6C46.0816 85.6 54.9248 81.7718 61.191 74.5143C67.4511 67.2636 71.1 56.6367 71.1 43.1ZM51.9 43.1C51.9 50.3319 50.2644 56.3508 47.4355 60.5454C44.6153 64.727 40.6117 67.1 35.8 67.1C30.6856 67.1 26.6858 64.6748 23.9436 60.4766C21.1888 56.2591 19.7 50.2398 19.7 43.1C19.7 34.978 20.8748 28.948 23.4572 24.9592C26.0103 21.0158 29.9851 19 35.8 19C41.0713 19 45.0672 21.3812 47.7676 25.5589C50.4837 29.761 51.9 35.8038 51.9 43.1Z" stroke="#232323"/>
</svg>
