<svg width="613" height="77" viewBox="0 0 613 77" fill="none" xmlns="http://www.w3.org/2000/svg">
<path d="M57.6 45.2H58.4V44.4H57.6V45.2ZM35.5 45.2H34.7V46H35.5V45.2ZM35.5 33.9V33.1H34.7V33.9H35.5ZM69.5 33.9H70.3V33.1H69.5V33.9ZM69.5 75V75.8H70.3V75H69.5ZM58.7 75L57.9036 75.0758L57.9726 75.8H58.7V75ZM57.9 66.6L58.6964 66.5242L58.4934 64.3928L57.249 66.135L57.9 66.6ZM69.1 25.3V26.1H70.0207L69.8922 25.1884L69.1 25.3ZM55.6 25.3L54.8272 25.5067L54.9858 26.1H55.6V25.3ZM37.1 11.9C29.6417 11.9 23.7077 14.609 19.6515 19.4086C15.6096 24.1913 13.5 30.968 13.5 39H15.1C15.1 31.232 17.1404 24.8587 20.8735 20.4414C24.5923 16.041 30.0583 13.5 37.1 13.5V11.9ZM13.5 39C13.5 47.3026 15.8963 53.8176 20.1067 58.2626C24.3205 62.7113 30.2699 65 37.2 65V63.4C30.6301 63.4 25.1295 61.2387 21.2683 57.1624C17.4037 53.0824 15.1 46.9974 15.1 39H13.5ZM37.2 65C43.6921 65 49.0048 63.2097 52.7024 59.8278C56.4092 56.4376 58.4 51.5327 58.4 45.5H56.8C56.8 51.1673 54.9408 55.6124 51.6226 58.6472C48.2952 61.6903 43.4079 63.4 37.2 63.4V65ZM58.4 45.5V45.2H56.8V45.5H58.4ZM57.6 44.4H35.5V46H57.6V44.4ZM36.3 45.2V33.9H34.7V45.2H36.3ZM35.5 34.7H69.5V33.1H35.5V34.7ZM68.7 33.9V75H70.3V33.9H68.7ZM69.5 74.2H58.7V75.8H69.5V74.2ZM59.4964 74.9242L58.6964 66.5242L57.1036 66.6758L57.9036 75.0758L59.4964 74.9242ZM57.249 66.135C53.4394 71.4685 45.4195 75.3 35.7 75.3V76.9C45.7805 76.9 54.3606 72.9315 58.551 67.065L57.249 66.135ZM35.7 75.3C25.652 75.3 17.1696 71.6531 11.1957 65.2899C5.21847 58.9231 1.7 49.7794 1.7 38.7H0.1C0.1 50.1206 3.73153 59.6769 10.0293 66.3851C16.3304 73.0969 25.248 76.9 35.7 76.9V75.3ZM1.7 38.7C1.7 27.7752 5.26558 18.4816 11.4806 11.9254C17.6916 5.37338 26.6001 1.5 37.4 1.5V-0.100003C26.1999 -0.100003 16.8584 3.92662 10.3194 10.8246C3.78442 17.7184 0.1 27.4248 0.1 38.7H1.7ZM37.4 1.5C53.7887 1.5 66.2749 10.9872 68.3078 25.4116L69.8922 25.1884C67.7252 9.81281 54.4113 -0.100003 37.4 -0.100003V1.5ZM69.1 24.5H55.6V26.1H69.1V24.5ZM56.3728 25.0933C53.9515 16.0395 46.1421 11.9 37.1 11.9V13.5C45.6579 13.5 52.6485 17.3605 54.8272 25.5067L56.3728 25.0933ZM149.223 38.4C149.223 49.3232 145.633 58.5689 139.515 65.077C133.4 71.5815 124.716 75.4 114.423 75.4V77C125.13 77 134.245 73.0185 140.681 66.173C147.112 59.3311 150.823 49.6768 150.823 38.4H149.223ZM114.423 75.4C104.18 75.4 95.5717 71.6067 89.5203 65.1169C83.4648 58.6228 79.9227 49.377 79.9227 38.4H78.3227C78.3227 49.723 81.9806 59.3772 88.3501 66.2081C94.7237 73.0433 103.766 77 114.423 77V75.4ZM79.9227 38.4C79.9227 27.4752 83.4884 18.229 89.5697 11.7212C95.6471 5.2175 104.281 1.4 114.523 1.4V-0.200002C103.864 -0.200002 94.7982 3.7825 88.4006 10.6288C82.0069 17.471 78.3227 27.1248 78.3227 38.4H79.9227ZM114.523 1.4C124.766 1.4 133.425 5.19384 139.527 11.6854C145.632 18.1806 149.223 27.426 149.223 38.4H150.823C150.823 27.074 147.113 17.4194 140.693 10.5896C134.27 3.75615 125.179 -0.200002 114.523 -0.200002V1.4ZM137.323 38.4C137.323 30.4582 135.133 23.8812 131.153 19.2768C127.162 14.6602 121.433 12.1 114.523 12.1V13.7C121.012 13.7 126.283 16.0898 129.942 20.3232C133.612 24.5688 135.723 30.7418 135.723 38.4H137.323ZM114.523 12.1C107.612 12.1 101.883 14.6602 97.8924 19.2768C93.9124 23.8812 91.7227 30.4582 91.7227 38.4H93.3227C93.3227 30.7418 95.4329 24.5688 99.1029 20.3232C102.762 16.0898 108.033 13.7 114.523 13.7V12.1ZM91.7227 38.4C91.7227 46.3418 93.9124 52.9188 97.8924 57.5232C101.883 62.1398 107.612 64.7 114.523 64.7V63.1C108.033 63.1 102.762 60.7102 99.1029 56.4768C95.4329 52.2312 93.3227 46.0582 93.3227 38.4H91.7227ZM114.523 64.7C121.438 64.7 127.166 62.0862 131.154 57.4465C135.132 52.819 137.323 46.2439 137.323 38.4H135.723C135.723 45.9561 133.613 52.131 129.941 56.4035C126.279 60.6638 121.007 63.1 114.523 63.1V64.7ZM227.836 38.4C227.836 49.3232 224.246 58.5689 218.128 65.077C212.013 71.5815 203.329 75.4 193.036 75.4V77C203.743 77 212.858 73.0185 219.294 66.173C225.726 59.3311 229.436 49.6768 229.436 38.4H227.836ZM193.036 75.4C182.793 75.4 174.185 71.6067 168.134 65.1169C162.078 58.6228 158.536 49.377 158.536 38.4H156.936C156.936 49.723 160.594 59.3772 166.963 66.2081C173.337 73.0433 182.379 77 193.036 77V75.4ZM158.536 38.4C158.536 27.4752 162.102 18.229 168.183 11.7212C174.26 5.2175 182.894 1.4 193.136 1.4V-0.200002C182.478 -0.200002 173.411 3.7825 167.014 10.6288C160.62 17.471 156.936 27.1248 156.936 38.4H158.536ZM193.136 1.4C203.379 1.4 212.039 5.19384 218.141 11.6854C224.246 18.1806 227.836 27.426 227.836 38.4H229.436C229.436 27.074 225.726 17.4194 219.306 10.5896C212.883 3.75615 203.792 -0.200002 193.136 -0.200002V1.4ZM215.936 38.4C215.936 30.4582 213.746 23.8812 209.766 19.2768C205.775 14.6602 200.046 12.1 193.136 12.1V13.7C199.625 13.7 204.896 16.0898 208.556 20.3232C212.226 24.5688 214.336 30.7418 214.336 38.4H215.936ZM193.136 12.1C186.225 12.1 180.496 14.6602 176.506 19.2768C172.526 23.8812 170.336 30.4582 170.336 38.4H171.936C171.936 30.7418 174.046 24.5688 177.716 20.3232C181.375 16.0898 186.646 13.7 193.136 13.7V12.1ZM170.336 38.4C170.336 46.3418 172.526 52.9188 176.506 57.5232C180.496 62.1398 186.225 64.7 193.136 64.7V63.1C186.646 63.1 181.375 60.7102 177.716 56.4768C174.046 52.2312 171.936 46.0582 171.936 38.4H170.336ZM193.136 64.7C200.051 64.7 205.78 62.0862 209.768 57.4465C213.745 52.819 215.936 46.2439 215.936 38.4H214.336C214.336 45.9561 212.227 52.131 208.554 56.4035C204.892 60.6638 199.62 63.1 193.136 63.1V64.7ZM240.549 75H239.749V75.8H240.549V75ZM240.549 1.9V1.1H239.749V1.9H240.549ZM253.349 13.7V12.9H252.549V13.7H253.349ZM253.349 63.2H252.549V64H253.349V63.2ZM266.849 74.2H240.549V75.8H266.849V74.2ZM241.349 75V1.9H239.749V75H241.349ZM240.549 2.7H266.149V1.1H240.549V2.7ZM266.149 2.7C276.76 2.7 285.674 6.35644 291.932 12.6396C298.191 18.9229 301.849 27.8867 301.849 38.6H303.449C303.449 27.5133 299.657 18.1271 293.066 11.5104C286.475 4.89356 277.138 1.1 266.149 1.1V2.7ZM301.849 38.6C301.849 49.1652 298.265 58.0559 292.129 64.3018C285.993 70.5467 277.256 74.2 266.849 74.2V75.8C277.643 75.8 286.805 72.0033 293.27 65.4232C299.733 58.8441 303.449 49.5347 303.449 38.6H301.849ZM264.949 12.9H253.349V14.5H264.949V12.9ZM252.549 13.7V63.2H254.149V13.7H252.549ZM253.349 64H265.649V62.4H253.349V64ZM265.649 64C273.126 64 279.225 61.5886 283.453 57.1519C287.677 52.7199 289.949 46.3544 289.949 38.6H288.349C288.349 46.0456 286.172 51.9801 282.295 56.0481C278.423 60.1114 272.773 62.4 265.649 62.4V64ZM289.949 38.6C289.949 30.6946 287.626 24.251 283.286 19.7802C278.942 15.3065 272.668 12.9 264.949 12.9V14.5C272.33 14.5 278.156 16.7935 282.138 20.8948C286.122 24.999 288.349 31.0054 288.349 38.6H289.949ZM362.026 75L361.277 75.2826L361.473 75.8H362.026V75ZM334.426 1.9V1.1H333.269L333.677 2.18258L334.426 1.9ZM348.026 1.9L348.774 1.61579L348.578 1.1H348.026V1.9ZM364.026 44L364.778 43.7266L364.774 43.7158L364.026 44ZM368.626 58.6L367.854 58.8094L368.612 61.6048L369.396 58.8166L368.626 58.6ZM373.326 44L374.074 44.2831L374.075 44.2811L373.326 44ZM389.126 1.9V1.1H388.572L388.377 1.61891L389.126 1.9ZM402.426 1.9L403.176 2.17899L403.577 1.1H402.426V1.9ZM375.226 75V75.8H375.782L375.976 75.279L375.226 75ZM362.774 74.7174L335.174 1.61742L333.677 2.18258L361.277 75.2826L362.774 74.7174ZM334.426 2.7H348.026V1.1H334.426V2.7ZM347.278 2.1842L363.278 44.2842L364.774 43.7158L348.774 1.61579L347.278 2.1842ZM363.274 44.2734C364.867 48.653 366.26 52.9316 367.854 58.8094L369.398 58.3906C367.792 52.4684 366.385 48.147 364.778 43.7266L363.274 44.2734ZM369.396 58.8166C371.191 52.4347 372.684 47.9574 374.074 44.2831L372.578 43.7169C371.168 47.4426 369.661 51.9653 367.856 58.3834L369.396 58.8166ZM374.075 44.2811L389.875 2.18109L388.377 1.61891L372.577 43.7189L374.075 44.2811ZM389.126 2.7H402.426V1.1H389.126V2.7ZM401.676 1.62101L374.476 74.721L375.976 75.279L403.176 2.17899L401.676 1.62101ZM375.226 74.2H362.026V75.8H375.226V74.2ZM424.345 1.9H425.145V1.1H424.345V1.9ZM424.345 75V75.8H425.145V75H424.345ZM411.545 75H410.745V75.8H411.545V75ZM411.545 1.9V1.1H410.745V1.9H411.545ZM423.545 1.9V75H425.145V1.9H423.545ZM424.345 74.2H411.545V75.8H424.345V74.2ZM412.345 75V1.9H410.745V75H412.345ZM411.545 2.7H424.345V1.1H411.545V2.7ZM440.549 75H439.749V75.8H440.549V75ZM440.549 1.9V1.1H439.749V1.9H440.549ZM482.349 38.4L482.039 37.6625L480.055 38.4963L482.102 39.1609L482.349 38.4ZM453.349 13.2V12.4H452.549V13.2H453.349ZM453.349 33.1H452.549V33.9H453.349V33.1ZM453.349 43.9V43.1H452.549V43.9H453.349ZM453.349 63.7H452.549V64.5H453.349V63.7ZM441.349 75V1.9H439.749V75H441.349ZM440.549 2.7H469.649V1.1H440.549V2.7ZM469.649 2.7C476.718 2.7 482.315 4.54074 486.131 7.78455C489.932 11.0151 492.049 15.7063 492.049 21.6H493.649C493.649 15.2937 491.367 10.1349 487.167 6.56545C482.984 3.00926 476.98 1.1 469.649 1.1V2.7ZM492.049 21.6C492.049 25.5313 491.176 28.8525 489.508 31.5265C487.842 34.1964 485.354 36.2694 482.039 37.6625L482.659 39.1375C486.245 37.6306 489.006 35.3535 490.865 32.3735C492.722 29.3975 493.649 25.7687 493.649 21.6H492.049ZM482.102 39.1609C485.812 40.3652 488.554 42.3449 490.377 45.0025C492.203 47.6648 493.149 51.0717 493.149 55.2H494.749C494.749 50.8283 493.746 47.0852 491.696 44.0975C489.644 41.1051 486.587 38.9348 482.596 37.6391L482.102 39.1609ZM493.149 55.2C493.149 61.2507 491.052 65.9604 487.199 69.1731C483.326 72.4027 477.581 74.2 470.149 74.2V75.8C477.817 75.8 483.972 73.9473 488.224 70.4019C492.496 66.8396 494.749 61.6493 494.749 55.2H493.149ZM470.149 74.2H440.549V75.8H470.149V74.2ZM468.549 12.4H453.349V14H468.549V12.4ZM452.549 13.2V33.1H454.149V13.2H452.549ZM453.349 33.9H468.849V32.3H453.349V33.9ZM468.849 33.9C472.484 33.9 475.43 32.9385 477.472 31.0206C479.521 29.0958 480.549 26.3119 480.549 22.9H478.949C478.949 25.9881 478.027 28.3042 476.377 29.8544C474.719 31.4115 472.215 32.3 468.849 32.3V33.9ZM480.549 22.9C480.549 19.5729 479.486 16.9039 477.371 15.0815C475.276 13.2757 472.262 12.4 468.549 12.4V14C472.036 14 474.622 14.8243 476.327 16.2935C478.012 17.7461 478.949 19.9271 478.949 22.9H480.549ZM469.649 43.1H453.349V44.7H469.649V43.1ZM452.549 43.9V63.7H454.149V43.9H452.549ZM453.349 64.5H469.649V62.9H453.349V64.5ZM469.649 64.5C473.367 64.5 476.386 63.5968 478.483 61.7212C480.594 59.8325 481.649 57.0656 481.649 53.6H480.049C480.049 56.7344 479.105 59.0175 477.416 60.5288C475.712 62.0532 473.131 62.9 469.649 62.9V64.5ZM481.649 53.6C481.649 50.3138 480.555 47.6492 478.434 45.8193C476.331 44.0044 473.32 43.1 469.649 43.1V44.7C473.078 44.7 475.668 45.5456 477.389 47.0307C479.093 48.5008 480.049 50.6862 480.049 53.6H481.649ZM551.086 75V75.8H551.886V75H551.086ZM505.686 75H504.886V75.8H505.686V75ZM505.686 1.9V1.1H504.886V1.9H505.686ZM551.086 1.9H551.886V1.1H551.086V1.9ZM551.086 13.7V14.5H551.886V13.7H551.086ZM518.486 13.7V12.9H517.686V13.7H518.486ZM518.486 32.5H517.686V33.3H518.486V32.5ZM547.686 32.5H548.486V31.7H547.686V32.5ZM547.686 43.8V44.6H548.486V43.8H547.686ZM518.486 43.8V43H517.686V43.8H518.486ZM518.486 63.2H517.686V64H518.486V63.2ZM551.086 63.2H551.886V62.4H551.086V63.2ZM551.086 74.2H505.686V75.8H551.086V74.2ZM506.486 75V1.9H504.886V75H506.486ZM505.686 2.7H551.086V1.1H505.686V2.7ZM550.286 1.9V13.7H551.886V1.9H550.286ZM551.086 12.9H518.486V14.5H551.086V12.9ZM517.686 13.7V32.5H519.286V13.7H517.686ZM518.486 33.3H547.686V31.7H518.486V33.3ZM546.886 32.5V43.8H548.486V32.5H546.886ZM547.686 43H518.486V44.6H547.686V43ZM517.686 43.8V63.2H519.286V43.8H517.686ZM518.486 64H551.086V62.4H518.486V64ZM550.286 63.2V75H551.886V63.2H550.286ZM611.363 22V22.8H612.188L612.163 21.9758L611.363 22ZM598.563 22L597.764 22.038L597.8 22.8H598.563V22ZM582.463 31.4L582.284 32.1798L582.293 32.1817L582.463 31.4ZM593.963 33.9L593.793 34.6817L593.794 34.682L593.963 33.9ZM559.763 54.9V54.1H558.945L558.963 54.9183L559.763 54.9ZM572.563 54.9L573.363 54.8871L573.35 54.1H572.563V54.9ZM591.263 45.9L591.088 46.6807L591.094 46.6819L591.263 45.9ZM579.663 43.3L579.838 42.5194L579.833 42.5183L579.663 43.3ZM561.563 22.3C561.563 16.1381 564.107 10.9375 568.501 7.26375C572.906 3.58119 579.213 1.4 586.763 1.4V-0.200002C578.913 -0.200002 572.221 2.06881 567.475 6.03625C562.719 10.0125 559.963 15.6619 559.963 22.3H561.563ZM586.763 1.4C594.019 1.4 599.867 3.40903 603.938 6.95338C608 10.4895 610.37 15.619 610.564 22.0242L612.163 21.9758C611.957 15.181 609.427 9.61048 604.989 5.74662C600.56 1.89097 594.307 -0.200002 586.763 -0.200002V1.4ZM611.363 21.2H598.563V22.8H611.363V21.2ZM599.362 21.9619C599.203 18.6178 597.919 15.8963 595.662 14.022C593.418 12.1588 590.294 11.2 586.563 11.2V12.8C590.033 12.8 592.759 13.6912 594.64 15.253C596.507 16.8037 597.623 19.0822 597.764 22.038L599.362 21.9619ZM586.563 11.2C582.496 11.2 579.059 12.1772 576.618 14.0246C574.154 15.8894 572.763 18.6011 572.763 21.9H574.363C574.363 19.0989 575.522 16.8606 577.584 15.3004C579.668 13.7228 582.731 12.8 586.563 12.8V11.2ZM572.763 21.9C572.763 24.653 573.51 26.8921 575.144 28.624C576.759 30.3352 579.157 31.4619 582.284 32.1797L582.642 30.6203C579.67 29.9381 577.618 28.9148 576.308 27.526C575.017 26.1579 574.363 24.347 574.363 21.9H572.763ZM582.293 32.1817L593.793 34.6817L594.133 33.1183L582.633 30.6183L582.293 32.1817ZM593.794 34.682C599.953 36.0123 604.43 38.2328 607.367 41.3716C610.288 44.4938 611.763 48.6086 611.763 53.9H613.363C613.363 48.2914 611.789 43.7561 608.535 40.2784C605.297 36.8172 600.473 34.4877 594.132 33.118L593.794 34.682ZM611.763 53.9C611.763 60.4752 609.209 65.846 604.738 69.5864C600.252 73.3385 593.773 75.5 585.863 75.5V77.1C594.053 77.1 600.925 74.8615 605.764 70.8136C610.617 66.754 613.363 60.9248 613.363 53.9H611.763ZM585.863 75.5C578.199 75.5 571.943 73.4613 567.582 69.8933C563.236 66.337 560.708 61.2116 560.563 54.8817L558.963 54.9183C559.119 61.6884 561.841 67.263 566.569 71.1317C571.283 74.9887 577.928 77.1 585.863 77.1V75.5ZM559.763 55.7H572.563V54.1H559.763V55.7ZM571.763 54.9129C571.817 58.2503 573.203 60.9624 575.699 62.8171C578.168 64.6521 581.655 65.6 585.863 65.6V64C581.871 64 578.759 63.0979 576.653 61.5329C574.574 59.9876 573.409 57.7497 573.363 54.8871L571.763 54.9129ZM585.863 65.6C590.216 65.6 593.87 64.6546 596.459 62.843C599.078 61.0111 600.563 58.3201 600.563 55H598.963C598.963 57.7799 597.748 59.9889 595.542 61.532C593.307 63.0954 590.011 64 585.863 64V65.6ZM600.563 55C600.563 52.4085 599.898 50.2451 598.353 48.5594C596.823 46.8905 594.518 45.7867 591.433 45.1181L591.094 46.6819C594.008 47.3133 595.953 48.3095 597.174 49.6406C598.378 50.9549 598.963 52.6915 598.963 55H600.563ZM591.438 45.1194L579.838 42.5194L579.488 44.0806L591.088 46.6806L591.438 45.1194ZM579.833 42.5183C573.742 41.1919 569.187 38.8036 566.157 35.451C563.136 32.1094 561.563 27.7364 561.563 22.3H559.963C559.963 28.0636 561.64 32.8406 564.97 36.524C568.289 40.1964 573.185 42.7081 579.493 44.0817L579.833 42.5183Z" fill="#232323"/>
</svg>
