<svg width="269" height="81" viewBox="0 0 269 81" fill="none" xmlns="http://www.w3.org/2000/svg">
<mask id="path-1-outside-1_1030_2590" maskUnits="userSpaceOnUse" x="-1" y="-1" width="271" height="83" fill="black">
<rect fill="white" x="-1" y="-1" width="271" height="83"/>
<path d="M101.7 -6.19888e-06H118.7L93.7 81H74.5L59.8 29.7L45.1 81H25.9L0.9 0.0999985H17.9L35.5 58.6L51.3 0.0999985H68.3L84.1 58.5L101.7 -6.19888e-06ZM140.586 0.0999985V30.7H174.686V0.0999985H192.686V81H174.686V46.9H140.586V81H122.686V0.0999985H140.586ZM247.583 0.0999985H268.183L240.483 48.7V81H223.483V48.7L195.883 0.0999985H216.383L231.983 31.8L247.583 0.0999985Z"/>
</mask>
<path d="M101.7 -6.19888e-06V-1.00001H100.957L100.742 -0.288105L101.7 -6.19888e-06ZM118.7 -6.19888e-06L119.656 0.294909L120.055 -1.00001H118.7V-6.19888e-06ZM93.7 81V82H94.4379L94.6555 81.2949L93.7 81ZM74.5 81L73.5387 81.2755L73.7463 82H74.5V81ZM59.8 29.7L60.7613 29.4245L59.8 26.0698L58.8387 29.4245L59.8 29.7ZM45.1 81V82H45.8537L46.0613 81.2755L45.1 81ZM25.9 81L24.9446 81.2952L25.1624 82H25.9V81ZM0.9 0.0999985V-0.900002H-0.455683L-0.0554209 0.395246L0.9 0.0999985ZM17.9 0.0999985L18.8576 -0.1881L18.6434 -0.900002H17.9V0.0999985ZM35.5 58.6L34.5424 58.8881L35.5518 62.2433L36.4654 58.8607L35.5 58.6ZM51.3 0.0999985V-0.900002H50.5343L50.3346 -0.160744L51.3 0.0999985ZM68.3 0.0999985L69.2653 -0.16116L69.0654 -0.900002H68.3V0.0999985ZM84.1 58.5L83.1347 58.7612L84.049 62.1406L85.0576 58.7881L84.1 58.5ZM101.7 0.999994H118.7V-1.00001H101.7V0.999994ZM117.744 -0.294921L92.7445 80.7051L94.6555 81.2949L119.656 0.294909L117.744 -0.294921ZM93.7 80H74.5V82H93.7V80ZM75.4613 80.7245L60.7613 29.4245L58.8387 29.9755L73.5387 81.2755L75.4613 80.7245ZM58.8387 29.4245L44.1387 80.7245L46.0613 81.2755L60.7613 29.9755L58.8387 29.4245ZM45.1 80H25.9V82H45.1V80ZM26.8554 80.7048L1.85542 -0.195249L-0.0554209 0.395246L24.9446 81.2952L26.8554 80.7048ZM0.9 1.1H17.9V-0.900002H0.9V1.1ZM16.9424 0.388097L34.5424 58.8881L36.4576 58.3119L18.8576 -0.1881L16.9424 0.388097ZM36.4654 58.8607L52.2654 0.360741L50.3346 -0.160744L34.5346 58.3393L36.4654 58.8607ZM51.3 1.1H68.3V-0.900002H51.3V1.1ZM67.3347 0.361157L83.1347 58.7612L85.0653 58.2388L69.2653 -0.16116L67.3347 0.361157ZM85.0576 58.7881L102.658 0.288093L100.742 -0.288105L83.1424 58.2119L85.0576 58.7881ZM140.586 0.0999985H141.586V-0.900002H140.586V0.0999985ZM140.586 30.7H139.586V31.7H140.586V30.7ZM174.686 30.7V31.7H175.686V30.7H174.686ZM174.686 0.0999985V-0.900002H173.686V0.0999985H174.686ZM192.686 0.0999985H193.686V-0.900002H192.686V0.0999985ZM192.686 81V82H193.686V81H192.686ZM174.686 81H173.686V82H174.686V81ZM174.686 46.9H175.686V45.9H174.686V46.9ZM140.586 46.9V45.9H139.586V46.9H140.586ZM140.586 81V82H141.586V81H140.586ZM122.686 81H121.686V82H122.686V81ZM122.686 0.0999985V-0.900002H121.686V0.0999985H122.686ZM139.586 0.0999985V30.7H141.586V0.0999985H139.586ZM140.586 31.7H174.686V29.7H140.586V31.7ZM175.686 30.7V0.0999985H173.686V30.7H175.686ZM174.686 1.1H192.686V-0.900002H174.686V1.1ZM191.686 0.0999985V81H193.686V0.0999985H191.686ZM192.686 80H174.686V82H192.686V80ZM175.686 81V46.9H173.686V81H175.686ZM174.686 45.9H140.586V47.9H174.686V45.9ZM139.586 46.9V81H141.586V46.9H139.586ZM140.586 80H122.686V82H140.586V80ZM123.686 81V0.0999985H121.686V81H123.686ZM122.686 1.1H140.586V-0.900002H122.686V1.1ZM247.583 0.0999985V-0.900002H246.96L246.686 -0.341545L247.583 0.0999985ZM268.183 0.0999985L269.052 0.595175L269.904 -0.900002H268.183V0.0999985ZM240.483 48.7L239.614 48.2048L239.483 48.435V48.7H240.483ZM240.483 81V82H241.483V81H240.483ZM223.483 81H222.483V82H223.483V81ZM223.483 48.7H224.483V48.4359L224.352 48.2062L223.483 48.7ZM195.883 0.0999985V-0.900002H194.165L195.013 0.593823L195.883 0.0999985ZM216.383 0.0999985L217.28 -0.341545L217.005 -0.900002H216.383V0.0999985ZM231.983 31.8L231.086 32.2415L231.983 34.0648L232.88 32.2415L231.983 31.8ZM247.583 1.1H268.183V-0.900002H247.583V1.1ZM267.314 -0.395178L239.614 48.2048L241.352 49.1952L269.052 0.595175L267.314 -0.395178ZM239.483 48.7V81H241.483V48.7H239.483ZM240.483 80H223.483V82H240.483V80ZM224.483 81V48.7H222.483V81H224.483ZM224.352 48.2062L196.752 -0.393826L195.013 0.593823L222.613 49.1938L224.352 48.2062ZM195.883 1.1H216.383V-0.900002H195.883V1.1ZM215.486 0.541542L231.086 32.2415L232.88 31.3585L217.28 -0.341545L215.486 0.541542ZM232.88 32.2415L248.48 0.541542L246.686 -0.341545L231.086 31.3585L232.88 32.2415Z" fill="#DCDCD6" mask="url(#path-1-outside-1_1030_2590)"/>
</svg>
