<svg width="148" height="41" viewBox="0 0 148 41" version="1.1" xmlns="http://www.w3.org/2000/svg" xmlns:xlink="http://www.w3.org/1999/xlink">
<g id="Canvas" fill="none">
<g id="cookies&#38;milk">
<path d="M 6.52107 43.172C 4.54307 43.172 3.21007 41.108 2.52207 36.98C 2.2354 35.088 2.09207 32.8663 2.09207 30.315C 2.09207 27.0183 2.35007 24.252 2.86607 22.016C 3.66874 18.4327 5.1164 16.383 7.20907 15.867C 7.32374 15.8097 7.49574 15.781 7.72507 15.781C 8.09774 15.781 8.41307 15.9243 8.67107 16.211C 8.95774 16.469 9.17274 16.813 9.31607 17.243C 9.40207 17.8737 9.43074 18.5187 9.40207 19.178C 9.40207 19.4073 9.30174 19.608 9.10107 19.78C 8.92907 19.952 8.7284 20.0237 8.49907 19.995C 8.26974 19.995 8.06907 19.909 7.89707 19.737C 7.72507 19.5363 7.63907 19.3213 7.63907 19.092L 7.63907 18.619C 7.63907 18.1603 7.62474 17.845 7.59607 17.673C 7.53874 17.6443 7.51007 17.6157 7.51007 17.587C 6.24874 18.017 5.31707 19.4217 4.71507 21.801C 4.11307 24.1803 3.81207 26.8893 3.81207 29.928C 3.81207 32.336 3.96974 34.6007 4.28507 36.722C 4.62907 38.4993 4.9874 39.7177 5.36007 40.377C 5.73274 41.065 6.20574 41.3803 6.77907 41.323C 6.86507 41.2943 6.99407 41.194 7.16607 41.022C 7.4814 40.3913 7.63907 39.7177 7.63907 39.001C 7.63907 38.7717 7.72507 38.571 7.89707 38.399C 8.09774 38.227 8.31274 38.141 8.54207 38.141C 8.7714 38.141 8.97207 38.227 9.14407 38.399C 9.31607 38.571 9.40207 38.7717 9.40207 39.001C 9.40207 40.1763 9.12974 41.1653 8.58507 41.968C 8.06907 42.7707 7.38107 43.172 6.52107 43.172ZM 16.3533 43.215C 14.576 43.215 13.2716 41.6383 12.4403 38.485C 11.781 36.163 11.4513 33.282 11.4513 29.842C 11.4513 26.402 11.781 23.392 12.4403 20.812C 13.2143 17.7733 14.404 16.0247 16.0093 15.566L 16.1813 15.566C 16.296 15.566 16.4393 15.5947 16.6113 15.652C 17.5286 15.6807 18.3026 16.125 18.9333 16.985C 19.5926 17.8163 20.1086 18.963 20.4813 20.425C 20.9686 22.3457 21.2123 24.7823 21.2123 27.735C 21.2123 29.7417 21.0833 31.7197 20.8253 33.669C 20.596 35.5897 20.2663 37.281 19.8363 38.743C 18.9476 41.7243 17.7866 43.215 16.3533 43.215ZM 16.3533 41.452C 16.5826 41.452 16.812 41.2513 17.0413 40.85C 17.4426 40.2193 17.8153 39.3593 18.1593 38.27C 18.5606 36.8653 18.876 35.2313 19.1053 33.368C 19.3346 31.5047 19.4493 29.6413 19.4493 27.778C 19.4493 24.9973 19.22 22.6897 18.7613 20.855C 18.1593 18.5617 17.3853 17.415 16.4393 17.415L 16.3103 17.415C 15.4503 17.8163 14.7336 19.092 14.1603 21.242C 13.501 23.65 13.1713 26.4737 13.1713 29.713C 13.1713 32.9237 13.501 35.69 14.1603 38.012C 14.447 39.1013 14.7766 39.9327 15.1493 40.506C 15.522 41.0793 15.909 41.3947 16.3103 41.452L 16.3533 41.452ZM 28.9509 43.215C 27.1736 43.215 25.8693 41.6383 25.0379 38.485C 24.3786 36.163 24.0489 33.282 24.0489 29.842C 24.0489 26.402 24.3786 23.392 25.0379 20.812C 25.8119 17.7733 27.0016 16.0247 28.6069 15.566L 28.7789 15.566C 28.8936 15.566 29.0369 15.5947 29.2089 15.652C 30.1263 15.6807 30.9003 16.125 31.5309 16.985C 32.1903 17.8163 32.7063 18.963 33.0789 20.425C 33.5663 22.3457 33.8099 24.7823 33.8099 27.735C 33.8099 29.7417 33.6809 31.7197 33.4229 33.669C 33.1936 35.5897 32.8639 37.281 32.4339 38.743C 31.5453 41.7243 30.3843 43.215 28.9509 43.215ZM 28.9509 41.452C 29.1803 41.452 29.4096 41.2513 29.6389 40.85C 30.0403 40.2193 30.4129 39.3593 30.7569 38.27C 31.1583 36.8653 31.4736 35.2313 31.7029 33.368C 31.9323 31.5047 32.0469 29.6413 32.0469 27.778C 32.0469 24.9973 31.8176 22.6897 31.3589 20.855C 30.7569 18.5617 29.9829 17.415 29.0369 17.415L 28.9079 17.415C 28.0479 17.8163 27.3313 19.092 26.7579 21.242C 26.0986 23.65 25.7689 26.4737 25.7689 29.713C 25.7689 32.9237 26.0986 35.69 26.7579 38.012C 27.0446 39.1013 27.3743 39.9327 27.7469 40.506C 28.1196 41.0793 28.5066 41.3947 28.9079 41.452L 28.9509 41.452ZM 44.6345 43.559C 44.4052 43.559 44.2045 43.473 44.0325 43.301C 43.8605 43.129 43.7745 42.9283 43.7745 42.699L 43.8175 40.592C 43.8175 37.066 43.4019 34.2137 42.5705 32.035C 42.0259 30.573 41.4095 29.842 40.7215 29.842C 40.2915 29.842 39.8759 30.0283 39.4745 30.401C 39.4459 30.4583 39.3599 30.5157 39.2165 30.573C 39.2165 31.5477 39.2309 32.336 39.2595 32.938L 39.2595 42.441C 39.2595 42.699 39.1735 42.914 39.0015 43.086C 38.8295 43.258 38.6289 43.344 38.3995 43.344C 38.1702 43.344 37.9552 43.258 37.7545 43.086C 37.5825 42.914 37.4965 42.699 37.4965 42.441L 37.4965 32.938C 37.4679 30.358 37.4535 27.4627 37.4535 24.252C 37.4535 16.4833 37.5395 9.96167 37.7115 4.687C 37.7115 4.429 37.7975 4.214 37.9695 4.042C 38.1702 3.84133 38.3852 3.741 38.6145 3.741C 38.8725 3.76967 39.0732 3.88433 39.2165 4.085C 39.3885 4.28567 39.4745 4.50067 39.4745 4.73C 39.3025 11.8393 39.2165 18.3467 39.2165 24.252L 39.2165 28.251C 40.1912 27.5917 40.9222 26.6743 41.4095 25.499C 41.8969 24.3237 42.1549 22.79 42.1835 20.898C 42.2122 20.6687 42.2265 20.2673 42.2265 19.694C 42.2265 19.006 42.2122 18.447 42.1835 18.017L 42.1835 16.383C 42.1835 16.1537 42.2695 15.953 42.4415 15.781C 42.6422 15.609 42.8572 15.523 43.0865 15.523C 43.3159 15.523 43.5165 15.609 43.6885 15.781C 43.8605 15.953 43.9465 16.1537 43.9465 16.383L 43.9465 17.931C 43.9752 18.3897 43.9895 18.9773 43.9895 19.694C 43.9895 20.296 43.9752 20.7117 43.9465 20.941C 43.9179 22.9477 43.6169 24.6963 43.0435 26.187C 42.6995 26.961 42.2839 27.6777 41.7965 28.337L 41.9255 28.337C 42.9002 28.853 43.6599 29.8707 44.2045 31.39C 45.1505 33.884 45.6235 37.109 45.6235 41.065L 45.5805 42.656C 45.5519 42.914 45.4372 43.129 45.2365 43.301C 45.0645 43.473 44.8639 43.559 44.6345 43.559ZM 50.3875 43.043C 50.1581 43.043 49.9575 42.957 49.7855 42.785C 49.6135 42.5843 49.5275 42.3693 49.5275 42.14C 49.5561 40.9073 49.5705 38.9867 49.5705 36.378C 49.5705 33.0527 49.5418 30.487 49.4845 28.681C 49.4845 28.2223 49.4701 27.8353 49.4415 27.52L 49.4415 26.832L 49.4415 26.273L 49.3125 19.78L 49.2695 16.856C 49.2695 16.6267 49.3555 16.426 49.5275 16.254C 49.7281 16.082 49.9431 15.996 50.1725 15.996C 50.4018 15.996 50.6025 16.082 50.7745 16.254C 50.9465 16.426 51.0325 16.6267 51.0325 16.856C 51.0898 18.748 51.1471 21.8727 51.2045 26.23L 51.2045 26.746L 51.2045 27.477C 51.2331 27.7923 51.2475 28.1937 51.2475 28.681C 51.3335 31.777 51.3765 34.7153 51.3765 37.496L 51.3335 42.183C 51.3335 42.4123 51.2331 42.613 51.0325 42.785C 50.8605 42.957 50.6455 43.043 50.3875 43.043ZM 50.1725 12.728C 49.7711 12.728 49.4128 12.556 49.0975 12.212C 48.9255 11.9253 48.8395 11.6673 48.8395 11.438L 48.8395 11.266C 48.8395 11.008 48.8825 10.8217 48.9685 10.707C 49.2265 10.2197 49.6278 9.976 50.1725 9.976C 50.5738 9.976 50.9178 10.0907 51.2045 10.32C 51.5198 10.5207 51.6345 10.836 51.5485 11.266C 51.5198 11.2947 51.4768 11.395 51.4195 11.567L 51.4195 11.61C 51.3621 11.8967 51.2761 12.1117 51.1615 12.255C 50.9035 12.5703 50.6311 12.728 50.3445 12.728L 50.1725 12.728ZM 59.9892 43.129C 58.4699 43.129 57.2229 42.2117 56.2482 40.377C 55.6462 39.2017 55.1876 37.7253 54.8722 35.948C 54.5569 34.1707 54.3992 32.2643 54.3992 30.229C 54.3992 27.3337 54.6716 24.7393 55.2162 22.446C 55.9616 19.178 57.0939 17.1713 58.6132 16.426C 59.2152 16.1967 59.7312 16.082 60.1612 16.082C 61.5086 16.082 62.5692 16.8703 63.3432 18.447C 64.0026 19.8517 64.3322 21.586 64.3322 23.65C 64.3322 24.0513 64.3036 24.7107 64.2462 25.628C 64.2176 25.8573 64.1172 26.058 63.9452 26.23C 63.7732 26.3733 63.5869 26.445 63.3862 26.445L 63.0422 26.445L 62.3112 26.445C 60.3619 26.5023 58.7709 26.531 57.5382 26.531C 57.3376 26.5883 57.0796 26.617 56.7642 26.617L 56.4632 26.617L 56.3342 26.617C 56.1909 27.821 56.1192 29.0967 56.1192 30.444C 56.1192 32.1927 56.2482 33.8697 56.5062 35.475C 56.7929 37.0803 57.2372 38.442 57.8392 39.56C 58.4699 40.764 59.2296 41.366 60.1182 41.366C 60.3189 41.366 60.4766 41.3517 60.5912 41.323C 60.6199 41.2943 60.6486 41.28 60.6772 41.28C 60.7346 41.2513 60.7776 41.2083 60.8062 41.151C 61.6949 40.8357 62.2539 40.4487 62.4832 39.99C 62.5406 39.6747 62.5549 39.3163 62.5262 38.915L 62.5262 38.27C 62.5262 38.0407 62.6122 37.84 62.7842 37.668C 62.9849 37.496 63.1999 37.41 63.4292 37.41C 63.6586 37.4387 63.8592 37.5533 64.0312 37.754C 64.2032 37.926 64.2892 38.1267 64.2892 38.356L 64.2892 38.743C 64.3466 39.5457 64.2749 40.1907 64.0742 40.678C 63.8162 41.366 63.1856 41.9823 62.1822 42.527L 61.9242 42.656C 61.2076 42.9713 60.5626 43.129 59.9892 43.129ZM 56.7212 24.811C 57.0366 24.811 57.3089 24.7967 57.5382 24.768C 58.7422 24.768 60.3189 24.7393 62.2682 24.682L 62.3972 24.682L 62.5262 24.682C 62.6122 22.3313 62.3399 20.4967 61.7092 19.178C 61.2506 18.318 60.7346 17.888 60.1612 17.888C 59.8746 17.888 59.6022 17.9453 59.3442 18.06C 58.3409 18.5187 57.5382 20.1097 56.9362 22.833C 56.8502 23.1197 56.7642 23.478 56.6782 23.908C 56.6209 24.3093 56.5779 24.6103 56.5492 24.811L 56.7212 24.811ZM 71.1749 43.043C 70.5156 43.043 69.8849 42.8853 69.2829 42.57C 68.6809 42.226 68.1649 41.753 67.7349 41.151C 66.9896 40.119 66.6599 38.8147 66.7459 37.238C 66.7459 37.0373 66.8463 36.851 67.0469 36.679C 67.2763 36.507 67.5056 36.421 67.7349 36.421C 67.9643 36.4497 68.1506 36.5643 68.2939 36.765C 68.4659 36.9657 68.5519 37.1807 68.5519 37.41C 68.4659 38.528 68.6809 39.4453 69.1969 40.162C 69.7416 40.8787 70.3866 41.237 71.1319 41.237C 71.6479 41.237 72.0923 41.0507 72.4649 40.678C 73.0669 40.076 73.4109 39.1443 73.4969 37.883C 73.5256 37.539 73.5399 37.0517 73.5399 36.421C 73.5399 34.3857 73.2819 32.8807 72.7659 31.906C 72.5653 31.5047 72.3216 31.2037 72.0349 31.003C 71.7769 30.7737 71.3039 30.4727 70.6159 30.1C 69.5553 29.498 68.7526 28.896 68.2079 28.294C 67.6919 27.6633 67.3193 26.746 67.0899 25.542C 66.9179 24.7967 66.8319 24.08 66.8319 23.392C 66.8319 22.0447 67.0899 20.7977 67.6059 19.651C 68.1219 18.4757 68.8099 17.544 69.6699 16.856C 70.3866 16.254 71.1176 15.953 71.8629 15.953C 72.6656 15.953 73.3536 16.3257 73.9269 17.071C 74.5289 17.8163 74.9303 18.8627 75.1309 20.21L 75.1309 20.339C 75.1309 20.5683 75.0593 20.769 74.9159 20.941C 74.7726 21.0843 74.6006 21.156 74.3999 21.156L 74.2709 21.156C 74.0416 21.156 73.8409 21.0843 73.6689 20.941C 73.4969 20.7977 73.3966 20.6257 73.3679 20.425C 73.1959 18.9917 72.8233 18.146 72.2499 17.888C 72.1639 17.8307 72.0349 17.802 71.8629 17.802C 71.5189 17.802 71.1463 17.9597 70.7449 18.275C 70.1143 18.791 69.5983 19.522 69.1969 20.468C 68.8243 21.414 68.6379 22.4173 68.6379 23.478C 68.6379 24.1087 68.6953 24.6677 68.8099 25.155C 68.9819 26.0723 69.2543 26.746 69.6269 27.176C 69.9996 27.606 70.6159 28.0647 71.4759 28.552C 72.2213 28.9533 72.8089 29.3403 73.2389 29.713C 73.6976 30.057 74.0703 30.53 74.3569 31.132C 75.0163 32.336 75.3459 33.9413 75.3459 35.948C 75.3459 37.2093 75.2026 38.399 74.9159 39.517C 74.6293 40.635 74.2423 41.452 73.7549 41.968C 73.0383 42.6847 72.1783 43.043 71.1749 43.043ZM 81.5379 39.56C 81.3373 39.56 81.1796 39.517 81.0649 39.431C 80.8643 39.3163 80.7639 39.13 80.7639 38.872C 80.7639 38.7 80.8069 38.571 80.8929 38.485C 81.9536 37.023 83.0573 35.991 84.2039 35.389C 85.3506 34.787 86.6549 34.486 88.1169 34.486C 88.6903 34.486 89.1203 34.5003 89.4069 34.529C 89.6363 34.5863 89.8799 34.6293 90.1379 34.658C 90.4246 34.6867 90.7256 34.7297 91.0409 34.787C 91.5569 34.873 92.3883 34.959 93.5349 35.045C 94.4236 35.045 95.1833 34.959 95.8139 34.787C 97.4766 34.2423 98.8813 32.8377 100.028 30.573C 100.171 30.315 100.386 30.186 100.673 30.186C 100.845 30.186 100.974 30.2147 101.06 30.272C 101.289 30.4153 101.404 30.616 101.404 30.874L 101.318 31.218C 99.9133 33.884 98.2219 35.518 96.2439 36.12C 95.4699 36.3493 94.6816 36.464 93.8789 36.464C 93.0476 36.464 92.0443 36.378 90.8689 36.206C 90.5536 36.1487 90.2526 36.1057 89.9659 36.077C 89.7079 36.0483 89.4786 36.0053 89.2779 35.948C 89.0199 35.9193 88.6329 35.905 88.1169 35.905C 86.8843 35.905 85.7949 36.163 84.8489 36.679C 83.9029 37.1663 82.9713 38.0407 82.0539 39.302C 81.9393 39.474 81.7673 39.56 81.5379 39.56ZM 83.3439 34.056C 83.1433 34.0273 82.9856 33.9557 82.8709 33.841C 82.7563 33.6977 82.6989 33.5257 82.6989 33.325L 82.6559 32.508L 82.6559 32.164L 82.5699 31.562L 82.5699 31.132C 82.4839 30.186 82.4409 29.2257 82.4409 28.251C 82.4409 27.047 82.5413 26.0293 82.7419 25.198C 83.0573 23.9367 83.5733 23.1627 84.2899 22.876C 84.5193 22.8187 84.6626 22.79 84.7199 22.79C 85.3219 22.79 85.7806 23.2917 86.0959 24.295C 86.3253 24.897 86.5116 25.8287 86.6549 27.09C 86.8269 29.154 86.8986 31.003 86.8699 32.637C 86.8413 32.8377 86.7553 33.0097 86.6119 33.153C 86.4686 33.2677 86.2966 33.325 86.0959 33.325C 85.9239 33.2963 85.7663 33.2247 85.6229 33.11C 85.5083 32.9953 85.4509 32.852 85.4509 32.68L 85.4509 32.594C 85.4509 31.2467 85.4223 30.1573 85.3649 29.326L 85.1929 29.412C 85.0209 29.4693 84.9206 29.498 84.8919 29.498C 84.8919 29.5267 84.8489 29.541 84.7629 29.541C 84.5909 29.541 84.4619 29.5553 84.3759 29.584L 83.9889 29.713L 83.9029 29.713C 83.9029 30.2863 83.9459 30.9887 84.0319 31.82L 84.0749 32.422L 84.1179 33.368C 84.1179 33.5687 84.0319 33.7407 83.8599 33.884C 83.7166 33.9987 83.5446 34.056 83.3439 34.056ZM 84.1609 28.208C 84.3329 28.1507 84.4189 28.122 84.4189 28.122L 84.5479 28.122C 84.5766 28.0933 84.6196 28.079 84.6769 28.079L 84.7629 28.079L 85.1069 27.95L 85.2789 27.864C 85.2789 27.606 85.2646 27.4053 85.2359 27.262C 85.0926 26.0293 84.9349 25.1837 84.7629 24.725L 84.6339 24.338C 84.4333 24.5387 84.2613 24.9257 84.1179 25.499C 83.9459 26.4163 83.8599 27.348 83.8599 28.294L 84.1609 28.208ZM 91.9869 33.196C 91.8149 33.1673 91.6573 33.0957 91.5139 32.981C 91.3993 32.8663 91.3419 32.723 91.3419 32.551L 91.3419 32.465C 91.2846 31.7483 91.1986 31.2037 91.0839 30.831C 90.8546 29.971 90.3243 28.81 89.4929 27.348C 89.4643 27.2333 89.3783 27.09 89.2349 26.918C 89.2349 27.6347 89.2493 28.2223 89.2779 28.681C 89.2779 29.3117 89.2923 29.8133 89.3209 30.186L 89.4499 32.293C 89.4499 32.4937 89.3783 32.68 89.2349 32.852C 89.0916 32.9953 88.9339 33.067 88.7619 33.067L 88.6759 33.067C 88.5039 33.067 88.3463 33.0097 88.2029 32.895C 88.0883 32.7517 88.0309 32.594 88.0309 32.422L 88.0309 32.379C 87.9163 30.745 87.8589 29.5267 87.8589 28.724L 87.8159 26.961L 87.8589 25.714C 88.0023 24.768 88.3033 24.295 88.7619 24.295C 88.9053 24.295 89.0629 24.338 89.2349 24.424C 89.4356 24.51 89.5933 24.682 89.7079 24.94L 89.7939 25.026L 89.9229 25.241L 90.0519 25.499C 90.2813 25.9003 90.4246 26.1297 90.4819 26.187C 90.4819 25.2123 90.6396 24.4097 90.9549 23.779C 90.9836 23.6357 91.0696 23.521 91.2129 23.435C 91.3563 23.349 91.4996 23.306 91.6429 23.306C 91.7576 23.306 91.8436 23.3203 91.9009 23.349C 92.1876 23.5497 92.3309 23.779 92.3309 24.037C 92.3309 24.123 92.3023 24.2233 92.2449 24.338C 91.9869 24.854 91.8579 25.4847 91.8579 26.23C 91.8579 26.746 91.9153 27.3337 92.0299 27.993C 92.1733 28.6237 92.2593 29.0537 92.2879 29.283C 92.5746 30.745 92.7323 31.8057 92.7609 32.465L 92.7609 32.508C 92.7323 32.68 92.6463 32.8377 92.5029 32.981C 92.3596 33.1243 92.2019 33.196 92.0299 33.196L 91.9869 33.196ZM 79.2589 26.058C 79.1729 26.058 79.0439 26.0293 78.8719 25.972C 78.6426 25.8287 78.5279 25.628 78.5279 25.37C 78.5279 25.2267 78.5709 25.112 78.6569 25.026C 80.3483 22.2453 82.1113 20.7117 83.9459 20.425C 84.4046 20.3677 84.7486 20.339 84.9779 20.339C 85.5799 20.339 86.3969 20.468 87.4289 20.726C 88.5183 20.9553 89.4213 21.07 90.1379 21.07C 90.6826 21.07 91.1986 21.0127 91.6859 20.898C 93.4633 20.554 95.4269 19.4217 97.5769 17.501C 97.7203 17.3577 97.8923 17.286 98.0929 17.286C 98.2649 17.3147 98.4226 17.4007 98.5659 17.544C 98.7093 17.6873 98.7809 17.8593 98.7809 18.06C 98.7523 18.2607 98.6663 18.4327 98.5229 18.576C 96.2296 20.6687 94.0366 21.9013 91.9439 22.274C 91.1699 22.4173 90.5393 22.489 90.0519 22.489C 89.4786 22.489 88.5183 22.36 87.1709 22.102C 86.1103 21.8727 85.3793 21.758 84.9779 21.758C 84.7773 21.758 84.5049 21.7867 84.1609 21.844C 82.7563 22.102 81.3229 23.4063 79.8609 25.757C 79.7463 25.9577 79.5456 26.058 79.2589 26.058ZM 95.0829 33.282C 94.5383 33.2533 94.1513 32.852 93.9219 32.078C 93.8073 31.648 93.7213 31.089 93.6639 30.401L 93.6639 28.81L 93.6209 28.38C 93.4776 26.9753 93.4059 26.273 93.4059 26.273L 93.3199 25.628L 93.1909 24.553L 93.1909 24.467C 93.1909 24.1803 93.4059 23.951 93.8359 23.779L 93.9219 23.779C 93.9793 23.6643 94.0366 23.5927 94.0939 23.564C 94.4093 23.2773 94.7533 23.134 95.1259 23.134C 95.7279 23.134 96.2869 23.4923 96.8029 24.209C 97.2043 24.8397 97.5339 25.628 97.7919 26.574C 98.0499 27.52 98.1789 28.4517 98.1789 29.369C 98.1789 30.1717 98.0786 30.831 97.8779 31.347C 97.3906 32.7803 96.4589 33.4253 95.0829 33.282ZM 95.3409 31.863C 95.8856 31.8917 96.2726 31.5763 96.5019 30.917C 96.6453 30.5443 96.7169 30.014 96.7169 29.326C 96.7169 28.5233 96.6166 27.7207 96.4159 26.918C 96.2153 26.1153 95.9429 25.4703 95.5989 24.983C 95.4556 24.7537 95.2979 24.6103 95.1259 24.553L 95.0399 24.596C 94.9539 24.682 94.8249 24.7537 94.6529 24.811L 94.6959 25.069C 94.7246 25.155 94.7389 25.2553 94.7389 25.37L 94.7389 25.499L 94.8249 26.101L 95.0399 28.251L 95.0829 28.767L 95.0829 28.853L 95.0829 28.982L 95.0829 29.154C 95.0543 29.2113 95.0399 29.283 95.0399 29.369L 95.0399 29.498C 95.1259 30.6447 95.1976 31.3613 95.2549 31.648C 95.2836 31.6767 95.2979 31.7197 95.2979 31.777C 95.2979 31.8057 95.3123 31.8343 95.3409 31.863ZM 112.921 43C 112.72 43 112.534 42.914 112.362 42.742C 112.19 42.57 112.104 42.3837 112.104 42.183C 112.075 41.4663 112.09 40.205 112.147 38.399C 112.176 38.1697 112.19 37.8257 112.19 37.367C 112.19 37.0517 112.204 36.679 112.233 36.249C 112.262 35.7903 112.29 35.4463 112.319 35.217L 112.362 33.97C 112.477 31.3327 112.534 29.2257 112.534 27.649C 112.534 25.4703 112.462 23.7217 112.319 22.403C 112.147 21.199 111.961 20.2817 111.76 19.651C 111.588 19.049 111.316 18.619 110.943 18.361C 110.599 18.0743 110.255 17.974 109.911 18.06C 109.624 18.0887 109.338 18.318 109.051 18.748C 108.535 19.4933 108.148 20.5253 107.89 21.844C 107.661 23.1627 107.474 24.7107 107.331 26.488C 107.331 26.8607 107.302 27.2333 107.245 27.606L 107.202 28.681L 107.202 28.81C 107.173 28.8387 107.159 28.9103 107.159 29.025C 107.13 29.3403 107.116 29.971 107.116 30.917L 106.944 42.011C 106.944 42.269 106.858 42.484 106.686 42.656C 106.514 42.7993 106.313 42.871 106.084 42.871C 105.826 42.871 105.611 42.7993 105.439 42.656C 105.267 42.484 105.181 42.269 105.181 42.011L 105.31 30.831C 105.367 29.0537 105.396 27.8927 105.396 27.348L 105.439 25.628C 105.468 23.1913 105.482 20.0523 105.482 16.211C 105.482 15.9817 105.568 15.781 105.74 15.609C 105.941 15.437 106.156 15.351 106.385 15.351C 106.614 15.351 106.815 15.437 106.987 15.609C 107.159 15.781 107.245 15.9817 107.245 16.211L 107.245 18.318C 107.417 18.0313 107.532 17.8593 107.589 17.802C 108.277 16.7413 109.08 16.211 109.997 16.211C 110.628 16.211 111.33 16.469 112.104 16.985C 112.591 17.3003 112.964 17.802 113.222 18.49C 113.537 17.7447 114.025 17.157 114.684 16.727C 115.343 16.297 116.031 16.082 116.748 16.082C 117.637 16.082 118.396 16.3973 119.027 17.028C 119.744 17.7447 120.288 18.8197 120.661 20.253C 121.148 22.1737 121.392 24.768 121.392 28.036C 121.392 29.5553 121.292 32.1927 121.091 35.948L 120.962 37.883C 120.962 38.399 120.933 39.1157 120.876 40.033L 120.79 41.968L 120.79 42.097C 120.79 42.2977 120.718 42.484 120.575 42.656C 120.432 42.7993 120.245 42.871 120.016 42.871L 119.887 42.871C 119.658 42.871 119.457 42.7993 119.285 42.656C 119.142 42.5127 119.056 42.3263 119.027 42.097C 119.027 41.1797 119.041 40.334 119.07 39.56C 119.099 39.4453 119.142 38.8577 119.199 37.797L 119.285 35.862C 119.486 33.0527 119.586 30.4297 119.586 27.993C 119.586 24.811 119.371 22.3743 118.941 20.683C 118.626 19.5077 118.239 18.705 117.78 18.275C 117.493 17.9883 117.149 17.845 116.748 17.845C 116.289 17.845 115.859 18.017 115.458 18.361C 115.085 18.6763 114.827 19.1493 114.684 19.78C 114.512 20.4393 114.397 21.4857 114.34 22.919C 114.311 24.3237 114.297 25.9433 114.297 27.778L 114.297 27.821C 114.268 28.3657 114.254 29.2257 114.254 30.401L 114.039 35.303L 114.039 36.292L 113.867 39.302L 113.824 40.979L 113.867 42.14C 113.867 42.3693 113.781 42.57 113.609 42.742C 113.437 42.914 113.236 43 113.007 43L 112.921 43ZM 126.645 43.043C 126.416 43.043 126.215 42.957 126.043 42.785C 125.871 42.5843 125.785 42.3693 125.785 42.14C 125.814 40.9073 125.828 38.9867 125.828 36.378C 125.828 33.0527 125.8 30.487 125.742 28.681C 125.742 28.2223 125.728 27.8353 125.699 27.52L 125.699 26.832L 125.699 26.273L 125.57 19.78L 125.527 16.856C 125.527 16.6267 125.613 16.426 125.785 16.254C 125.986 16.082 126.201 15.996 126.43 15.996C 126.66 15.996 126.86 16.082 127.032 16.254C 127.204 16.426 127.29 16.6267 127.29 16.856C 127.348 18.748 127.405 21.8727 127.462 26.23L 127.462 26.746L 127.462 27.477C 127.491 27.7923 127.505 28.1937 127.505 28.681C 127.591 31.777 127.634 34.7153 127.634 37.496L 127.591 42.183C 127.591 42.4123 127.491 42.613 127.29 42.785C 127.118 42.957 126.903 43.043 126.645 43.043ZM 126.43 12.728C 126.029 12.728 125.671 12.556 125.355 12.212C 125.183 11.9253 125.097 11.6673 125.097 11.438L 125.097 11.266C 125.097 11.008 125.14 10.8217 125.226 10.707C 125.484 10.2197 125.886 9.976 126.43 9.976C 126.832 9.976 127.176 10.0907 127.462 10.32C 127.778 10.5207 127.892 10.836 127.806 11.266C 127.778 11.2947 127.735 11.395 127.677 11.567L 127.677 11.61C 127.62 11.8967 127.534 12.1117 127.419 12.255C 127.161 12.5703 126.889 12.728 126.602 12.728L 126.43 12.728ZM 135.377 43.645C 134.632 43.645 133.987 43.43 133.442 43C 132.926 42.57 132.611 41.9823 132.496 41.237C 132.123 38.8003 131.937 33.454 131.937 25.198L 131.937 22.79C 131.937 20.0953 131.951 17.802 131.98 15.91C 131.98 15.05 131.994 14.4193 132.023 14.018L 132.066 8.385C 132.066 6.69367 132.037 5.418 131.98 4.558C 131.98 4.32867 132.052 4.128 132.195 3.956C 132.367 3.75533 132.568 3.64067 132.797 3.612C 133.026 3.612 133.227 3.71233 133.399 3.913C 133.6 4.085 133.7 4.28567 133.7 4.515C 133.757 5.375 133.786 6.665 133.786 8.385L 133.7 15.953C 133.671 17.8163 133.657 20.0953 133.657 22.79L 133.657 25.155C 133.657 33.3537 133.843 38.614 134.216 40.936C 134.245 41.2227 134.359 41.452 134.56 41.624C 134.761 41.7673 135.033 41.839 135.377 41.839C 135.492 41.839 135.721 41.8103 136.065 41.753C 136.954 41.4377 137.398 40.893 137.398 40.119C 137.398 39.861 137.355 39.603 137.269 39.345C 137.24 39.2877 137.226 39.2017 137.226 39.087C 137.226 38.8863 137.283 38.7 137.398 38.528C 137.541 38.356 137.713 38.2557 137.914 38.227C 137.971 38.1983 138.043 38.184 138.129 38.184C 138.301 38.184 138.459 38.2413 138.602 38.356C 138.774 38.4707 138.889 38.614 138.946 38.786C 139.061 39.1587 139.118 39.5887 139.118 40.076C 139.118 41.108 138.76 41.968 138.043 42.656C 137.326 43.3153 136.438 43.645 135.377 43.645ZM 148.733 43.559C 148.504 43.559 148.303 43.473 148.131 43.301C 147.959 43.129 147.873 42.9283 147.873 42.699L 147.916 40.592C 147.916 37.066 147.5 34.2137 146.669 32.035C 146.124 30.573 145.508 29.842 144.82 29.842C 144.39 29.842 143.974 30.0283 143.573 30.401C 143.544 30.4583 143.458 30.5157 143.315 30.573C 143.315 31.5477 143.329 32.336 143.358 32.938L 143.358 42.441C 143.358 42.699 143.272 42.914 143.1 43.086C 142.928 43.258 142.727 43.344 142.498 43.344C 142.269 43.344 142.054 43.258 141.853 43.086C 141.681 42.914 141.595 42.699 141.595 42.441L 141.595 32.938C 141.566 30.358 141.552 27.4627 141.552 24.252C 141.552 16.4833 141.638 9.96167 141.81 4.687C 141.81 4.429 141.896 4.214 142.068 4.042C 142.269 3.84133 142.484 3.741 142.713 3.741C 142.971 3.76967 143.172 3.88433 143.315 4.085C 143.487 4.28567 143.573 4.50067 143.573 4.73C 143.401 11.8393 143.315 18.3467 143.315 24.252L 143.315 28.251C 144.29 27.5917 145.021 26.6743 145.508 25.499C 145.995 24.3237 146.253 22.79 146.282 20.898C 146.311 20.6687 146.325 20.2673 146.325 19.694C 146.325 19.006 146.311 18.447 146.282 18.017L 146.282 16.383C 146.282 16.1537 146.368 15.953 146.54 15.781C 146.741 15.609 146.956 15.523 147.185 15.523C 147.414 15.523 147.615 15.609 147.787 15.781C 147.959 15.953 148.045 16.1537 148.045 16.383L 148.045 17.931C 148.074 18.3897 148.088 18.9773 148.088 19.694C 148.088 20.296 148.074 20.7117 148.045 20.941C 148.016 22.9477 147.715 24.6963 147.142 26.187C 146.798 26.961 146.382 27.6777 145.895 28.337L 146.024 28.337C 146.999 28.853 147.758 29.8707 148.303 31.39C 149.249 33.884 149.722 37.109 149.722 41.065L 149.679 42.656C 149.65 42.914 149.536 43.129 149.335 43.301C 149.163 43.473 148.962 43.559 148.733 43.559Z" transform="translate(-2 -3)" fill="black"/>
</g>
</g>
</svg>

