<svg width="188" height="34" viewBox="0 0 188 34" version="1.1" xmlns="http://www.w3.org/2000/svg" xmlns:xlink="http://www.w3.org/1999/xlink">
<g id="Canvas" fill="none">
<g id="Eras light">
<path d="M 2.86328 32C 3.08594 28.8242 3.28516 24.7285 3.46094 19.7129C 3.64844 14.6855 3.74219 10.7832 3.74219 8.00586C 6.34375 8.01758 8.78711 8.02344 11.0723 8.02344L 17.4883 8.00586C 17.4414 8.47461 17.418 8.89062 17.418 9.25391L 16.0117 9.14844C 15.6484 9.11328 15.0156 9.0957 14.1133 9.0957C 13.2109 9.08398 12.3262 9.07812 11.459 9.07812C 8.68164 9.07812 6.57227 9.08398 5.13086 9.0957L 4.7793 19.168C 6.54883 19.2031 8.17188 19.2207 9.64844 19.2207C 11.4062 19.2207 13.5742 19.2031 16.1523 19.168C 16.1055 19.5195 16.0762 19.9062 16.0645 20.3281L 9.4375 20.2754C 8.66406 20.2754 7.09375 20.293 4.72656 20.3281L 4.35742 30.8926L 9.40234 30.9102C 11.3828 30.9102 12.7539 30.9043 13.5156 30.8926C 14.2891 30.8691 15.3379 30.8223 16.6621 30.752C 16.6035 31.2207 16.5742 31.6367 16.5742 32C 13.7617 31.9883 11.7051 31.9824 10.4043 31.9824L 2.86328 32ZM 21.2324 32C 21.373 29.5273 21.5078 26.6211 21.6367 23.2812C 21.7656 19.9414 21.8301 17.457 21.8301 15.8281L 21.8125 14.2461C 22.0469 14.2578 22.2637 14.2637 22.4629 14.2637C 22.6738 14.2637 22.8906 14.2578 23.1133 14.2461L 22.9551 17.5684C 23.3535 16.7715 23.7227 16.168 24.0625 15.7578C 24.4023 15.3477 24.7949 15.0078 25.2402 14.7383C 25.6973 14.457 26.2246 14.2461 26.8223 14.1055C 27.4316 13.9531 28.0645 13.877 28.7207 13.877C 29.2012 13.877 29.6875 13.9355 30.1797 14.0527C 30.1797 14.4512 30.2031 14.8496 30.25 15.248C 29.4648 15.0488 28.7852 14.9492 28.2109 14.9492C 27.6484 14.9492 27.1387 15.0254 26.6816 15.1777C 26.2363 15.3301 25.8145 15.5527 25.416 15.8457C 25.0293 16.1387 24.6484 16.543 24.2734 17.0586C 23.8984 17.5625 23.6172 18.1016 23.4297 18.6758C 23.1953 19.3438 23.0371 20.1582 22.9551 21.1191C 22.8262 22.6191 22.7441 24.3301 22.709 26.252C 22.6621 28.8418 22.6387 30.7578 22.6387 32C 22.334 31.9883 22.0996 31.9824 21.9355 31.9824C 21.7715 31.9824 21.5371 31.9883 21.2324 32ZM 33.6426 16.1094C 33.7246 15.7109 33.7891 15.2539 33.8359 14.7383C 35.0312 14.4102 36.0684 14.1875 36.9473 14.0703C 37.8262 13.9414 38.7168 13.877 39.6191 13.877C 40.6621 13.877 41.6289 13.9707 42.5195 14.1582C 43.4219 14.334 44.1543 14.6387 44.7168 15.0723C 45.291 15.4941 45.666 15.9805 45.8418 16.5312C 46.0293 17.082 46.123 17.6445 46.123 18.2188C 46.123 18.8047 46.0996 19.5488 46.0527 20.4512C 46.0176 21.3418 45.9648 22.3027 45.8945 23.334C 45.8242 24.3652 45.7598 25.6543 45.7012 27.2012C 45.6426 28.7363 45.6133 29.8438 45.6133 30.5234L 45.6133 32C 45.3086 31.9883 45.0625 31.9824 44.875 31.9824C 44.6758 31.9824 44.4297 31.9883 44.1367 32C 44.3008 30.207 44.4121 28.7539 44.4707 27.6406C 44.541 26.5273 44.5938 25.332 44.6289 24.0547C 44.6758 22.7656 44.7344 21.5645 44.8047 20.4512C 44.4414 20.7559 44.1602 20.9844 43.9609 21.1367C 43.7734 21.2773 43.5625 21.4062 43.3281 21.5234C 43.1055 21.6406 42.8301 21.7637 42.502 21.8926C 42.1855 22.0098 41.8926 22.1152 41.623 22.209C 41.3535 22.291 40.6973 22.4727 39.6543 22.7539C 38.623 23.0352 37.8848 23.2461 37.4395 23.3867C 36.4316 23.7148 35.6523 24.0254 35.1016 24.3184C 34.5039 24.6348 34.0059 24.9863 33.6074 25.373C 33.2559 25.7129 32.998 26.0703 32.834 26.4453C 32.6465 26.8906 32.5527 27.3652 32.5527 27.8691C 32.5527 28.6309 32.7812 29.293 33.2383 29.8555C 33.6953 30.418 34.2695 30.8164 34.9609 31.0508C 35.6641 31.2734 36.5078 31.3848 37.4922 31.3848C 37.9844 31.3848 38.459 31.3613 38.916 31.3145C 39.373 31.2559 39.8008 31.1855 40.1992 31.1035C 40.6094 31.0098 41.1953 30.8398 41.957 30.5938C 41.8516 31.0391 41.7637 31.4844 41.6934 31.9297C 40.7441 32.1172 39.9707 32.2344 39.373 32.2812C 38.7871 32.3398 38.2305 32.3691 37.7031 32.3691C 36.7188 32.3691 35.8105 32.293 34.9785 32.1406C 34.1465 31.9883 33.4492 31.6895 32.8867 31.2441C 32.3242 30.7988 31.9082 30.2832 31.6387 29.6973C 31.3691 29.1113 31.2344 28.4961 31.2344 27.8516C 31.2344 27.3594 31.3164 26.8848 31.4805 26.4277C 31.6445 25.959 31.8965 25.5137 32.2363 25.0918C 32.5176 24.7402 32.8926 24.4121 33.3613 24.1074C 33.9121 23.7324 34.5215 23.416 35.1895 23.1582C 35.9629 22.8535 36.7949 22.5723 37.6855 22.3145C 37.9316 22.2441 38.8984 21.9922 40.5859 21.5586C 41.3477 21.3594 42.0684 21.1133 42.748 20.8203C 43.4277 20.5156 43.9551 20.0996 44.3301 19.5723C 44.7051 19.0332 44.8926 18.4883 44.8926 17.9375C 44.8926 17.5391 44.8047 17.1582 44.6289 16.7949C 44.4531 16.4199 44.1367 16.0684 43.6797 15.7402C 43.2344 15.4121 42.6777 15.1836 42.0098 15.0547C 41.3418 14.9258 40.6387 14.8613 39.9004 14.8613C 39.0449 14.8613 38.2422 14.9199 37.4922 15.0371C 36.7422 15.1426 36.1094 15.2715 35.5938 15.4238C 35.0781 15.5645 34.4277 15.793 33.6426 16.1094ZM 49.4629 31.666C 49.4395 31.1035 49.3926 30.6055 49.3223 30.1719C 50.248 30.582 51.1211 30.8691 51.9414 31.0332C 52.7617 31.1973 53.5117 31.2793 54.1914 31.2793C 55.0938 31.2793 55.8613 31.1504 56.4941 30.8926C 57.1387 30.6348 57.625 30.2539 57.9531 29.75C 58.2812 29.2461 58.4453 28.7188 58.4453 28.168C 58.4453 27.9219 58.416 27.6875 58.3574 27.4648C 58.3105 27.2305 58.2285 27.002 58.1113 26.7793C 57.9941 26.5449 57.8594 26.334 57.707 26.1465C 57.5664 25.9473 57.3613 25.7246 57.0918 25.4785C 56.834 25.2324 56.5293 24.957 56.1777 24.6523C 55.8262 24.3477 55.2754 23.8848 54.5254 23.2637C 53.7754 22.6426 53.1543 22.1094 52.6621 21.6641C 52.1816 21.207 51.7773 20.75 51.4492 20.293C 51.1328 19.8242 50.9043 19.3965 50.7637 19.0098C 50.6348 18.623 50.5703 18.2305 50.5703 17.832C 50.5703 17.1523 50.7812 16.4961 51.2031 15.8633C 51.6367 15.2188 52.252 14.7266 53.0488 14.3867C 53.8574 14.0469 54.877 13.877 56.1074 13.877C 57.1387 13.877 58.2988 14.0117 59.5879 14.2812C 59.5996 14.7969 59.6348 15.2949 59.6934 15.7754C 58.9434 15.459 58.2695 15.248 57.6719 15.1426C 57.0859 15.0254 56.4883 14.9668 55.8789 14.9668C 55.1172 14.9668 54.4141 15.084 53.7695 15.3184C 53.125 15.541 52.6387 15.875 52.3105 16.3203C 51.9941 16.7539 51.8359 17.2285 51.8359 17.7441C 51.8359 18.0254 51.8711 18.2891 51.9414 18.5352C 52.0117 18.7812 52.123 19.0332 52.2754 19.291C 52.4277 19.5371 52.6211 19.7949 52.8555 20.0645C 53.1016 20.3223 53.4121 20.627 53.7871 20.9785C 54.1738 21.3184 54.7246 21.793 55.4395 22.4023C 56.166 23 56.7051 23.457 57.0566 23.7734C 57.4082 24.0781 57.707 24.3594 57.9531 24.6172C 58.2109 24.875 58.4512 25.1621 58.6738 25.4785C 58.9082 25.7832 59.0957 26.082 59.2363 26.375C 59.377 26.668 59.4824 26.9668 59.5527 27.2715C 59.623 27.5645 59.6582 27.8633 59.6582 28.168C 59.6582 28.9062 59.4414 29.6035 59.0078 30.2598C 58.5742 30.916 57.9414 31.4316 57.1094 31.8066C 56.2891 32.1816 55.2988 32.3691 54.1387 32.3691C 53.7051 32.3691 53.1602 32.334 52.5039 32.2637C 51.8594 32.1934 51.3379 32.1172 50.9395 32.0352C 50.5527 31.9648 50.0605 31.8418 49.4629 31.666ZM 72.5781 32C 73.1172 22.2266 73.4336 14.2285 73.5273 8.00586C 73.832 8.01758 74.0723 8.02344 74.248 8.02344C 74.4238 8.02344 74.6641 8.01758 74.9688 8.00586L 74.5293 16.5664L 74.0195 32C 73.7148 31.9883 73.4746 31.9824 73.2988 31.9824C 73.123 31.9824 72.8828 31.9883 72.5781 32ZM 80.084 9.74609L 80.1367 8.00586C 80.4297 8.01758 80.7285 8.02344 81.0332 8.02344C 81.3379 8.02344 81.6367 8.01758 81.9297 8.00586L 81.877 9.74609C 81.584 9.72266 81.2852 9.71094 80.9805 9.71094C 80.6758 9.71094 80.377 9.72266 80.084 9.74609ZM 79.4512 32C 79.5801 30.2422 79.7266 27.1777 79.8906 22.8066C 80.0664 18.4355 80.1543 15.582 80.1543 14.2461C 80.459 14.2578 80.6934 14.2637 80.8574 14.2637C 81.0332 14.2637 81.2734 14.2578 81.5781 14.2461C 81.4141 16.4727 81.25 19.5078 81.0859 23.3516C 80.9336 27.1953 80.8574 30.0781 80.8574 32C 80.5527 31.9883 80.3184 31.9824 80.1543 31.9824C 79.9902 31.9824 79.7559 31.9883 79.4512 32ZM 86.957 38.416C 88.5039 38.8613 89.7812 39.1602 90.7891 39.3125C 91.7969 39.4648 92.7227 39.541 93.5664 39.541C 94.5625 39.541 95.4883 39.4121 96.3438 39.1543C 97.1289 38.9316 97.7969 38.6211 98.3477 38.2227C 98.8398 37.8594 99.2207 37.4551 99.4902 37.0098C 99.8066 36.4824 100.041 35.8262 100.193 35.041C 100.357 34.2559 100.457 33.4121 100.492 32.5098C 100.574 31.0566 100.633 29.416 100.668 27.5879C 100.434 28.1504 100.229 28.5957 100.053 28.9238C 99.8887 29.2402 99.6543 29.5801 99.3496 29.9434C 99.0449 30.2949 98.6875 30.6172 98.2773 30.9102C 97.8789 31.1914 97.416 31.4492 96.8887 31.6836C 96.373 31.9062 95.7988 32.082 95.166 32.2109C 94.5332 32.3398 93.877 32.4043 93.1973 32.4043C 92.1074 32.4043 91.0938 32.2637 90.1562 31.9824C 89.2305 31.7012 88.3984 31.2266 87.6602 30.5586C 86.9336 29.8906 86.3828 29.0352 86.0078 27.9922C 85.6328 26.9375 85.4453 25.8301 85.4453 24.6699C 85.4453 23.0879 85.7266 21.5703 86.2891 20.1172C 86.8516 18.6641 87.6484 17.4688 88.6797 16.5312C 89.7227 15.582 90.9238 14.9023 92.2832 14.4922C 93.6426 14.082 95.1133 13.877 96.6953 13.877C 98.3008 13.877 100.246 14.082 102.531 14.4922L 102.355 16.5137C 102.32 16.9004 102.285 17.4043 102.25 18.0254L 101.846 26.0762L 101.652 33.4414C 101.605 34.3203 101.488 35.0996 101.301 35.7793C 101.102 36.5059 100.797 37.1562 100.387 37.7305C 99.9766 38.3047 99.4609 38.791 98.8398 39.1895C 98.2188 39.5879 97.4336 39.9043 96.4844 40.1387C 95.4531 40.3965 94.293 40.5254 93.0039 40.5254C 92.0547 40.5254 91.1289 40.4727 90.2266 40.3672C 89.3242 40.2734 88.2754 40.0859 87.0801 39.8047C 87.0566 39.3242 87.0156 38.8613 86.957 38.416ZM 101.125 15.3184C 100.012 15.1074 99.1211 14.9785 98.4531 14.9316C 97.7852 14.8848 97.1934 14.8613 96.6777 14.8613C 95.3301 14.8613 94.082 15.0137 92.9336 15.3184C 91.7852 15.623 90.7305 16.1973 89.7695 17.041C 88.8203 17.8848 88.082 18.9688 87.5547 20.293C 87.0273 21.6172 86.7637 22.9883 86.7637 24.4062C 86.7637 25.7656 87.0039 26.9961 87.4844 28.0977C 87.9766 29.1992 88.7324 30.0312 89.752 30.5938C 90.7832 31.1445 91.9199 31.4199 93.1621 31.4199C 94.0059 31.4199 94.791 31.3262 95.5176 31.1387C 96.0801 30.998 96.6074 30.7754 97.0996 30.4707C 97.6035 30.1543 98.084 29.7383 98.541 29.2227C 98.998 28.707 99.3965 28.1035 99.7363 27.4121C 100.088 26.709 100.34 25.9941 100.492 25.2676C 100.691 24.248 100.832 22.9414 100.914 21.3477L 101.125 15.3184ZM 107.014 32L 107.541 20.5391C 107.576 19.4258 107.646 16.5547 107.752 11.9258L 107.857 8.00586C 108.127 8.01758 108.35 8.02344 108.525 8.02344C 108.725 8.02344 108.953 8.01758 109.211 8.00586L 108.736 18.2715C 109.006 17.7207 109.234 17.2871 109.422 16.9707C 109.621 16.6543 109.885 16.332 110.213 16.0039C 110.541 15.6641 110.887 15.377 111.25 15.1426C 111.625 14.8965 112.041 14.6855 112.498 14.5098C 112.967 14.3223 113.512 14.1699 114.133 14.0527C 114.766 13.9355 115.428 13.877 116.119 13.877C 117.139 13.877 118.105 13.9883 119.02 14.2109C 119.934 14.4219 120.713 14.7852 121.357 15.3008C 122.002 15.8047 122.447 16.4141 122.693 17.1289C 122.939 17.8438 123.062 18.5586 123.062 19.2734C 123.062 19.5078 123.057 19.8359 123.045 20.2578C 123.021 20.9023 122.975 21.7754 122.904 22.877L 122.623 30.0312C 122.6 30.4883 122.576 31.1445 122.553 32C 122.248 31.9883 122.014 31.9824 121.85 31.9824C 121.674 31.9824 121.434 31.9883 121.129 32C 121.27 30.4883 121.375 28.9648 121.445 27.4297L 121.691 23.1406C 121.773 21.8164 121.814 20.6738 121.814 19.7129C 121.814 18.5996 121.604 17.6914 121.182 16.9883C 120.771 16.2852 120.074 15.7578 119.09 15.4062C 118.117 15.043 117.086 14.8613 115.996 14.8613C 115.27 14.8613 114.555 14.9434 113.852 15.1074C 113.195 15.2598 112.621 15.4648 112.129 15.7227C 111.719 15.9336 111.344 16.1973 111.004 16.5137C 110.641 16.8535 110.312 17.252 110.02 17.709C 109.703 18.2363 109.439 18.8223 109.229 19.4668C 109.029 20.0645 108.877 20.8672 108.771 21.875C 108.689 22.6602 108.607 24.1953 108.525 26.4805L 108.385 32C 108.08 31.9883 107.852 31.9824 107.699 31.9824C 107.547 31.9824 107.318 31.9883 107.014 32ZM 134.77 30.8926C 134.676 31.2441 134.605 31.6133 134.559 32C 133.609 32.2344 132.736 32.3516 131.939 32.3516C 131.271 32.3516 130.674 32.2754 130.146 32.123C 129.631 31.9824 129.209 31.7246 128.881 31.3496C 128.553 30.9629 128.336 30.541 128.23 30.084C 128.125 29.6152 128.072 29.1172 128.072 28.5898C 128.072 28.4961 128.072 28.3496 128.072 28.1504C 128.084 27.9512 128.107 27.5117 128.143 26.832L 128.723 15.1953L 126.561 15.1953C 126.607 14.8789 126.637 14.5625 126.648 14.2461L 128.793 14.2461C 128.852 13.5078 128.898 12.4062 128.934 10.9414C 129.379 10.8828 129.766 10.8066 130.094 10.7129C 130.012 12.6113 129.971 13.7891 129.971 14.2461L 135.244 14.2461C 135.197 14.5625 135.168 14.8789 135.156 15.1953L 129.918 15.1953L 129.338 27.2539L 129.32 27.9746C 129.32 28.959 129.432 29.6738 129.654 30.1191C 129.889 30.5645 130.211 30.8867 130.621 31.0859C 131.043 31.2852 131.477 31.3848 131.922 31.3848C 132.238 31.3848 132.572 31.3613 132.924 31.3145C 133.287 31.2559 133.902 31.1152 134.77 30.8926ZM 146.934 32L 147.32 24.9512L 147.672 14.3867L 147.742 10.7305C 147.754 9.75781 147.76 8.84961 147.76 8.00586C 148.064 8.01758 148.328 8.02344 148.551 8.02344C 148.785 8.02344 149.049 8.01758 149.342 8.00586L 149.025 14.3691L 148.604 27.4648L 148.516 32C 148.223 31.9883 147.959 31.9824 147.725 31.9824C 147.49 31.9824 147.227 31.9883 146.934 32ZM 159.133 32L 159.396 27.623L 160.082 9.0957C 157.188 9.0957 154.668 9.14844 152.523 9.25391C 152.582 8.77344 152.611 8.35742 152.611 8.00586C 155.436 8.01758 158.348 8.02344 161.348 8.02344L 166.357 8.00586L 169.012 8.00586C 168.953 8.47461 168.924 8.89062 168.924 9.25391C 167.506 9.14844 165.35 9.0957 162.455 9.0957L 161.436 9.0957L 160.732 28.4492C 160.721 28.7188 160.715 28.9883 160.715 29.2578L 160.715 32C 160.422 31.9883 160.158 31.9824 159.924 31.9824C 159.701 31.9824 159.438 31.9883 159.133 32ZM 189.086 30.1367C 188.992 30.5469 188.916 31.0273 188.857 31.5781C 187.662 31.8711 186.537 32.0762 185.482 32.1934C 184.439 32.3105 183.502 32.3691 182.67 32.3691C 180.959 32.3691 179.336 32.0938 177.801 31.543C 176.266 30.9922 174.947 30.1777 173.846 29.0996C 172.744 28.0098 171.936 26.7207 171.42 25.2324C 170.904 23.7441 170.646 22.1797 170.646 20.5391C 170.646 18.7109 170.945 16.9414 171.543 15.2305C 172.152 13.5195 173.037 12.1016 174.197 10.9766C 175.357 9.83984 176.746 9.00195 178.363 8.46289C 179.992 7.91211 181.727 7.63672 183.566 7.63672C 184.188 7.63672 184.855 7.66602 185.57 7.72461C 186.297 7.7832 186.889 7.84766 187.346 7.91797C 187.814 7.98828 188.436 8.10547 189.209 8.26953C 189.232 8.75 189.285 9.25391 189.367 9.78125C 188.078 9.35938 186.965 9.07812 186.027 8.9375C 185.102 8.79688 184.205 8.72656 183.338 8.72656C 181.826 8.72656 180.373 8.96094 178.979 9.42969C 177.584 9.89844 176.354 10.6543 175.287 11.6973C 174.221 12.7285 173.4 14.0117 172.826 15.5469C 172.264 17.0703 171.982 18.6465 171.982 20.2754C 171.982 21.8457 172.217 23.3457 172.686 24.7754C 173.154 26.1934 173.869 27.3828 174.83 28.3438C 175.791 29.3047 176.934 30.0371 178.258 30.541C 179.582 31.0332 181.029 31.2793 182.6 31.2793C 184.533 31.2793 186.695 30.8984 189.086 30.1367Z" transform="translate(-2 -7)" fill="black"/>
</g>
</g>
</svg>

