<svg width="48" height="48" viewBox="0 0 48 48" fill="none" xmlns="http://www.w3.org/2000/svg">
<path fill-rule="evenodd" clip-rule="evenodd" d="M20.7706 22.8138L23.6044 25.6476C24.3294 26.3066 25.4497 26.3066 26.1746 25.6476C26.9655 24.9227 27.0314 23.6705 26.3065 22.8797L23.4726 20.0459C21.891 18.4642 19.7162 17.5416 17.4096 17.5416C12.6646 17.5416 8.77637 21.4298 8.77637 26.1748C8.77637 30.5129 12.0263 34.1348 16.2096 34.7242C16.2547 34.7305 16.2998 34.7365 16.3451 34.7421C16.6941 34.7856 17.0494 34.808 17.4096 34.808V34.7421H17.6732C18.7277 34.7421 19.5844 33.8195 19.5844 32.7651C19.5844 31.7106 18.6618 30.8539 17.6073 30.8539H17.5414C16.2893 30.9198 15.0371 30.3926 14.1145 29.4699C12.401 27.6247 12.401 24.8568 14.1145 23.0115C15.8938 21.1003 18.8595 21.0344 20.7706 22.8138ZM17.5709 32.0539C15.9545 32.1285 14.3942 31.4467 13.2659 30.3185L13.2502 30.3028L13.2351 30.2865C11.0941 27.9808 11.0941 24.5006 13.2351 22.1949L13.2362 22.1938C15.4799 19.7838 19.2059 19.7174 21.5883 21.9355L21.604 21.9501L24.4278 24.7739C24.695 25.002 25.1036 24.9978 25.3656 24.7613C25.6705 24.4799 25.6892 23.999 25.4349 23.7052L22.6241 20.8944C21.2656 19.5359 19.3953 18.7416 17.4096 18.7416C13.3274 18.7416 9.97637 22.0926 9.97637 26.1748C9.97637 29.9229 12.8013 33.0546 16.4234 33.5421H17.6732C18.0129 33.5421 18.3844 33.21 18.3844 32.7651C18.3844 32.4254 18.0522 32.0539 17.6073 32.0539H17.5709Z" fill="#FF4D5A"/>
<path fill-rule="evenodd" clip-rule="evenodd" d="M21.6222 30.7989L21.6331 30.8102C23.3714 32.6065 25.8222 33.608 28.4154 33.608C29.6533 33.608 30.9319 33.3713 32.0749 32.857L32.0902 32.8501L32.1058 32.8436C37.0352 30.7896 39.3744 25.1624 37.325 20.2438C35.2772 15.3292 29.6777 12.9893 24.7696 15.0062C24.3823 15.2167 24.248 15.6225 24.3892 15.9755C24.5564 16.3934 25.0026 16.5574 25.3303 16.4287C28.3435 15.1956 31.8866 15.8887 34.2067 18.2088C37.3773 21.3794 37.3773 26.5547 34.2067 29.7253C31.0375 32.8945 25.8654 32.8959 22.6944 29.7296L19.2632 26.3643L19.2196 26.3206C18.8727 26.017 18.3953 26.0726 18.1625 26.3266C17.8435 26.6746 17.8969 27.1628 18.1547 27.3991L18.1696 27.4127L21.6222 30.7989ZM20.0458 25.4498L20.1117 25.5157L23.5387 28.8768C26.2407 31.5788 30.6561 31.5788 33.3581 28.8768C36.0601 26.1748 36.0601 21.7593 33.3581 19.0573C31.3811 17.0802 28.3495 16.4871 25.7793 17.5415C24.7908 17.9369 23.6705 17.4097 23.275 16.4212C22.8796 15.4326 23.341 14.3782 24.2636 13.9169C29.7994 11.6103 36.1261 14.2464 38.4326 19.7822C40.7392 25.318 38.1031 31.6447 32.5673 33.9513C31.2493 34.5444 29.7994 34.808 28.4154 34.808C25.5157 34.808 22.7478 33.6877 20.7708 31.6447L17.3438 28.2836C16.553 27.5587 16.553 26.3066 17.2779 25.5157C18.0028 24.7249 19.255 24.7249 20.0458 25.4498Z" fill="#FF4D5A"/>
<path fill-rule="evenodd" clip-rule="evenodd" d="M45.8 38.8369V9.17192C45.8 5.34697 42.7063 2.2 38.8281 2.2H9.17192C5.34697 2.2 2.2 5.29368 2.2 9.17192V38.8281C2.2 42.653 5.29368 45.8 9.17192 45.8H38.8281C42.7225 45.8 45.8559 42.6408 45.8001 38.8457L45.8 38.8369ZM47 38.8281C47.0659 43.3095 43.3754 47 38.8281 47H9.17192C4.62464 47 1 43.3095 1 38.8281V9.17192C1 4.62464 4.69054 1 9.17192 1H38.8281C43.3754 1 47 4.69054 47 9.17192V38.8281Z" fill="#FF4D5A"/>
</svg>
