<svg width="48" height="48" viewBox="0 0 48 48" fill="none" xmlns="http://www.w3.org/2000/svg">
<path fill-rule="evenodd" clip-rule="evenodd" d="M24.0985 3.21747C23.9545 3.02542 23.6792 3.02885 23.5422 3.19748C17.8622 10.1888 14.7749 21.5074 20.5275 33.3312H27.1485C29.7032 27.3271 33.3612 15.5728 24.0985 3.21747ZM22.596 2.489C23.2398 1.69659 24.4748 1.74737 25.0725 2.54453C34.8946 15.646 30.7088 28.1267 28.1038 34.1287L27.95 34.4832H19.7702L19.6068 34.1564C13.417 21.7758 16.6165 9.84898 22.596 2.489Z" fill="#FF4D5A"/>
<path fill-rule="evenodd" clip-rule="evenodd" d="M16.6847 25.2819L12.4386 27.5396C12.0415 27.7507 11.7565 28.1139 11.6546 28.5386L9.04377 39.4242C8.70613 40.832 10.3956 41.868 11.5842 40.9821L20.487 34.3466L19.7511 33.4367L10.8483 40.0722C10.5511 40.2937 10.1288 40.0346 10.2132 39.6827L12.824 28.7971C12.8495 28.6909 12.9207 28.6001 13.02 28.5473L17.2661 26.2896L16.6847 25.2819Z" fill="#FF4D5A"/>
<path fill-rule="evenodd" clip-rule="evenodd" d="M30.9449 24.9293L35.191 27.187C35.5881 27.3981 35.8731 27.7613 35.975 28.186L38.5858 39.0717C38.9235 40.4794 37.234 41.5155 36.0454 40.6296L27.1426 33.9941L27.8785 33.0841L36.7813 39.7196C37.0785 39.9411 37.5008 39.6821 37.4164 39.3301L34.8056 28.4445C34.7801 28.3383 34.7089 28.2475 34.6096 28.1947L30.3635 25.9371L30.9449 24.9293Z" fill="#FF4D5A"/>
<path fill-rule="evenodd" clip-rule="evenodd" d="M19.8951 40.399C19.298 38.261 19.0192 36.0319 19.0192 34.4147H20.2192C20.2192 35.9263 20.4829 38.0552 21.0541 40.1007C21.63 42.1627 22.4938 44.0487 23.6344 45.1556C23.7085 45.2275 23.8492 45.2401 23.9492 45.1219C25.5403 43.2413 26.9503 39.8176 26.9503 34.4147H28.1503C28.1503 39.9949 26.6951 43.7035 24.8807 45.8482C24.3643 46.4586 23.3948 46.5611 22.7813 45.9658C21.4181 44.6429 20.4875 42.5203 19.8951 40.399Z" fill="#FF4D5A"/>
<path fill-rule="evenodd" clip-rule="evenodd" d="M27.977 10.1852H19.477V9.03321H27.977V10.1852Z" fill="#FF4D5A"/>
<path fill-rule="evenodd" clip-rule="evenodd" d="M23.977 19.9772C25.5233 19.9772 26.777 18.7738 26.777 17.2892C26.777 15.8047 25.5233 14.6012 23.977 14.6012C22.4306 14.6012 21.177 15.8047 21.177 17.2892C21.177 18.7738 22.4306 19.9772 23.977 19.9772ZM23.977 21.1292C26.1861 21.1292 27.977 19.41 27.977 17.2892C27.977 15.1684 26.1861 13.4492 23.977 13.4492C21.7678 13.4492 19.977 15.1684 19.977 17.2892C19.977 19.41 21.7678 21.1292 23.977 21.1292Z" fill="#FF4D5A"/>
<path fill-rule="evenodd" clip-rule="evenodd" d="M28.977 30.3452H17.977V29.1932H28.977V30.3452Z" fill="#FF4D5A"/>
</svg>
