<svg width="48" height="48" viewBox="0 0 48 48" fill="none" xmlns="http://www.w3.org/2000/svg">
<path d="M32.2925 2.13557C32.2268 2.06723 32.1487 2.01301 32.0627 1.97603C31.9768 1.93904 31.8847 1.92001 31.7917 1.92001H11.9583C10.6438 1.92157 9.38346 2.46487 8.45392 3.43072C7.52438 4.39657 7.0015 5.7061 7 7.07201V40.928C7.0015 42.2939 7.52438 43.6035 8.45392 44.5693C9.38346 45.5352 10.6438 46.0785 11.9583 46.08H36.0417C37.3562 46.0785 38.6165 45.5352 39.5461 44.5693C40.4756 43.6035 40.9985 42.2939 41 40.928V11.488C41 11.3914 40.9817 11.2957 40.9461 11.2064C40.9105 11.1171 40.8583 11.0359 40.7925 10.9676L32.2925 2.13557ZM32.5 4.43281L38.5817 10.752H36.0417C35.1027 10.7509 34.2025 10.3629 33.5385 9.67296C32.8745 8.98306 32.5011 8.04767 32.5 7.07201V4.43281ZM11.9583 3.39201H31.0833V7.07201C31.0848 8.43793 31.6077 9.74746 32.5373 10.7133C33.4668 11.6792 34.7271 12.2225 36.0417 12.224H39.5833V32.832H8.41667V7.07201C8.41772 6.09635 8.7912 5.16097 9.45516 4.47107C10.1191 3.78117 11.0193 3.39311 11.9583 3.39201V3.39201ZM36.0417 44.608H11.9583C11.0193 44.6069 10.1191 44.2189 9.45516 43.529C8.7912 42.8391 8.41772 41.9037 8.41667 40.928V34.304H39.5833V40.928C39.5823 41.9037 39.2088 42.8391 38.5448 43.529C37.8809 44.2189 36.9807 44.6069 36.0417 44.608V44.608Z" fill="#FF4D5A"/>
<path d="M15 37.824V40.896C15.0006 41.5068 15.2039 42.0925 15.5655 42.5244C15.927 42.9564 16.4173 43.1993 16.9286 43.2H18.2143C18.7256 43.1993 19.2158 42.9564 19.5774 42.5244C19.9389 42.0925 20.1423 41.5068 20.1429 40.896C20.1429 40.6923 20.0751 40.497 19.9546 40.3529C19.834 40.2089 19.6705 40.128 19.5 40.128C19.3295 40.128 19.166 40.2089 19.0454 40.3529C18.9249 40.497 18.8571 40.6923 18.8571 40.896C18.857 41.0996 18.7893 41.2949 18.6687 41.4389C18.5482 41.5829 18.3848 41.6639 18.2143 41.664H16.9286C16.7581 41.6639 16.5947 41.5829 16.4741 41.4389C16.3536 41.2949 16.2858 41.0996 16.2857 40.896V37.824C16.2858 37.6203 16.3536 37.4251 16.4741 37.2811C16.5947 37.1371 16.7581 37.0561 16.9286 37.056H18.2143C18.3848 37.0561 18.5482 37.1371 18.6687 37.2811C18.7893 37.4251 18.857 37.6203 18.8571 37.824C18.8571 38.0277 18.9249 38.223 19.0454 38.367C19.166 38.5111 19.3295 38.592 19.5 38.592C19.6705 38.592 19.834 38.5111 19.9546 38.367C20.0751 38.223 20.1429 38.0277 20.1429 37.824C20.1423 37.2131 19.9389 36.6275 19.5774 36.1956C19.2158 35.7636 18.7256 35.5207 18.2143 35.52H16.9286C16.4173 35.5207 15.927 35.7636 15.5655 36.1956C15.2039 36.6275 15.0006 37.2131 15 37.824Z" fill="#FF4D5A"/>
<path d="M25.2857 40.128V41.664H22.0714C21.9009 41.664 21.7374 41.7449 21.6169 41.8889C21.4963 42.033 21.4286 42.2283 21.4286 42.432C21.4286 42.6357 21.4963 42.831 21.6169 42.975C21.7374 43.1191 21.9009 43.2 22.0714 43.2H25.2857C25.6266 43.1994 25.9533 43.0374 26.1943 42.7495C26.4354 42.4616 26.571 42.0712 26.5714 41.664V40.128C26.571 39.7208 26.4354 39.3304 26.1943 39.0425C25.9533 38.7545 25.6266 38.5925 25.2857 38.592H22.7143V37.056H25.9286C26.0991 37.056 26.2626 36.9751 26.3831 36.831C26.5037 36.687 26.5714 36.4917 26.5714 36.288C26.5714 36.0843 26.5037 35.889 26.3831 35.7449C26.2626 35.6009 26.0991 35.52 25.9286 35.52H22.7143C22.3734 35.5205 22.0467 35.6825 21.8057 35.9705C21.5646 36.2584 21.429 36.6488 21.4286 37.056V38.592C21.429 38.9992 21.5646 39.3896 21.8057 39.6775C22.0467 39.9654 22.3734 40.1274 22.7143 40.128H25.2857Z" fill="#FF4D5A"/>
<path d="M31.7143 40.128V41.664H28.5C28.3295 41.664 28.166 41.7449 28.0454 41.8889C27.9249 42.033 27.8571 42.2283 27.8571 42.432C27.8571 42.6357 27.9249 42.831 28.0454 42.975C28.166 43.1191 28.3295 43.2 28.5 43.2H31.7143C32.0551 43.1994 32.3819 43.0374 32.6229 42.7495C32.8639 42.4616 32.9995 42.0712 33 41.664V40.128C32.9995 39.7208 32.8639 39.3304 32.6229 39.0425C32.3819 38.7545 32.0551 38.5925 31.7143 38.592H29.1429V37.056H32.3571C32.5276 37.056 32.6912 36.9751 32.8117 36.831C32.9323 36.687 33 36.4917 33 36.288C33 36.0843 32.9323 35.889 32.8117 35.7449C32.6912 35.6009 32.5276 35.52 32.3571 35.52H29.1429C28.802 35.5205 28.4752 35.6825 28.2342 35.9705C27.9932 36.2584 27.8576 36.6488 27.8571 37.056V38.592C27.8576 38.9992 27.9932 39.3896 28.2342 39.6775C28.4752 39.9654 28.802 40.1274 29.1429 40.128H31.7143Z" fill="#FF4D5A"/>
<path d="M16.4202 23.2896C16.4202 20.8512 16.2202 20.4864 15.3002 20.064C16.2202 19.6416 16.4202 19.2384 16.4202 16.8192V13.9584C16.4202 12.9024 16.7402 12.5568 18.0002 12.5568H18.2202C18.7202 12.5568 18.9002 12.2688 18.9002 11.8464C18.9002 11.4048 18.7202 11.1168 18.2202 11.1168H17.3802C15.7402 11.1168 14.7402 12 14.7402 13.536V17.0304C14.7402 18.6432 14.5802 19.104 13.8402 19.2768C13.3802 19.3728 13.2202 19.6224 13.2202 20.064C13.2202 20.5056 13.3602 20.7552 13.8202 20.8512C14.5802 21.024 14.7402 21.4464 14.7402 23.0784V26.592C14.7402 28.128 15.7402 29.0112 17.3802 29.0112H18.2202C18.7202 29.0112 18.9002 28.704 18.9002 28.3008C18.9002 27.84 18.7202 27.552 18.2202 27.552H18.0002C16.7202 27.552 16.4202 27.2064 16.4202 26.1312V23.2896Z" fill="#FF4D5A"/>
<path d="M30.1101 16.8192C30.1101 19.2384 30.2901 19.6416 31.2101 20.064C30.2901 20.4864 30.1101 20.8512 30.1101 23.2896V26.1312C30.1101 27.2064 29.8101 27.552 28.5101 27.552H28.3101C27.8101 27.552 27.6101 27.84 27.6101 28.3008C27.6101 28.704 27.8101 29.0112 28.3101 29.0112H29.1301C30.7901 29.0112 31.7901 28.128 31.7901 26.592V23.0784C31.7901 21.4464 31.9501 21.0624 32.6901 20.8512C33.1301 20.736 33.3101 20.5056 33.3101 20.064C33.3101 19.6224 33.1501 19.3536 32.6901 19.2768C31.9301 19.1232 31.7901 18.6432 31.7901 17.0304V13.536C31.7901 12 30.7901 11.1168 29.1301 11.1168H28.3101C27.7901 11.1168 27.6101 11.4048 27.6101 11.8464C27.6101 12.2688 27.8101 12.5568 28.3101 12.5568H28.5101C29.7901 12.5568 30.1101 12.9024 30.1101 13.9584V16.8192Z" fill="#FF4D5A"/>
</svg>
