<svg width="48" height="48" viewBox="0 0 48 48" fill="none" xmlns="http://www.w3.org/2000/svg">
<path d="M32.2925 2.13557C32.2268 2.06723 32.1487 2.01301 32.0627 1.97603C31.9768 1.93904 31.8847 1.92001 31.7917 1.92001H11.9583C10.6438 1.92157 9.38346 2.46487 8.45392 3.43072C7.52438 4.39657 7.0015 5.7061 7 7.07201V40.928C7.0015 42.2939 7.52438 43.6035 8.45392 44.5693C9.38346 45.5352 10.6438 46.0785 11.9583 46.08H36.0417C37.3562 46.0785 38.6165 45.5352 39.5461 44.5693C40.4756 43.6035 40.9985 42.2939 41 40.928V11.488C41 11.3914 40.9817 11.2956 40.9461 11.2064C40.9105 11.1171 40.8583 11.0359 40.7925 10.9676L32.2925 2.13557ZM32.5 4.43281L38.5817 10.752H36.0417C35.1027 10.7509 34.2025 10.3629 33.5385 9.67296C32.8745 8.98306 32.5011 8.04767 32.5 7.07201V4.43281ZM11.9583 3.39201H31.0833V7.07201C31.0848 8.43793 31.6077 9.74746 32.5373 10.7133C33.4668 11.6792 34.7271 12.2225 36.0417 12.224H39.5833V32.832H8.41667V7.07201C8.41772 6.09635 8.7912 5.16097 9.45516 4.47107C10.1191 3.78117 11.0193 3.39311 11.9583 3.39201ZM36.0417 44.608H11.9583C11.0193 44.6069 10.1191 44.2189 9.45516 43.529C8.7912 42.8391 8.41772 41.9037 8.41667 40.928V32.832H39.5833V40.928C39.5823 41.9037 39.2088 42.8391 38.5448 43.529C37.8809 44.2189 36.9807 44.6069 36.0417 44.608Z" fill="#FF4D5A"/>
<path fill-rule="evenodd" clip-rule="evenodd" d="M11.2 17.472V26.688H36.8V17.472H11.2ZM11 16.32C10.4477 16.32 10 16.7498 10 17.28V26.88C10 27.4102 10.4477 27.84 11 27.84H37C37.5523 27.84 38 27.4102 38 26.88V17.28C38 16.7498 37.5523 16.32 37 16.32H11Z" fill="#FF4D5A"/>
<path fill-rule="evenodd" clip-rule="evenodd" d="M10 30.24C10 29.9749 10.2239 29.76 10.5 29.76H30.5C30.7761 29.76 31 29.9749 31 30.24C31 30.5051 30.7761 30.72 30.5 30.72H10.5C10.2239 30.72 10 30.5051 10 30.24Z" fill="#FF4D5A"/>
<path fill-rule="evenodd" clip-rule="evenodd" d="M10 36C10 35.7349 10.2239 35.52 10.5 35.52H24.5C24.7761 35.52 25 35.7349 25 36C25 36.2651 24.7761 36.48 24.5 36.48H10.5C10.2239 36.48 10 36.2651 10 36Z" fill="#FF4D5A"/>
<path fill-rule="evenodd" clip-rule="evenodd" d="M10 13.92C10 13.6549 10.2239 13.44 10.5 13.44H18.5C18.7761 13.44 19 13.6549 19 13.92C19 14.1851 18.7761 14.4 18.5 14.4H10.5C10.2239 14.4 10 14.1851 10 13.92Z" fill="#FF4D5A"/>
<path fill-rule="evenodd" clip-rule="evenodd" d="M10 11.04C10 10.7749 10.2239 10.56 10.5 10.56H18.5C18.7761 10.56 19 10.7749 19 11.04C19 11.3051 18.7761 11.52 18.5 11.52H10.5C10.2239 11.52 10 11.3051 10 11.04Z" fill="#FF4D5A"/>
<path fill-rule="evenodd" clip-rule="evenodd" d="M20 11.04C20 10.7749 20.2239 10.56 20.5 10.56H21.5C21.7761 10.56 22 10.7749 22 11.04C22 11.3051 21.7761 11.52 21.5 11.52H20.5C20.2239 11.52 20 11.3051 20 11.04Z" fill="#FF4D5A"/>
<path fill-rule="evenodd" clip-rule="evenodd" d="M20 13.92C20 13.6549 20.2239 13.44 20.5 13.44H21.5C21.7761 13.44 22 13.6549 22 13.92C22 14.1851 21.7761 14.4 21.5 14.4H20.5C20.2239 14.4 20 14.1851 20 13.92Z" fill="#FF4D5A"/>
<path fill-rule="evenodd" clip-rule="evenodd" d="M10 39.84C10 39.5749 10.2239 39.36 10.5 39.36H13.5C13.7761 39.36 14 39.5749 14 39.84C14 40.1051 13.7761 40.32 13.5 40.32H10.5C10.2239 40.32 10 40.1051 10 39.84Z" fill="#FF4D5A"/>
<path fill-rule="evenodd" clip-rule="evenodd" d="M15 39.84C15 39.5749 15.2239 39.36 15.5 39.36H18.5C18.7761 39.36 19 39.5749 19 39.84C19 40.1051 18.7761 40.32 18.5 40.32H15.5C15.2239 40.32 15 40.1051 15 39.84Z" fill="#FF4D5A"/>
<path fill-rule="evenodd" clip-rule="evenodd" d="M20 39.84C20 39.5749 20.2239 39.36 20.5 39.36H23.5C23.7761 39.36 24 39.5749 24 39.84C24 40.1051 23.7761 40.32 23.5 40.32H20.5C20.2239 40.32 20 40.1051 20 39.84Z" fill="#FF4D5A"/>
<path fill-rule="evenodd" clip-rule="evenodd" d="M25 39.84C25 39.5749 25.2239 39.36 25.5 39.36H28.5C28.7761 39.36 29 39.5749 29 39.84C29 40.1051 28.7761 40.32 28.5 40.32H25.5C25.2239 40.32 25 40.1051 25 39.84Z" fill="#FF4D5A"/>
<path fill-rule="evenodd" clip-rule="evenodd" d="M10 33.12C10 32.8549 10.2239 32.64 10.5 32.64H35.5C35.7761 32.64 36 32.8549 36 33.12C36 33.3851 35.7761 33.6 35.5 33.6H10.5C10.2239 33.6 10 33.3851 10 33.12Z" fill="#FF4D5A"/>
<path fill-rule="evenodd" clip-rule="evenodd" d="M10.4401 17.0732C10.559 16.7763 10.9062 16.6282 11.2155 16.7424L37.2155 26.3424C37.5247 26.4566 37.679 26.7899 37.5601 27.0868C37.4411 27.3837 37.094 27.5318 36.7847 27.4176L10.7847 17.8176C10.4754 17.7034 10.3211 17.3702 10.4401 17.0732Z" fill="#FF4D5A"/>
<path fill-rule="evenodd" clip-rule="evenodd" d="M37.5601 17.0732C37.679 17.3702 37.5247 17.7034 37.2155 17.8176L11.2155 27.4176C10.9062 27.5318 10.559 27.3837 10.4401 27.0868C10.3211 26.7899 10.4754 26.4566 10.7847 26.3424L36.7847 16.7424C37.094 16.6282 37.4411 16.7763 37.5601 17.0732Z" fill="#FF4D5A"/>
</svg>
