<svg width="48" height="48" viewBox="0 0 48 48" fill="none" xmlns="http://www.w3.org/2000/svg">
<path fill-rule="evenodd" clip-rule="evenodd" d="M11.3831 8.63616C11.3831 11.6945 13.9945 14.2015 17.1804 14.2015H31.1181C34.3025 14.2015 36.9141 11.6947 36.9141 8.63616C36.9141 5.579 34.3027 3.07201 31.1181 3.07201H17.1804C13.9944 3.07201 11.3831 5.57913 11.3831 8.63616ZM10.1831 8.63616C10.1831 12.3308 13.3318 15.3535 17.1804 15.3535H31.1181C34.9654 15.3535 38.1141 12.3308 38.1141 8.63616C38.1141 4.94276 34.9654 1.92001 31.1181 1.92001H17.1804C13.3318 1.92001 10.1831 4.94276 10.1831 8.63616Z" fill="#FF4D5A"/>
<path fill-rule="evenodd" clip-rule="evenodd" d="M24.1181 30.7305H16.9947C13.1474 30.7305 10 27.7077 10 24.0155C10 22.1658 10.7869 20.4843 12.0554 19.2665C13.324 18.0487 15.0742 17.2933 16.9947 17.2933H24.1181V30.7305ZM22.9181 18.4453H16.9947C15.408 18.4453 13.9587 19.0685 12.9039 20.0811C11.8498 21.0931 11.2 22.4855 11.2 24.0155C11.2 27.0716 13.8103 29.5785 16.9947 29.5785H22.9181V18.4453Z" fill="#FF4D5A"/>
<path fill-rule="evenodd" clip-rule="evenodd" d="M31.7956 18.5828C28.5945 18.5828 25.9983 21.0742 25.9983 24.1482C25.9983 27.2208 28.5944 29.7123 31.7956 29.7123C34.9968 29.7123 37.5928 27.2208 37.5928 24.1482C37.5928 21.0742 34.9967 18.5828 31.7956 18.5828ZM24.7983 24.1482C24.7983 20.4378 27.9319 17.4308 31.7956 17.4308C35.6593 17.4308 38.7928 20.4378 38.7928 24.1482C38.7928 27.8573 35.6593 30.8643 31.7956 30.8643C27.9319 30.8643 24.7983 27.8573 24.7983 24.1482Z" fill="#FF4D5A"/>
<path fill-rule="evenodd" clip-rule="evenodd" d="M17.2512 33.7985L16.903 33.811C13.8032 33.9224 11.327 36.3633 11.327 39.3639C11.327 42.4368 13.922 44.928 17.1229 44.928C20.222 44.928 22.7494 42.589 22.9041 39.6472L22.9066 39.5995L22.9073 39.5817C22.9101 39.5167 22.9124 39.4784 22.9142 39.4543L22.9201 39.3429C22.9198 39.3262 22.9191 39.321 22.918 39.3122C22.916 39.2965 22.9126 39.2693 22.9073 39.1442L22.9063 39.1209V33.7985H17.2512ZM24.1063 32.6465V39.0976C24.1078 39.1322 24.1102 39.1665 24.1126 39.2007C24.1164 39.2549 24.1202 39.309 24.1202 39.3639C24.1202 39.4191 24.1164 39.4734 24.1125 39.5276C24.1101 39.5613 24.1078 39.5951 24.1063 39.629V39.7053H24.1025C23.9159 43.2546 20.8668 46.08 17.1229 46.08C13.2593 46.08 10.127 43.073 10.127 39.3639C10.127 35.7395 13.118 32.7942 16.8581 32.6598V32.6465H24.1063Z" fill="#FF4D5A"/>
</svg>
