<svg width="48" height="48" viewBox="0 0 48 48" fill="none" xmlns="http://www.w3.org/2000/svg">
<path fill-rule="evenodd" clip-rule="evenodd" d="M44 8.83199H4C3.00589 8.83199 2.2 9.60564 2.2 10.56V36.48C2.2 37.4343 3.00589 38.208 4 38.208H44C44.9941 38.208 45.8 37.4343 45.8 36.48V10.56C45.8 9.60564 44.9941 8.83199 44 8.83199ZM4 7.67999C2.34315 7.67999 1 8.96941 1 10.56V36.48C1 38.0706 2.34315 39.36 4 39.36H44C45.6569 39.36 47 38.0706 47 36.48V10.56C47 8.96941 45.6569 7.67999 44 7.67999H4Z" fill="#FF4D5A"/>
<path fill-rule="evenodd" clip-rule="evenodd" d="M47 14.4H1V13.44H47V14.4Z" fill="#FF4D5A"/>
<path d="M6 11.52C6 12.0502 5.55228 12.48 5 12.48C4.44772 12.48 4 12.0502 4 11.52C4 10.9898 4.44772 10.56 5 10.56C5.55228 10.56 6 10.9898 6 11.52Z" fill="#FF4D5A"/>
<path d="M10 11.52C10 12.0502 9.55228 12.48 9 12.48C8.44772 12.48 8 12.0502 8 11.52C8 10.9898 8.44772 10.56 9 10.56C9.55228 10.56 10 10.9898 10 11.52Z" fill="#FF4D5A"/>
<path d="M14 11.52C14 12.0502 13.5523 12.48 13 12.48C12.4477 12.48 12 12.0502 12 11.52C12 10.9898 12.4477 10.56 13 10.56C13.5523 10.56 14 10.9898 14 11.52Z" fill="#FF4D5A"/>
<path fill-rule="evenodd" clip-rule="evenodd" d="M7.92426 16.8727C8.15858 17.0976 8.15858 17.4623 7.92426 17.6873L5.84853 19.68L7.92426 21.6727C8.15858 21.8976 8.15858 22.2623 7.92426 22.4873C7.68995 22.7122 7.31005 22.7122 7.07574 22.4873L4.57574 20.0873C4.34142 19.8623 4.34142 19.4976 4.57574 19.2727L7.07574 16.8727C7.31005 16.6478 7.68995 16.6478 7.92426 16.8727Z" fill="#FF4D5A"/>
<path fill-rule="evenodd" clip-rule="evenodd" d="M37.5757 34.0073C37.3414 33.7823 37.3414 33.4176 37.5757 33.1927L39.6515 31.2L37.5757 29.2073C37.3414 28.9823 37.3414 28.6176 37.5757 28.3927C37.81 28.1678 38.1899 28.1678 38.4243 28.3927L40.9243 30.7927C41.1586 31.0176 41.1586 31.3823 40.9243 31.6073L38.4243 34.0073C38.1899 34.2322 37.81 34.2322 37.5757 34.0073Z" fill="#FF4D5A"/>
<path fill-rule="evenodd" clip-rule="evenodd" d="M10 20.64C10 20.3749 10.2239 20.16 10.5 20.16H22.0517C22.3279 20.16 22.5517 20.3749 22.5517 20.64C22.5517 20.9051 22.3279 21.12 22.0517 21.12H10.5C10.2239 21.12 10 20.9051 10 20.64Z" fill="#FF4D5A"/>
<path fill-rule="evenodd" clip-rule="evenodd" d="M10 32.16C10 31.8949 10.2239 31.68 10.5 31.68H22.0517C22.3279 31.68 22.5517 31.8949 22.5517 32.16C22.5517 32.4251 22.3279 32.64 22.0517 32.64H10.5C10.2239 32.64 10 32.4251 10 32.16Z" fill="#FF4D5A"/>
<path fill-rule="evenodd" clip-rule="evenodd" d="M23.4483 32.16C23.4483 31.8949 23.6721 31.68 23.9483 31.68H28.3276C28.6037 31.68 28.8276 31.8949 28.8276 32.16C28.8276 32.4251 28.6037 32.64 28.3276 32.64H23.9483C23.6721 32.64 23.4483 32.4251 23.4483 32.16Z" fill="#FF4D5A"/>
<path fill-rule="evenodd" clip-rule="evenodd" d="M29.7241 32.16C29.7241 31.8949 29.948 31.68 30.2241 31.68H35.5C35.7761 31.68 36 31.8949 36 32.16C36 32.4251 35.7761 32.64 35.5 32.64H30.2241C29.948 32.64 29.7241 32.4251 29.7241 32.16Z" fill="#FF4D5A"/>
<path fill-rule="evenodd" clip-rule="evenodd" d="M10 26.4C10 26.1349 10.2239 25.92 10.5 25.92H18.4655C18.7417 25.92 18.9655 26.1349 18.9655 26.4C18.9655 26.6651 18.7417 26.88 18.4655 26.88H10.5C10.2239 26.88 10 26.6651 10 26.4Z" fill="#FF4D5A"/>
<path fill-rule="evenodd" clip-rule="evenodd" d="M23.4483 20.64C23.4483 20.3749 23.6721 20.16 23.9483 20.16H24.7414C25.0175 20.16 25.2414 20.3749 25.2414 20.64C25.2414 20.9051 25.0175 21.12 24.7414 21.12H23.9483C23.6721 21.12 23.4483 20.9051 23.4483 20.64Z" fill="#FF4D5A"/>
<path fill-rule="evenodd" clip-rule="evenodd" d="M27.931 26.4C27.931 26.1349 28.1549 25.92 28.431 25.92H32.8103C33.0865 25.92 33.3103 26.1349 33.3103 26.4C33.3103 26.6651 33.0865 26.88 32.8103 26.88H28.431C28.1549 26.88 27.931 26.6651 27.931 26.4Z" fill="#FF4D5A"/>
<path fill-rule="evenodd" clip-rule="evenodd" d="M26.1379 20.64C26.1379 20.3749 26.3618 20.16 26.6379 20.16H30.1207C30.3968 20.16 30.6207 20.3749 30.6207 20.64C30.6207 20.9051 30.3968 21.12 30.1207 21.12H26.6379C26.3618 21.12 26.1379 20.9051 26.1379 20.64Z" fill="#FF4D5A"/>
<path fill-rule="evenodd" clip-rule="evenodd" d="M19.8621 26.4C19.8621 26.1349 20.0859 25.92 20.3621 25.92H23.8448C24.121 25.92 24.3448 26.1349 24.3448 26.4C24.3448 26.6651 24.121 26.88 23.8448 26.88H20.3621C20.0859 26.88 19.8621 26.6651 19.8621 26.4Z" fill="#FF4D5A"/>
<path fill-rule="evenodd" clip-rule="evenodd" d="M29.7241 29.28C29.7241 29.0149 29.948 28.8 30.2241 28.8H31.9138C32.1899 28.8 32.4138 29.0149 32.4138 29.28C32.4138 29.5451 32.1899 29.76 31.9138 29.76H30.2241C29.948 29.76 29.7241 29.5451 29.7241 29.28Z" fill="#FF4D5A"/>
<path fill-rule="evenodd" clip-rule="evenodd" d="M10 29.28C10 29.0149 10.2239 28.8 10.5 28.8H11.2931C11.5692 28.8 11.7931 29.0149 11.7931 29.28C11.7931 29.5451 11.5692 29.76 11.2931 29.76H10.5C10.2239 29.76 10 29.5451 10 29.28Z" fill="#FF4D5A"/>
<path fill-rule="evenodd" clip-rule="evenodd" d="M12.6897 29.28C12.6897 29.0149 12.9135 28.8 13.1897 28.8H13.9828C14.2589 28.8 14.4828 29.0149 14.4828 29.28C14.4828 29.5451 14.2589 29.76 13.9828 29.76H13.1897C12.9135 29.76 12.6897 29.5451 12.6897 29.28Z" fill="#FF4D5A"/>
<path fill-rule="evenodd" clip-rule="evenodd" d="M15.3793 29.28C15.3793 29.0149 15.6032 28.8 15.8793 28.8H18.4655C18.7417 28.8 18.9655 29.0149 18.9655 29.28C18.9655 29.5451 18.7417 29.76 18.4655 29.76H15.8793C15.6032 29.76 15.3793 29.5451 15.3793 29.28Z" fill="#FF4D5A"/>
<path fill-rule="evenodd" clip-rule="evenodd" d="M19.8621 29.28C19.8621 29.0149 20.0859 28.8 20.3621 28.8H28.3276C28.6037 28.8 28.8276 29.0149 28.8276 29.28C28.8276 29.5451 28.6037 29.76 28.3276 29.76H20.3621C20.0859 29.76 19.8621 29.5451 19.8621 29.28Z" fill="#FF4D5A"/>
<path fill-rule="evenodd" clip-rule="evenodd" d="M10 23.52C10 23.2549 10.2239 23.04 10.5 23.04H13.9828C14.2589 23.04 14.4828 23.2549 14.4828 23.52C14.4828 23.7851 14.2589 24 13.9828 24H10.5C10.2239 24 10 23.7851 10 23.52Z" fill="#FF4D5A"/>
<path fill-rule="evenodd" clip-rule="evenodd" d="M25.2414 26.4C25.2414 26.1349 25.4652 25.92 25.7414 25.92H26.5345C26.8106 25.92 27.0345 26.1349 27.0345 26.4C27.0345 26.6651 26.8106 26.88 26.5345 26.88H25.7414C25.4652 26.88 25.2414 26.6651 25.2414 26.4Z" fill="#FF4D5A"/>
<path fill-rule="evenodd" clip-rule="evenodd" d="M15.3793 23.52C15.3793 23.2549 15.6032 23.04 15.8793 23.04H16.6724C16.9486 23.04 17.1724 23.2549 17.1724 23.52C17.1724 23.7851 16.9486 24 16.6724 24H15.8793C15.6032 24 15.3793 23.7851 15.3793 23.52Z" fill="#FF4D5A"/>
<path fill-rule="evenodd" clip-rule="evenodd" d="M18.069 23.52C18.069 23.2549 18.2928 23.04 18.569 23.04H19.3621C19.6382 23.04 19.8621 23.2549 19.8621 23.52C19.8621 23.7851 19.6382 24 19.3621 24H18.569C18.2928 24 18.069 23.7851 18.069 23.52Z" fill="#FF4D5A"/>
<path fill-rule="evenodd" clip-rule="evenodd" d="M20.7586 23.52C20.7586 23.2549 20.9825 23.04 21.2586 23.04H26.5345C26.8106 23.04 27.0345 23.2549 27.0345 23.52C27.0345 23.7851 26.8106 24 26.5345 24H21.2586C20.9825 24 20.7586 23.7851 20.7586 23.52Z" fill="#FF4D5A"/>
</svg>
