<svg width="48" height="48" viewBox="0 0 48 48" fill="none" xmlns="http://www.w3.org/2000/svg">
<path fill-rule="evenodd" clip-rule="evenodd" d="M32.2345 21.6476C32.4657 21.8789 32.4657 22.2539 32.2345 22.4852L26.8058 27.9139C26.5745 28.1451 26.1995 28.1451 25.9682 27.9139C25.737 27.6826 25.737 27.3076 25.9682 27.0763L31.3969 21.6476C31.6282 21.4164 32.0032 21.4164 32.2345 21.6476Z" fill="#FF4D5A"/>
<path fill-rule="evenodd" clip-rule="evenodd" d="M15.6044 21.6476C15.8357 21.4164 16.2106 21.4164 16.4419 21.6476L21.8706 27.0763C22.1019 27.3076 22.1019 27.6826 21.8706 27.9139C21.6393 28.1451 21.2643 28.1451 21.0331 27.9139L15.6044 22.4852C15.3731 22.2539 15.3731 21.8789 15.6044 21.6476Z" fill="#FF4D5A"/>
<path fill-rule="evenodd" clip-rule="evenodd" d="M45.0061 22.0458L25.9542 2.99391C24.8749 1.91462 23.1251 1.91462 22.0458 2.99391L2.99391 22.0458C1.91462 23.1251 1.91462 24.8749 2.99391 25.9542L22.0458 45.0061C23.1251 46.0854 24.8749 46.0854 25.9542 45.0061L45.0061 25.9542C46.0854 24.8749 46.0854 23.1251 45.0061 22.0458ZM26.7918 2.15638C25.2499 0.61454 22.7501 0.614539 21.2082 2.15638L2.15638 21.2082C0.614539 22.7501 0.614539 25.2499 2.15638 26.7918L21.2082 45.8436C22.7501 47.3855 25.2499 47.3855 26.7918 45.8436L45.8436 26.7918C47.3855 25.2499 47.3855 22.7501 45.8436 21.2082L26.7918 2.15638Z" fill="#FF4D5A"/>
<path fill-rule="evenodd" clip-rule="evenodd" d="M21.8706 32.0115C22.1019 32.2428 22.1019 32.6178 21.8706 32.849L15.4549 39.2648C15.2236 39.496 14.8486 39.496 14.6173 39.2648C14.3861 39.0335 14.3861 38.6585 14.6173 38.4272L21.0331 32.0115C21.2643 31.7802 21.6393 31.7802 21.8706 32.0115Z" fill="#FF4D5A"/>
<path fill-rule="evenodd" clip-rule="evenodd" d="M13.5552 21.869C14.809 21.869 15.8254 20.8526 15.8254 19.5988C15.8254 18.345 14.809 17.3287 13.5552 17.3287C12.3014 17.3287 11.285 18.345 11.285 19.5988C11.285 20.8526 12.3014 21.869 13.5552 21.869ZM13.5552 23.0534C15.4631 23.0534 17.0098 21.5068 17.0098 19.5988C17.0098 17.6909 15.4631 16.1442 13.5552 16.1442C11.6472 16.1442 10.1006 17.6909 10.1006 19.5988C10.1006 21.5068 11.6472 23.0534 13.5552 23.0534Z" fill="#FF4D5A"/>
<path fill-rule="evenodd" clip-rule="evenodd" d="M23.919 32.2329C25.1728 32.2329 26.1892 31.2165 26.1892 29.9627C26.1892 28.7089 25.1728 27.6925 23.919 27.6925C22.6652 27.6925 21.6489 28.7089 21.6489 29.9627C21.6489 31.2165 22.6652 32.2329 23.919 32.2329ZM23.919 33.4173C25.827 33.4173 27.3737 31.8706 27.3737 29.9627C27.3737 28.0548 25.827 26.5081 23.919 26.5081C22.0111 26.5081 20.4644 28.0548 20.4644 29.9627C20.4644 31.8706 22.0111 33.4173 23.919 33.4173Z" fill="#FF4D5A"/>
<path fill-rule="evenodd" clip-rule="evenodd" d="M34.2829 21.869C35.5367 21.869 36.5531 20.8526 36.5531 19.5988C36.5531 18.345 35.5367 17.3287 34.2829 17.3287C33.0291 17.3287 32.0127 18.345 32.0127 19.5988C32.0127 20.8526 33.0291 21.869 34.2829 21.869ZM34.2829 23.0534C36.1908 23.0534 37.7375 21.5068 37.7375 19.5988C37.7375 17.6909 36.1908 16.1442 34.2829 16.1442C32.375 16.1442 30.8283 17.6909 30.8283 19.5988C30.8283 21.5068 32.375 23.0534 34.2829 23.0534Z" fill="#FF4D5A"/>
</svg>
