<svg width="48" height="48" viewBox="0 0 48 48" fill="none" xmlns="http://www.w3.org/2000/svg">
<path d="M32.2925 2.13557C32.2268 2.06723 32.1487 2.01301 32.0627 1.97603C31.9768 1.93904 31.8847 1.92001 31.7917 1.92001H11.9583C10.6438 1.92157 9.38346 2.46487 8.45392 3.43072C7.52438 4.39657 7.0015 5.7061 7 7.07201V40.928C7.0015 42.2939 7.52438 43.6035 8.45392 44.5693C9.38346 45.5352 10.6438 46.0785 11.9583 46.08H36.0417C37.3562 46.0785 38.6165 45.5352 39.5461 44.5693C40.4756 43.6035 40.9985 42.2939 41 40.928V11.488C41 11.3914 40.9817 11.2957 40.9461 11.2064C40.9105 11.1171 40.8583 11.0359 40.7925 10.9676L32.2925 2.13557ZM32.5 4.43281L38.5817 10.752H36.0417C35.1027 10.7509 34.2025 10.3629 33.5385 9.67296C32.8745 8.98306 32.5011 8.04767 32.5 7.07201V4.43281ZM11.9583 3.39201H31.0833V7.07201C31.0848 8.43793 31.6077 9.74746 32.5373 10.7133C33.4668 11.6792 34.7271 12.2225 36.0417 12.224H39.5833V32.832H8.41667V7.07201C8.41772 6.09635 8.7912 5.16097 9.45516 4.47107C10.1191 3.78117 11.0193 3.39311 11.9583 3.39201V3.39201ZM36.0417 44.608H11.9583C11.0193 44.6069 10.1191 44.2189 9.45516 43.529C8.7912 42.8391 8.41772 41.9037 8.41667 40.928V34.304H39.5833V40.928C39.5823 41.9037 39.2088 42.8391 38.5448 43.529C37.8809 44.2189 36.9807 44.6069 36.0417 44.608V44.608Z" fill="#FF4D5A"/>
<path d="M16.2222 35.776C16.0136 35.776 15.8136 35.8535 15.6661 35.9916C15.5187 36.1296 15.4358 36.3168 15.4358 36.512V38.72H13.8632V36.512C13.8632 36.3168 13.7803 36.1296 13.6329 35.9916C13.4854 35.8535 13.2854 35.776 13.0769 35.776C12.8683 35.776 12.6683 35.8535 12.5208 35.9916C12.3734 36.1296 12.2905 36.3168 12.2905 36.512V42.4C12.2905 42.5952 12.3734 42.7824 12.5208 42.9204C12.6683 43.0585 12.8683 43.136 13.0769 43.136C13.2854 43.136 13.4854 43.0585 13.6329 42.9204C13.7803 42.7824 13.8632 42.5952 13.8632 42.4V40.192H15.4358V42.4C15.4358 42.5952 15.5187 42.7824 15.6661 42.9204C15.8136 43.0585 16.0136 43.136 16.2222 43.136C16.4307 43.136 16.6307 43.0585 16.7782 42.9204C16.9256 42.7824 17.0085 42.5952 17.0085 42.4V36.512C17.0085 36.3168 16.9256 36.1296 16.7782 35.9916C16.6307 35.8535 16.4307 35.776 16.2222 35.776Z" fill="#FF4D5A"/>
<path d="M21.5127 35.776H18.3674C18.1588 35.776 17.9588 35.8535 17.8114 35.9916C17.6639 36.1296 17.5811 36.3168 17.5811 36.512C17.5811 36.7072 17.6639 36.8944 17.8114 37.0324C17.9588 37.1705 18.1588 37.248 18.3674 37.248H19.1537V42.4C19.1537 42.5952 19.2365 42.7824 19.384 42.9204C19.5315 43.0585 19.7315 43.136 19.94 43.136C20.1486 43.136 20.3486 43.0585 20.496 42.9204C20.6435 42.7824 20.7264 42.5952 20.7264 42.4V37.248H21.5127C21.7212 37.248 21.9212 37.1705 22.0687 37.0324C22.2162 36.8944 22.299 36.7072 22.299 36.512C22.299 36.3168 22.2162 36.1296 22.0687 35.9916C21.9212 35.8535 21.7212 35.776 21.5127 35.776Z" fill="#FF4D5A"/>
<path d="M28.5565 35.7957C28.3841 35.7576 28.2031 35.7751 28.0426 35.8454C27.8822 35.9157 27.7518 36.0346 27.6726 36.1829L26.0169 39.2822L24.3612 36.1829C24.2819 36.0346 24.1516 35.9157 23.9911 35.8454C23.8307 35.7752 23.6496 35.7577 23.4772 35.7958C23.3048 35.8339 23.1513 35.9253 23.0413 36.0553C22.9314 36.1853 22.8716 36.3462 22.8716 36.512V42.4C22.8716 42.5952 22.9544 42.7824 23.1019 42.9205C23.2494 43.0585 23.4494 43.136 23.6579 43.136C23.8665 43.136 24.0665 43.0585 24.2139 42.9205C24.3614 42.7824 24.4442 42.5952 24.4442 42.4V39.6298L25.3136 41.2572C25.3789 41.3794 25.4793 41.4822 25.6035 41.5541C25.7277 41.6259 25.8709 41.664 26.0169 41.664C26.1629 41.664 26.306 41.6259 26.4302 41.5541C26.5544 41.4822 26.6548 41.3794 26.7202 41.2572L27.5895 39.6298V42.4C27.5895 42.5952 27.6724 42.7824 27.8198 42.9205C27.9673 43.0585 28.1673 43.136 28.3759 43.136C28.5844 43.136 28.7844 43.0585 28.9319 42.9205C29.0793 42.7824 29.1622 42.5952 29.1622 42.4V36.512C29.1622 36.3462 29.1024 36.1853 28.9924 36.0553C28.8825 35.9253 28.7289 35.8338 28.5565 35.7957V35.7957Z" fill="#FF4D5A"/>
<path d="M34.6318 41.664H32.2728V36.512C32.2728 36.3168 32.19 36.1296 32.0425 35.9916C31.8951 35.8535 31.6951 35.776 31.4865 35.776C31.278 35.776 31.078 35.8535 30.9305 35.9916C30.783 36.1296 30.7002 36.3168 30.7002 36.512V42.4C30.7002 42.5952 30.783 42.7824 30.9305 42.9204C31.078 43.0585 31.278 43.136 31.4865 43.136H34.6318C34.8404 43.136 35.0404 43.0585 35.1878 42.9204C35.3353 42.7824 35.4181 42.5952 35.4181 42.4C35.4181 42.2048 35.3353 42.0176 35.1878 41.8796C35.0404 41.7415 34.8404 41.664 34.6318 41.664Z" fill="#FF4D5A"/>
<path d="M17.8116 24.5204C17.959 24.6585 18.159 24.736 18.3676 24.736C18.5761 24.736 18.7761 24.6585 18.9236 24.5204C19.0711 24.3824 19.1539 24.1952 19.1539 24C19.1539 23.8048 19.0711 23.6176 18.9236 23.4795L14.7616 19.584L18.9236 15.6884C19.0711 15.5504 19.1539 15.3632 19.1539 15.168C19.1539 14.9728 19.0711 14.7856 18.9236 14.6476C18.7761 14.5095 18.5761 14.432 18.3676 14.432C18.159 14.432 17.959 14.5095 17.8116 14.6476L13.0936 19.0635C13.0206 19.1319 12.9627 19.213 12.9231 19.3023C12.8836 19.3916 12.8633 19.4873 12.8633 19.584C12.8633 19.6806 12.8836 19.7764 12.9231 19.8657C12.9627 19.955 13.0206 20.0361 13.0936 20.1044L17.8116 24.5204Z" fill="#FF4D5A"/>
<path d="M28.8202 24.5204C28.8932 24.5888 28.9799 24.643 29.0753 24.68C29.1707 24.717 29.2729 24.736 29.3762 24.736C29.4795 24.736 29.5817 24.717 29.6771 24.68C29.7725 24.643 29.8592 24.5888 29.9322 24.5204L34.6502 20.1044C34.7232 20.0361 34.7811 19.955 34.8206 19.8657C34.8602 19.7764 34.8805 19.6806 34.8805 19.584C34.8805 19.4873 34.8602 19.3916 34.8206 19.3023C34.7811 19.213 34.7232 19.1319 34.6502 19.0635L29.9322 14.6476C29.7848 14.5095 29.5847 14.432 29.3762 14.432C29.1676 14.432 28.9676 14.5095 28.8202 14.6476C28.6727 14.7856 28.5899 14.9728 28.5899 15.168C28.5899 15.3632 28.6727 15.5504 28.8202 15.6884L32.9822 19.584L28.8202 23.4795C28.7471 23.5479 28.6892 23.629 28.6497 23.7183C28.6102 23.8076 28.5898 23.9033 28.5898 24C28.5898 24.0966 28.6102 24.1924 28.6497 24.2817C28.6892 24.371 28.7471 24.4521 28.8202 24.5204V24.5204Z" fill="#FF4D5A"/>
<path d="M21.2642 26.9062C21.3621 26.9369 21.4656 26.9492 21.5686 26.9424C21.6716 26.9356 21.7722 26.9098 21.8646 26.8666C21.957 26.8233 22.0394 26.7635 22.107 26.6904C22.1746 26.6173 22.2262 26.5325 22.2588 26.4408L26.9767 13.1928C27.0105 13.1008 27.0246 13.0035 27.018 12.9064C27.0114 12.8093 26.9843 12.7145 26.9383 12.6272C26.8923 12.54 26.8282 12.4622 26.7499 12.3983C26.6716 12.3344 26.5805 12.2857 26.4819 12.2549C26.3833 12.2242 26.2792 12.212 26.1756 12.2191C26.072 12.2262 25.9709 12.2525 25.8782 12.2964C25.7854 12.3404 25.7029 12.4011 25.6354 12.475C25.5679 12.5489 25.5168 12.6347 25.4849 12.7272L20.7669 25.9752C20.701 26.1604 20.7163 26.3625 20.8096 26.5371C20.9028 26.7117 21.0663 26.8444 21.2642 26.9062V26.9062Z" fill="#FF4D5A"/>
</svg>
