<svg width="48" height="48" viewBox="0 0 48 48" fill="none" xmlns="http://www.w3.org/2000/svg">
<path fill-rule="evenodd" clip-rule="evenodd" d="M11.7214 12.5091C13.2216 12.5091 14.4244 11.3444 14.4244 9.85454C14.4244 8.36942 13.2022 7.2 11.7214 7.2C10.2212 7.2 9.01836 8.36466 9.01836 9.85454C9.01836 11.3397 10.2406 12.5091 11.7214 12.5091ZM15.6244 9.85454C15.6244 12.0364 13.8547 13.7091 11.7214 13.7091C9.6123 13.7091 7.81836 12.0364 7.81836 9.85454C7.81836 7.67273 9.58806 6 11.7214 6C13.8305 6 15.6244 7.67273 15.6244 9.85454Z" fill="#FF4D5A"/>
<path fill-rule="evenodd" clip-rule="evenodd" d="M3.62424 34.3394C3.40606 35.3091 3.28485 36.3758 3.28485 37.2243C3.28485 40.6182 5.12727 42.8728 9.0303 42.8728C11.3281 42.8728 13.3105 41.9146 14.9432 40.247C15.6188 39.557 16.2345 38.7456 16.7879 37.8303L15.6242 42.4606H22.0727L25.7576 27.697C26.6788 23.9637 28.4485 22.0243 31.1636 22.0243C33.297 22.0243 34.6061 23.3576 34.6061 25.5394C34.6061 26.1697 34.5576 26.8728 34.3151 27.6L32.4242 34.3879C32.1333 35.3576 32.0121 36.3516 32.0121 37.2728C32.0121 40.497 33.903 42.8485 37.8788 42.8485C41.2727 42.8485 43.9636 40.6667 45.4667 35.4303L42.9455 34.4606C42.8187 34.814 42.6938 35.1381 42.5705 35.4355C41.4678 38.0961 40.5062 38.6061 39.7212 38.6061C38.8485 38.6061 38.3879 38.0243 38.3879 36.8849C38.3879 36.3758 38.5091 35.794 38.6788 35.0909L40.5212 28.4728C40.9818 26.9212 41.1515 25.5394 41.1515 24.2788C41.1515 19.3334 38.1697 16.7637 34.5333 16.7637C32.0812 16.7637 29.6038 18.3582 27.7685 20.4591C27.0636 21.2661 26.4534 22.1477 25.9758 23.0425L27.2364 17.2728H17.3939L16.0121 22.3637H20.6182L17.7818 33.7091C15.5515 38.6546 11.4788 38.7273 10.9697 38.6303C10.1212 38.4364 9.58788 38.1213 9.58788 37.0303C9.58788 36.4 9.70909 35.5031 10 34.3879L14.3152 17.2728H3.38182L2 22.3637H6.53333L3.62424 34.3394ZM3.56913 21.1637H8.05973L4.7928 34.6125C4.5935 35.5018 4.48485 36.4756 4.48485 37.2243C4.48485 38.7134 4.88716 39.7898 5.55955 40.4902C6.22333 41.1815 7.31027 41.6728 9.0303 41.6728C11.0765 41.6728 12.8842 40.771 14.4027 39.07C14.3451 39.098 14.2878 39.1251 14.2307 39.1513C13.4338 39.5169 12.6946 39.7006 12.1066 39.7855C11.5525 39.8654 11.0553 39.8682 10.7452 39.8091L10.7237 39.805L10.7023 39.8002C10.2346 39.6933 9.60332 39.5065 9.11208 39.0152C8.57449 38.4776 8.38788 37.773 8.38788 37.0303C8.38788 36.2665 8.53146 35.2646 8.83759 34.0899L12.775 18.4728H4.29952L3.56913 21.1637ZM16.5727 37.5478C17.4226 36.7323 18.2255 35.6443 18.8757 34.2025L18.9199 34.1045L22.1551 21.1637H17.5813L18.3116 18.4728H25.7459L24.8034 22.7863L26.3298 23.3482C25.5496 24.4305 24.9875 25.8094 24.5929 27.408L24.5925 27.4095L21.1354 41.2606H17.1631L17.9517 38.1228L16.5727 37.5478ZM28.5185 21.4278C29.3115 21.0277 30.1976 20.8243 31.1636 20.8243C32.4842 20.8243 33.6784 21.2427 34.5419 22.1238C35.4026 23.002 35.8061 24.2086 35.8061 25.5394C35.8061 26.2209 35.7554 27.0586 35.4635 27.9494L33.577 34.7214L33.5736 34.7327C33.3204 35.5769 33.2121 36.4532 33.2121 37.2728C33.2121 38.6549 33.6143 39.7173 34.3122 40.4304C35.0037 41.1371 36.1301 41.6485 37.8788 41.6485C39.293 41.6485 40.5153 41.2044 41.5627 40.2261C42.4781 39.3711 43.3124 38.0579 43.9817 36.1449L43.631 36.01C43.1261 37.2059 42.6147 38.0624 42.0783 38.6561C41.3329 39.4809 40.5279 39.8061 39.7212 39.8061C38.9953 39.8061 38.2775 39.5481 37.7806 38.9102C37.325 38.3253 37.1879 37.5867 37.1879 36.8849C37.1879 36.2143 37.345 35.5024 37.5123 34.8094L37.5172 34.7892L39.3679 28.1411L39.3708 28.1312C39.7977 26.6933 39.9515 25.4267 39.9515 24.2788C39.9515 22.0502 39.2842 20.4892 38.3369 19.4941C37.3897 18.4991 36.0632 17.9637 34.5333 17.9637C33.1905 17.9637 31.7345 18.5752 30.364 19.6412C29.6975 20.1596 29.0737 20.7686 28.5185 21.4278Z" fill="#FF4D5A"/>
</svg>
