<svg width="48" height="48" viewBox="0 0 48 48" fill="none" xmlns="http://www.w3.org/2000/svg">
<path d="M37.6078 10.9994V10.3994H37.0078H32.9271C30.4343 10.3994 28.0434 9.40912 26.2807 7.6464C24.66 6.02565 23.6922 3.87387 23.5469 1.6H45.0791C45.8091 1.6 46.4008 2.19174 46.4008 2.92174V24.3128C41.4942 24.0004 37.6109 19.9235 37.6078 14.9386V10.9994Z" stroke="#FF4D5A" stroke-width="1.2"/>
<path d="M26.6413 22.0302V21.4302H26.0413H21.9612C16.9763 21.4269 12.8994 17.5437 12.587 12.6371H34.1189C34.8489 12.6371 35.4407 13.2288 35.4407 13.9589V35.3503C30.5339 35.0412 26.6481 30.9672 26.6413 25.9826C26.6413 25.9824 26.6413 25.9821 26.6413 25.9818L26.6413 22.0302Z" stroke="#FF4D5A" stroke-width="1.2"/>
<path d="M15.6927 33.0674V32.4674H15.0927H10.9994C6.00981 32.4674 1.92825 28.5795 1.61884 23.668H23.1514C23.8814 23.668 24.4731 24.2597 24.4731 24.9897V46.3799C19.5718 46.0611 15.696 41.9864 15.6927 37.0065V33.0674Z" stroke="#FF4D5A" stroke-width="1.2"/>
</svg>
