<svg width="48" height="48" viewBox="0 0 48 48" fill="none" xmlns="http://www.w3.org/2000/svg">
<mask id="path-1-inside-1_671_704" fill="white">
<path fill-rule="evenodd" clip-rule="evenodd" d="M37.681 9.69577C39.5601 9.69577 41.3473 11.3126 41.3473 13.1481C41.3473 16.582 32.3449 25.1318 32.3449 29.2259C32.3449 29.955 32.706 30.3186 33.4282 30.3186C36.0273 30.3186 40.5399 23.8118 42.0166 21.6474C43.9003 18.8828 45.4344 18.8757 46.4327 19.8808C47.7552 21.2195 46.4718 23.9007 45.5586 25.5613C42.7296 30.7019 36.071 38.3979 30.2611 38.3979C28.704 38.3979 27.4251 37.8787 26.4269 36.8414C22.7284 33.0095 26.3142 26.1868 29.2629 21.7317C23.0044 26.5939 20.4445 33.8445 18.2572 36.1675C16.4862 38.0421 12.8567 36.8643 13.0867 33.6833C13.2224 31.8134 13.7767 29.8882 15.7915 26.3531C16.6426 24.6878 17.788 22.369 18.5056 21.1454C9.03861 28.7884 8.26121 36.0334 5.96118 38.3564C4.15795 40.178 1 38.9692 1 35.5375C1 29.6885 9.27323 11.1495 13.9216 7.63269C15.8697 6.15607 18.4228 7.44838 18.4228 9.61041C18.4228 11.3446 15.4465 15.7065 13.3374 19.9662C17.8087 14.5496 21.0195 10.9409 23.5496 9.61378C26.3119 8.17166 28.4256 9.73036 28.4256 11.8004C28.4256 13.8474 26.5281 16.5109 24.2603 20.8074C27.5425 17.2147 34.4494 9.69801 37.681 9.69801"/>
</mask>
<path d="M42.0166 21.6474L43.0078 22.3237L43.0082 22.3231L42.0166 21.6474ZM46.4327 19.8808L47.2863 19.0375L47.2841 19.0352L46.4327 19.8808ZM45.5586 25.5613L46.6099 26.1399L46.6102 26.1395L45.5586 25.5613ZM26.4269 36.8414L27.2916 36.0093L27.2903 36.008L26.4269 36.8414ZM29.2629 21.7317L30.2635 22.394L28.5266 20.784L29.2629 21.7317ZM18.2572 36.1675L19.1295 36.9916L19.1309 36.9902L18.2572 36.1675ZM13.0867 33.6833L11.8899 33.5965L11.8898 33.5968L13.0867 33.6833ZM15.7915 26.3531L16.8341 26.9473L16.8476 26.9235L16.8601 26.8992L15.7915 26.3531ZM18.5056 21.1454L19.5407 21.7525L17.7518 20.2117L18.5056 21.1454ZM5.96118 38.3564L5.10844 37.5121L5.10835 37.5122L5.96118 38.3564ZM13.9216 7.63269L14.6456 8.58967L14.6465 8.58902L13.9216 7.63269ZM13.3374 19.9662L12.262 19.4337L14.2628 20.7301L13.3374 19.9662ZM23.5496 9.61378L22.9942 8.55002L22.9922 8.55111L23.5496 9.61378ZM24.2603 20.8074L23.1991 20.2472L25.1462 21.6168L24.2603 20.8074ZM37.681 10.8958C38.2823 10.8958 38.915 11.16 39.4018 11.6126C39.8887 12.0651 40.1473 12.6258 40.1473 13.1481H42.5473C42.5473 11.8349 41.9123 10.6695 41.0358 9.8547C40.1593 9.03995 38.9588 8.49577 37.681 8.49577V10.8958ZM40.1473 13.1481C40.1473 13.3396 40.0779 13.6734 39.8587 14.1814C39.6462 14.6737 39.3294 15.248 38.9235 15.8965C38.1083 17.199 37.0153 18.6747 35.8774 20.2312C34.7569 21.7638 33.5966 23.37 32.7179 24.8598C31.8701 26.2973 31.1449 27.8478 31.1449 29.2259H33.5449C33.5449 28.5569 33.945 27.5035 34.7852 26.0791C35.5944 24.707 36.6847 23.1935 37.8148 21.6476C38.9275 20.1257 40.0851 18.5642 40.9579 17.1699C41.3959 16.47 41.7824 15.7809 42.0622 15.1324C42.3353 14.4995 42.5473 13.815 42.5473 13.1481H40.1473ZM31.1449 29.2259C31.1449 29.7725 31.2807 30.4037 31.7637 30.8907C32.2485 31.3795 32.88 31.5186 33.4282 31.5186V29.1186C33.3448 29.1186 33.321 29.1077 33.3364 29.1129C33.3577 29.12 33.4119 29.1443 33.4678 29.2006C33.5235 29.2568 33.5461 29.3098 33.5521 29.3278C33.5561 29.34 33.5449 29.3127 33.5449 29.2259H31.1449ZM33.4282 31.5186C34.5132 31.5186 35.5617 30.877 36.4047 30.2082C37.3009 29.4973 38.211 28.5527 39.0517 27.5787C40.7376 25.6256 42.2678 23.4084 43.0078 22.3237L41.0253 20.9711C40.2887 22.0508 38.8243 24.1692 37.2349 26.0106C36.438 26.9338 35.6403 27.7512 34.9132 28.328C34.133 28.9469 33.6428 29.1186 33.4282 29.1186V31.5186ZM43.0082 22.3231C43.8927 21.0251 44.5489 20.605 44.8995 20.5005C45.131 20.4315 45.3227 20.4662 45.5812 20.7264L47.2841 19.0352C46.5444 18.2904 45.4699 17.8261 44.2139 18.2005C43.0769 18.5394 42.0242 19.5051 41.0249 20.9717L43.0082 22.3231ZM45.579 20.7242C45.7727 20.9203 45.9161 21.3549 45.6721 22.3005C45.4426 23.19 44.9576 24.1638 44.5071 24.9831L46.6102 26.1395C47.0728 25.2982 47.6861 24.101 47.996 22.9001C48.2913 21.7554 48.4151 20.18 47.2863 19.0375L45.579 20.7242ZM44.5073 24.9827C43.1502 27.4486 40.8548 30.5557 38.208 33.0309C35.5141 35.5501 32.6883 37.1979 30.2611 37.1979V39.5979C33.6438 39.5979 37.0522 37.3977 39.8473 34.7838C42.6896 32.1258 45.138 28.8146 46.6099 26.1399L44.5073 24.9827ZM30.2611 37.1979C29.0007 37.1979 28.0439 36.7911 27.2916 36.0093L25.5622 37.6735C26.8063 38.9663 28.4072 39.5979 30.2611 39.5979V37.1979ZM27.2903 36.008C25.8897 34.5569 25.7464 32.4444 26.5039 29.8575C27.2548 27.2927 28.8072 24.5943 30.2635 22.394L28.2622 21.0694C26.7698 23.3241 25.055 26.2647 24.2006 29.1831C23.3526 32.0792 23.2656 35.294 25.5635 37.6747L27.2903 36.008ZM28.5266 20.784C25.2357 23.3408 22.9427 26.5051 21.216 29.2654C20.3606 30.633 19.6142 31.9523 18.9888 33.0011C18.3366 34.095 17.8277 34.8732 17.3835 35.3449L19.1309 36.9902C19.7804 36.3003 20.4117 35.3011 21.0502 34.2302C21.7156 33.1142 22.4105 31.8815 23.2507 30.5382C24.9155 27.8769 27.0316 24.9848 29.9991 22.6793L28.5266 20.784ZM17.3849 35.3434C16.8871 35.8704 16.0865 36.0062 15.3826 35.7133C14.7342 35.4435 14.2077 34.8187 14.2836 33.7699L11.8898 33.5968C11.7357 35.7288 12.9089 37.2835 14.4605 37.9291C15.9567 38.5517 17.8563 38.3393 19.1295 36.9916L17.3849 35.3434ZM14.2836 33.7702C14.4017 32.1429 14.8693 30.3946 16.8341 26.9473L14.749 25.7589C12.6841 29.3819 12.0432 31.4839 11.8899 33.5965L14.2836 33.7702ZM16.8601 26.8992C17.7302 25.1965 18.8465 22.9361 19.5407 21.7525L17.4705 20.5384C16.7294 21.8019 15.5549 24.1792 14.723 25.807L16.8601 26.8992ZM17.7518 20.2117C12.8741 24.1497 10.2181 28.0031 8.49198 31.1719C7.6409 32.7343 7.00591 34.152 6.47999 35.2395C5.92613 36.3847 5.52272 37.0937 5.10844 37.5121L6.81392 39.2007C7.54965 38.4576 8.10593 37.3899 8.64056 36.2844C9.20313 35.1212 9.78544 33.8145 10.5996 32.3199C12.2039 29.3748 14.6701 25.7842 19.2594 22.0791L17.7518 20.2117ZM5.10835 37.5122C4.57635 38.0496 3.89629 38.1191 3.33766 37.8419C2.79015 37.5703 2.2 36.8672 2.2 35.5375H-0.2C-0.2 37.6394 0.788825 39.2566 2.27109 39.9919C3.74224 40.7217 5.54278 40.4848 6.814 39.2006L5.10835 37.5122ZM2.2 35.5375C2.2 34.2786 2.66239 32.1782 3.50679 29.5746C4.33835 27.0105 5.49993 24.078 6.80936 21.2087C8.11912 18.3386 9.56645 15.5545 10.9637 13.2826C12.3877 10.9673 13.6777 9.32192 14.6456 8.58967L13.1976 6.67571C11.8413 7.70184 10.354 9.69268 8.91941 12.0253C7.4581 14.4013 5.96555 17.2769 4.62597 20.2123C3.28604 23.1485 2.08878 26.1672 1.22385 28.8342C0.371765 31.4615 -0.2 33.8719 -0.2 35.5375H2.2ZM14.6465 8.58902C15.8823 7.6523 17.2228 8.5366 17.2228 9.61041H19.6228C19.6228 6.36015 15.8572 4.65984 13.1967 6.67636L14.6465 8.58902ZM17.2228 9.61041C17.2228 9.77551 17.1314 10.1745 16.8239 10.8837C16.5349 11.5499 16.1192 12.3509 15.6186 13.2648C14.6374 15.056 13.3305 17.2757 12.262 19.4337L14.4128 20.4987C15.4534 18.3971 16.6892 16.3059 17.7235 14.4177C18.2306 13.492 18.6907 12.6111 19.0257 11.8386C19.3421 11.109 19.6228 10.3124 19.6228 9.61041H17.2228ZM14.2628 20.7301C16.4973 18.0232 18.3928 15.7977 20.0365 14.0881C21.6955 12.3626 23.0208 11.2462 24.107 10.6765L22.9922 8.55111C21.5483 9.30846 20.0031 10.66 18.3064 12.4247C16.5943 14.2055 14.6488 16.4926 12.412 19.2023L14.2628 20.7301ZM24.1049 10.6775C25.2125 10.0993 26.0044 10.2054 26.4567 10.4478C26.9204 10.6962 27.2256 11.1843 27.2256 11.8004H29.6256C29.6256 10.3464 28.8741 9.02021 27.5902 8.3323C26.2952 7.63836 24.649 7.68614 22.9942 8.55002L24.1049 10.6775ZM27.2256 11.8004C27.2256 12.501 26.8885 13.4443 26.1285 14.9071C25.7604 15.6157 25.3214 16.3965 24.8212 17.2884C24.3244 18.1742 23.7739 19.1582 23.1991 20.2472L25.3215 21.3675C25.8806 20.3083 26.4177 19.3482 26.9145 18.4623C27.408 17.5824 27.8685 16.7638 28.2583 16.0136C29.014 14.5588 29.6256 13.1468 29.6256 11.8004H27.2256ZM25.1462 21.6168C26.7906 19.8168 29.3042 17.0774 31.8003 14.7902C33.05 13.6451 34.2658 12.641 35.3431 11.9303C36.4759 11.1829 37.2548 10.898 37.681 10.898V8.49801C36.4915 8.49801 35.1951 9.15269 34.0214 9.92697C32.7923 10.7379 31.4702 11.8375 30.1789 13.0207C27.5932 15.39 25.0121 18.2053 23.3743 19.998L25.1462 21.6168Z" fill="#FF4D5A" mask="url(#path-1-inside-1_671_704)"/>
</svg>
