<svg width="48" height="48" viewBox="0 0 48 48" fill="none" xmlns="http://www.w3.org/2000/svg">
<path fill-rule="evenodd" clip-rule="evenodd" d="M0.399902 4.79998C0.399902 3.42148 1.56396 2.30399 2.9999 2.30399H41.7906C43.2265 2.30399 44.3906 3.42148 44.3906 4.79999V17.7711H43.1906V4.79999C43.1906 4.05772 42.5638 3.45599 41.7906 3.45599H2.9999C2.2267 3.45599 1.5999 4.05771 1.5999 4.79998V31.7693C1.5999 32.5116 2.2267 33.1133 2.9999 33.1133H31.4883V34.2653H2.9999C1.56396 34.2653 0.399902 33.1478 0.399902 31.7693V4.79998Z" fill="#FF4D5A"/>
<path fill-rule="evenodd" clip-rule="evenodd" d="M30.9534 29.5814H0.999902V28.4294H30.9534V29.5814Z" fill="#FF4D5A"/>
<path fill-rule="evenodd" clip-rule="evenodd" d="M14.4997 7.59163C14.7432 7.37586 15.1228 7.39044 15.3475 7.62419L28.1847 20.9749C28.4095 21.2086 28.3943 21.5731 28.1508 21.7888C27.9073 22.0046 27.5277 21.99 27.303 21.7563L14.4658 8.40557C14.241 8.17181 14.2562 7.8074 14.4997 7.59163Z" fill="#FF4D5A"/>
<path fill-rule="evenodd" clip-rule="evenodd" d="M8.08122 10.6725C8.32471 10.4568 8.7043 10.4714 8.92907 10.7051L21.7663 24.0558C21.991 24.2896 21.9759 24.654 21.7324 24.8697C21.4889 25.0855 21.1093 25.0709 20.8845 24.8372L8.0473 11.4865C7.82254 11.2527 7.83772 10.8883 8.08122 10.6725Z" fill="#FF4D5A"/>
<path fill-rule="evenodd" clip-rule="evenodd" d="M35.8952 30.1851C36.1387 29.9693 36.5183 29.9839 36.743 30.2177L41.6804 35.3526C41.9052 35.5863 41.89 35.9507 41.6465 36.1665C41.403 36.3823 41.0234 36.3677 40.7987 36.1339L35.8613 30.9991C35.6365 30.7653 35.6517 30.4009 35.8952 30.1851Z" fill="#FF4D5A"/>
<path fill-rule="evenodd" clip-rule="evenodd" d="M36.965 25.0502C37.2085 24.8345 37.5881 24.849 37.8129 25.0828L42.7502 30.2177C42.975 30.4514 42.9598 30.8158 42.7163 31.0316C42.4728 31.2474 42.0932 31.2328 41.8685 30.999L36.9311 25.8642C36.7063 25.6304 36.7215 25.266 36.965 25.0502Z" fill="#FF4D5A"/>
<path fill-rule="evenodd" clip-rule="evenodd" d="M47 21.9416H30.9535V20.7896H47V21.9416Z" fill="#FF4D5A"/>
<path fill-rule="evenodd" clip-rule="evenodd" d="M47 41.4541H30.9535V40.3021H47V41.4541Z" fill="#FF4D5A"/>
<path fill-rule="evenodd" clip-rule="evenodd" d="M18.8562 33.6615C19.1676 33.7702 19.3283 34.1007 19.215 34.3996L17.0755 40.048C16.9623 40.3469 16.618 40.5012 16.3066 40.3925C15.9952 40.2838 15.8345 39.9533 15.9477 39.6543L18.0873 34.0059C18.2005 33.707 18.5448 33.5527 18.8562 33.6615Z" fill="#FF4D5A"/>
<path fill-rule="evenodd" clip-rule="evenodd" d="M26.4693 33.6615C26.1579 33.7702 25.9972 34.1007 26.1105 34.3996L28.25 40.048C28.3632 40.3469 28.7075 40.5012 29.0189 40.3925C29.3303 40.2838 29.491 39.9533 29.3777 39.6543L27.2382 34.0059C27.125 33.707 26.7807 33.5527 26.4693 33.6615Z" fill="#FF4D5A"/>
<path fill-rule="evenodd" clip-rule="evenodd" d="M13.2373 39.8512C13.2373 39.533 13.5059 39.2751 13.8373 39.2751H30.9536C31.285 39.2751 31.5536 39.533 31.5536 39.8512C31.5536 40.1693 31.285 40.4271 30.9536 40.4271H13.8373C13.5059 40.4271 13.2373 40.1693 13.2373 39.8512Z" fill="#FF4D5A"/>
<path fill-rule="evenodd" clip-rule="evenodd" d="M44 18.4097H33.9535C32.9594 18.4097 32.1535 19.1833 32.1535 20.1377V43.133C32.1535 44.0874 32.9594 44.861 33.9535 44.861H44C44.9941 44.861 45.8 44.0874 45.8 43.133V20.1377C45.8 19.1833 44.9941 18.4097 44 18.4097ZM33.9535 17.2577C32.2967 17.2577 30.9535 18.5471 30.9535 20.1377V43.133C30.9535 44.7236 32.2967 46.013 33.9535 46.013H44C45.6569 46.013 47 44.7236 47 43.133V20.1377C47 18.5471 45.6569 17.2577 44 17.2577H33.9535Z" fill="#FF4D5A"/>
</svg>
