<svg width="48" height="48" viewBox="0 0 48 48" fill="none" xmlns="http://www.w3.org/2000/svg">
<path d="M32.2925 2.13557C32.2268 2.06723 32.1487 2.01301 32.0627 1.97603C31.9768 1.93904 31.8847 1.92001 31.7917 1.92001H11.9583C10.6438 1.92157 9.38346 2.46487 8.45392 3.43072C7.52438 4.39657 7.0015 5.7061 7 7.07201V40.928C7.0015 42.2939 7.52438 43.6035 8.45392 44.5693C9.38346 45.5352 10.6438 46.0785 11.9583 46.08H36.0417C37.3562 46.0785 38.6165 45.5352 39.5461 44.5693C40.4756 43.6035 40.9985 42.2939 41 40.928V11.488C41 11.3914 40.9817 11.2957 40.9461 11.2064C40.9105 11.1171 40.8583 11.0359 40.7925 10.9676L32.2925 2.13557ZM32.5 4.43281L38.5817 10.752H36.0417C35.1027 10.7509 34.2025 10.3629 33.5385 9.67296C32.8745 8.98306 32.5011 8.04767 32.5 7.07201V4.43281ZM11.9583 3.39201H31.0833V7.07201C31.0848 8.43793 31.6077 9.74746 32.5373 10.7133C33.4668 11.6792 34.7271 12.2225 36.0417 12.224H39.5833V32.832H8.41667V7.07201C8.41772 6.09635 8.7912 5.16097 9.45516 4.47107C10.1191 3.78117 11.0193 3.39311 11.9583 3.39201V3.39201ZM36.0417 44.608H11.9583C11.0193 44.6069 10.1191 44.2189 9.45516 43.529C8.7912 42.8391 8.41772 41.9037 8.41667 40.928V34.304H39.5833V40.928C39.5823 41.9037 39.2088 42.8391 38.5448 43.529C37.8809 44.2189 36.9807 44.6069 36.0417 44.608V44.608Z" fill="#FF4D5A"/>
<path d="M18 37.824V40.896C18.0006 41.5068 18.2039 42.0925 18.5655 42.5244C18.927 42.9564 19.4173 43.1993 19.9286 43.2H21.2143C21.7256 43.1993 22.2158 42.9564 22.5774 42.5244C22.9389 42.0925 23.1423 41.5068 23.1429 40.896C23.1429 40.6923 23.0751 40.497 22.9546 40.3529C22.834 40.2089 22.6705 40.128 22.5 40.128C22.3295 40.128 22.166 40.2089 22.0454 40.3529C21.9249 40.497 21.8571 40.6923 21.8571 40.896C21.857 41.0996 21.7893 41.2949 21.6687 41.4389C21.5482 41.5829 21.3848 41.6639 21.2143 41.664H19.9286C19.7581 41.6639 19.5947 41.5829 19.4741 41.4389C19.3536 41.2949 19.2858 41.0996 19.2857 40.896V37.824C19.2858 37.6203 19.3536 37.4251 19.4741 37.2811C19.5947 37.1371 19.7581 37.0561 19.9286 37.056H21.2143C21.3848 37.0561 21.5482 37.1371 21.6687 37.2811C21.7893 37.4251 21.857 37.6203 21.8571 37.824C21.8571 38.0277 21.9249 38.223 22.0454 38.367C22.166 38.5111 22.3295 38.592 22.5 38.592C22.6705 38.592 22.834 38.5111 22.9546 38.367C23.0751 38.223 23.1429 38.0277 23.1429 37.824C23.1423 37.2131 22.9389 36.6275 22.5774 36.1956C22.2158 35.7636 21.7256 35.5207 21.2143 35.52H19.9286C19.4173 35.5207 18.927 35.7636 18.5655 36.1956C18.2039 36.6275 18.0006 37.2131 18 37.824Z" fill="#FF4D5A"/>
<path d="M28.2857 40.128V41.664H25.0714C24.9009 41.664 24.7374 41.7449 24.6169 41.8889C24.4963 42.033 24.4286 42.2283 24.4286 42.432C24.4286 42.6357 24.4963 42.831 24.6169 42.975C24.7374 43.1191 24.9009 43.2 25.0714 43.2H28.2857C28.6266 43.1994 28.9533 43.0374 29.1943 42.7495C29.4354 42.4616 29.571 42.0712 29.5714 41.664V40.128C29.571 39.7208 29.4354 39.3304 29.1943 39.0425C28.9533 38.7545 28.6266 38.5925 28.2857 38.592H25.7143V37.056H28.9286C29.0991 37.056 29.2626 36.9751 29.3831 36.831C29.5037 36.687 29.5714 36.4917 29.5714 36.288C29.5714 36.0843 29.5037 35.889 29.3831 35.7449C29.2626 35.6009 29.0991 35.52 28.9286 35.52H25.7143C25.3734 35.5205 25.0467 35.6825 24.8057 35.9705C24.5646 36.2584 24.429 36.6488 24.4286 37.056V38.592C24.429 38.9992 24.5646 39.3896 24.8057 39.6775C25.0467 39.9654 25.3734 40.1274 25.7143 40.128H28.2857Z" fill="#FF4D5A"/>
<path d="M34.7143 40.128V41.664H31.5C31.3295 41.664 31.166 41.7449 31.0454 41.8889C30.9249 42.033 30.8571 42.2283 30.8571 42.432C30.8571 42.6357 30.9249 42.831 31.0454 42.975C31.166 43.1191 31.3295 43.2 31.5 43.2H34.7143C35.0551 43.1994 35.3819 43.0374 35.6229 42.7495C35.8639 42.4616 35.9995 42.0712 36 41.664V40.128C35.9995 39.7208 35.8639 39.3304 35.6229 39.0425C35.3819 38.7545 35.0551 38.5925 34.7143 38.592H32.1429V37.056H35.3571C35.5276 37.056 35.6912 36.9751 35.8117 36.831C35.9323 36.687 36 36.4917 36 36.288C36 36.0843 35.9323 35.889 35.8117 35.7449C35.6912 35.6009 35.5276 35.52 35.3571 35.52H32.1429C31.802 35.5205 31.4752 35.6825 31.2342 35.9705C30.9932 36.2584 30.8576 36.6488 30.8571 37.056V38.592C30.8576 38.9992 30.9932 39.3896 31.2342 39.6775C31.4752 39.9654 31.802 40.1274 32.1429 40.128H34.7143Z" fill="#FF4D5A"/>
<path d="M15.3571 40.128V41.664H12.1429C11.9724 41.664 11.8088 41.7449 11.6883 41.8889C11.5677 42.033 11.5 42.2283 11.5 42.432C11.5 42.6357 11.5677 42.831 11.6883 42.975C11.8088 43.1191 11.9724 43.2 12.1429 43.2H15.3571C15.698 43.1994 16.0248 43.0374 16.2658 42.7495C16.5068 42.4616 16.6424 42.0712 16.6429 41.664V40.128C16.6424 39.7208 16.5068 39.3304 16.2658 39.0425C16.0248 38.7545 15.698 38.5925 15.3571 38.592H12.7857V37.056H16C16.1705 37.056 16.334 36.9751 16.4546 36.831C16.5751 36.687 16.6429 36.4917 16.6429 36.288C16.6429 36.0843 16.5751 35.889 16.4546 35.7449C16.334 35.6009 16.1705 35.52 16 35.52H12.7857C12.4449 35.5205 12.1181 35.6825 11.8771 35.9705C11.6361 36.2584 11.5005 36.6488 11.5 37.056V38.592C11.5005 38.9992 11.6361 39.3896 11.8771 39.6775C12.1181 39.9654 12.4449 40.1274 12.7857 40.128H15.3571Z" fill="#FF4D5A"/>
<line x1="11.6" y1="14.76" x2="24.4" y2="14.76" stroke="#FF4D5A" stroke-width="1.2" stroke-linecap="round"/>
<line x1="11.6" y1="17.64" x2="24.4" y2="17.64" stroke="#FF4D5A" stroke-width="1.2" stroke-linecap="round"/>
<line x1="11.6" y1="20.52" x2="26.4" y2="20.52" stroke="#FF4D5A" stroke-width="1.2" stroke-linecap="round"/>
<line x1="11.6" y1="23.4" x2="21.4" y2="23.4" stroke="#FF4D5A" stroke-width="1.2" stroke-linecap="round"/>
<line x1="11.6" y1="26.28" x2="23.4" y2="26.28" stroke="#FF4D5A" stroke-width="1.2" stroke-linecap="round"/>
</svg>
