<svg width="49" height="48" viewBox="0 0 49 48" fill="none" xmlns="http://www.w3.org/2000/svg">
<path fill-rule="evenodd" clip-rule="evenodd" d="M12.2792 4.17574C12.3917 4.06321 12.5443 4 12.7035 4H37.0253C37.1895 4 37.3465 4.0673 37.4598 4.18621L48.0345 15.2897C48.2408 15.5062 48.256 15.8417 48.0703 16.0761L25.8634 44.0991C25.7518 44.2399 25.5829 44.3233 25.4033 44.3264C25.2236 44.3294 25.052 44.2517 24.9357 44.1148L1.14263 16.0918C0.940404 15.8536 0.954808 15.5001 1.17574 15.2792L12.2792 4.17574ZM12.435 5.71702L15.4792 15.1034H3.04853L12.435 5.71702ZM2.89653 16.3034H15.8684L23.886 41.0244L2.89653 16.3034ZM26.8545 40.9162L46.359 16.3034H34.1718L26.8545 40.9162ZM34.5286 15.1034H46.2L37.3052 5.76392L34.5286 15.1034ZM36.221 5.2H26.1107L33.4766 14.4311L36.221 5.2ZM32.4779 15.1034L24.8725 5.57217L17.5247 15.1034H32.4779ZM16.5242 14.4358L23.6442 5.2H13.5288L16.5242 14.4358ZM17.1299 16.3034H32.9199L25.3682 41.7048L17.1299 16.3034Z" fill="#FF4D5A"/>
</svg>
