<svg width="48" height="48" viewBox="0 0 48 48" fill="none" xmlns="http://www.w3.org/2000/svg">
<path fill-rule="evenodd" clip-rule="evenodd" d="M24.25 25.3C27.5913 25.3 30.3 22.5913 30.3 19.25C30.3 15.9087 27.5913 13.2 24.25 13.2C20.9087 13.2 18.2 15.9087 18.2 19.25C18.2 22.5913 20.9087 25.3 24.25 25.3ZM24.25 26.5C28.2541 26.5 31.5 23.2541 31.5 19.25C31.5 15.2459 28.2541 12 24.25 12C20.2459 12 17 15.2459 17 19.25C17 23.2541 20.2459 26.5 24.25 26.5Z" fill="#FF4D5A"/>
<path fill-rule="evenodd" clip-rule="evenodd" d="M20.6658 35.1125V45.3H28.3343V35.1125L29.1828 34.8526C35.8899 32.7983 40.8 26.4326 40.8 18.8753C40.8 9.64167 33.4784 2.2 24.5 2.2C15.5216 2.2 8.2 9.64167 8.2 18.8753C8.2 26.4326 13.1101 32.7983 19.8172 34.8526L20.6658 35.1125ZM29.5343 36C36.7454 33.7913 42 26.9601 42 18.8753C42 9.00307 34.165 1 24.5 1C14.835 1 7 9.00307 7 18.8753C7 26.9601 12.2546 33.7913 19.4658 36V45.5C19.4658 46.0523 19.9135 46.5 20.4658 46.5H28.5343C29.0865 46.5 29.5343 46.0523 29.5343 45.5V36Z" fill="#FF4D5A"/>
</svg>
