<svg width="48" height="48" viewBox="0 0 48 48" fill="none" xmlns="http://www.w3.org/2000/svg">
<path fill-rule="evenodd" clip-rule="evenodd" d="M10.4061 3.5339C10.4061 2.13446 11.5406 1 12.94 1H31.457C32.8564 1 33.9908 2.13447 33.9908 3.5339V5.08713H32.8214V3.5339C32.8214 2.78036 32.2105 2.16949 31.457 2.16949H12.94C12.1865 2.16949 11.5756 2.78036 11.5756 3.5339V5.90334H22.1985C22.5214 5.90334 22.7832 6.16514 22.7832 6.48808C22.7832 6.81103 22.5214 7.07283 22.1985 7.07283H11.5756V12.0919H10.4061V3.5339ZM32.8214 14.1933H33.9908V24H32.8214V14.1933ZM11.5756 30.3043V44.4661C11.5756 45.2196 12.1865 45.8305 12.94 45.8305H31.457C32.2105 45.8305 32.8214 45.2196 32.8214 44.4661V40.6957H12.5847C12.2618 40.6957 12 40.4339 12 40.111C12 39.788 12.2618 39.5262 12.5847 39.5262H32.8214V31.7052H33.9908V44.4661C33.9908 45.8655 32.8564 47 31.457 47H12.94C11.5406 47 10.4061 45.8655 10.4061 44.4661V30.3043H11.5756Z" fill="#FF4D5A"/>
<path fill-rule="evenodd" clip-rule="evenodd" d="M13.7928 29.8353C18.563 29.8353 22.43 25.9683 22.43 21.1981C22.43 16.4279 18.563 12.5609 13.7928 12.5609C9.02267 12.5609 5.15567 16.4279 5.15567 21.1981C5.15567 25.9683 9.02267 29.8353 13.7928 29.8353ZM13.7928 31.0048C19.2089 31.0048 23.5995 26.6142 23.5995 21.1981C23.5995 15.782 19.2089 11.3914 13.7928 11.3914C8.37677 11.3914 3.98618 15.782 3.98618 21.1981C3.98618 26.6142 8.37677 31.0048 13.7928 31.0048Z" fill="#FF4D5A"/>
<path fill-rule="evenodd" clip-rule="evenodd" d="M13.6773 8.58952C14.0003 8.58952 14.2621 8.85132 14.2621 9.17427V13.6086C14.2621 13.9315 14.0003 14.1933 13.6773 14.1933C13.3544 14.1933 13.0926 13.9315 13.0926 13.6086V9.17427C13.0926 8.85132 13.3544 8.58952 13.6773 8.58952Z" fill="#FF4D5A"/>
<path fill-rule="evenodd" clip-rule="evenodd" d="M13.6773 28.2029C14.0003 28.2029 14.2621 28.4647 14.2621 28.7876V33.2219C14.2621 33.5449 14.0003 33.8067 13.6773 33.8067C13.3544 33.8067 13.0926 33.5449 13.0926 33.2219V28.7876C13.0926 28.4647 13.3544 28.2029 13.6773 28.2029Z" fill="#FF4D5A"/>
<path fill-rule="evenodd" clip-rule="evenodd" d="M7.09216 21.1981C7.09216 21.5211 6.83036 21.7829 6.50742 21.7829H2.58475C2.2618 21.7829 2 21.5211 2 21.1981C2 20.8752 2.2618 20.6134 2.58475 20.6134H6.50742C6.83036 20.6134 7.09216 20.8752 7.09216 21.1981Z" fill="#FF4D5A"/>
<path fill-rule="evenodd" clip-rule="evenodd" d="M25.3046 21.1981C25.3046 21.5211 25.0428 21.7829 24.7198 21.7829H20.7971C20.4742 21.7829 20.2124 21.5211 20.2124 21.1981C20.2124 20.8752 20.4742 20.6134 20.7971 20.6134H24.7198C25.0428 20.6134 25.3046 20.8752 25.3046 21.1981Z" fill="#FF4D5A"/>
<path fill-rule="evenodd" clip-rule="evenodd" d="M13.7928 21.6245C15.1889 21.6245 16.3207 20.4927 16.3207 19.0967C16.3207 17.7006 15.1889 16.5689 13.7928 16.5689C12.3968 16.5689 11.265 17.7006 11.265 19.0967C11.265 20.4927 12.3968 21.6245 13.7928 21.6245ZM13.7928 22.5991C15.7272 22.5991 17.2952 21.031 17.2952 19.0967C17.2952 17.1624 15.7272 15.5943 13.7928 15.5943C11.8585 15.5943 10.2905 17.1624 10.2905 19.0967C10.2905 21.031 11.8585 22.5991 13.7928 22.5991Z" fill="#FF4D5A"/>
<path fill-rule="evenodd" clip-rule="evenodd" d="M11.2339 24.7482C10.5343 25.8648 10.0773 27.5195 10.0773 29.6038H9.1027C9.1027 27.3896 9.58649 25.542 10.408 24.2308C11.2317 22.9162 12.4207 22.1118 13.7928 22.1118C15.165 22.1118 16.354 22.9162 17.1777 24.2308C17.9992 25.542 18.483 27.3896 18.483 29.6038H17.5084C17.5084 27.5195 17.0514 25.8648 16.3518 24.7482C15.6543 23.6351 14.7419 23.0863 13.7928 23.0863C12.8438 23.0863 11.9314 23.6351 11.2339 24.7482Z" fill="#FF4D5A"/>
<path fill-rule="evenodd" clip-rule="evenodd" d="M42.2383 5.36124H25.9751L25.9751 14.6197H42.2383V5.36124ZM25.9751 4.38666C25.4368 4.38666 25.0005 4.82299 25.0005 5.36124V14.6197C25.0005 15.158 25.4368 15.5943 25.9751 15.5943H42.2383C42.7765 15.5943 43.2129 15.158 43.2129 14.6197V5.36124C43.2129 4.82299 42.7765 4.38666 42.2383 4.38666H25.9751Z" fill="#FF4D5A"/>
<path fill-rule="evenodd" clip-rule="evenodd" d="M27.8024 8.10223C27.8024 7.83311 28.0206 7.61494 28.2897 7.61494H39.9237C40.1928 7.61494 40.411 7.83311 40.411 8.10223C40.411 8.37135 40.1928 8.58952 39.9237 8.58952H28.2897C28.0206 8.58952 27.8024 8.37135 27.8024 8.10223Z" fill="#FF4D5A"/>
<path fill-rule="evenodd" clip-rule="evenodd" d="M27.8024 10.9041C27.8024 10.635 28.0206 10.4169 28.2897 10.4169H31.518C31.7871 10.4169 32.0052 10.635 32.0052 10.9041C32.0052 11.1733 31.7871 11.3914 31.518 11.3914H28.2897C28.0206 11.3914 27.8024 11.1733 27.8024 10.9041Z" fill="#FF4D5A"/>
<path fill-rule="evenodd" clip-rule="evenodd" d="M33.4062 10.9041C33.4062 10.635 33.6244 10.4169 33.8935 10.4169H39.9237C40.1928 10.4169 40.411 10.635 40.411 10.9041C40.411 11.1733 40.1928 11.3914 39.9237 11.3914H33.8935C33.6244 11.3914 33.4062 11.1733 33.4062 10.9041Z" fill="#FF4D5A"/>
<path fill-rule="evenodd" clip-rule="evenodd" d="M41.402 18.2111L35.1809 23.0488L29.3545 28.2278L32.6937 31.566L43.4883 20.0968L43.5004 20.0844C43.8861 19.6981 44.0825 19.4751 44.1288 19.2443C44.1596 19.0908 44.1471 18.755 43.5008 18.1093C43.1931 17.8018 42.9659 17.6781 42.812 17.6309C42.6709 17.5876 42.5557 17.5972 42.4351 17.6375C42.2959 17.6839 42.1565 17.7678 41.9661 17.891C41.9528 17.8996 41.9389 17.9087 41.9244 17.9181C41.7878 18.0072 41.6026 18.1278 41.402 18.2111ZM32.1886 32.7148L28.1951 28.7223C27.5024 28.5544 26.7364 28.8911 26.0652 29.7114C25.3631 30.5695 24.8841 31.8394 24.8846 33.106C24.8853 34.7263 24.1496 35.5677 23.6491 36.0616C23.624 36.0864 23.6011 36.1089 23.5798 36.1295C24.1687 36.3951 25.0723 36.5492 26.0733 36.5492C27.1188 36.5492 28.1864 36.381 28.9886 36.0646C29.8522 35.724 30.821 35.2317 31.4815 34.6075C32.0926 34.0301 32.3717 33.418 32.1886 32.7148ZM28.3478 27.5579L34.4326 22.1492L40.8323 17.1726L40.9273 17.1409C41.0156 17.1115 41.1197 17.0458 41.3306 16.9093C41.5122 16.7917 41.7667 16.6275 42.0652 16.528C42.3821 16.4223 42.7485 16.3882 43.1548 16.5128C43.5482 16.6334 43.9342 16.8891 44.3274 17.282C45.0832 18.0372 45.4204 18.7521 45.2755 19.4743C45.1523 20.0885 44.6886 20.5509 44.3738 20.8649C44.3602 20.8784 44.3469 20.8917 44.334 20.9047L33.3557 32.569C33.6042 33.7572 33.0473 34.7369 32.2848 35.4575C31.4628 36.2343 30.3302 36.7927 29.4177 37.1526C28.4439 37.5366 27.2227 37.7187 26.0733 37.7187C24.9335 37.7187 23.7795 37.5396 22.9641 37.1315C22.7738 37.0363 22.5797 36.9209 22.4385 36.7664C22.2683 36.5803 22.1619 36.3176 22.2356 36.0195C22.2915 35.7934 22.4375 35.6258 22.5202 35.5358C22.5853 35.465 22.6698 35.3829 22.7465 35.3084C22.7751 35.2806 22.8026 35.2539 22.8276 35.2292C23.2144 34.8476 23.7156 34.2881 23.7151 33.1065C23.7145 31.5711 24.286 30.0391 25.1601 28.9708C25.9538 28.0008 27.1003 27.311 28.3478 27.5579Z" fill="#FF4D5A"/>
<path d="M20.7976 42.2124H22.1986V43.6134H20.7976V42.2124Z" fill="#FF4D5A"/>
</svg>
