<svg width="48" height="48" viewBox="0 0 48 48" fill="none" xmlns="http://www.w3.org/2000/svg">
<path fill-rule="evenodd" clip-rule="evenodd" d="M35.0243 5.26127H12.4158V4.09178H35.0243V5.26127ZM11.2614 6.2224V41.7776H10.0919V6.2224H11.2614ZM37.9178 41.7776V6.99534H39.0873V41.7776H37.9178ZM12.4158 42.7387H35.0243V43.9082H12.4158V42.7387Z" fill="#FF4D5A"/>
<path fill-rule="evenodd" clip-rule="evenodd" d="M7 2.07203C7 1.47997 7.47997 1 8.07203 1H11.7351C12.3272 1 12.8071 1.47997 12.8071 2.07203V5.73509C12.8071 6.32716 12.3272 6.80713 11.7351 6.80713H8.07203C7.47997 6.80713 7 6.32716 7 5.73509V2.07203ZM8.16949 2.16949V5.63764H11.6376V2.16949H8.16949Z" fill="#FF4D5A"/>
<path fill-rule="evenodd" clip-rule="evenodd" d="M34.8262 2.07203C34.8262 1.47997 35.3061 1 35.8982 1H39.5612C40.1533 1 40.6333 1.47997 40.6333 2.07203V5.73509C40.6333 6.32716 40.1533 6.80713 39.5612 6.80713H35.8982C35.3061 6.80713 34.8262 6.32716 34.8262 5.73509V2.07203ZM35.9956 2.16949V5.63764H39.4638V2.16949H35.9956Z" fill="#FF4D5A"/>
<path fill-rule="evenodd" clip-rule="evenodd" d="M7 42.2649C7 41.6728 7.47997 41.1929 8.07203 41.1929H11.7351C12.3272 41.1929 12.8071 41.6728 12.8071 42.2649V45.928C12.8071 46.52 12.3272 47 11.7351 47H8.07203C7.47997 47 7 46.52 7 45.928V42.2649ZM8.16949 42.3624V45.8305H11.6376V42.3624H8.16949Z" fill="#FF4D5A"/>
<path fill-rule="evenodd" clip-rule="evenodd" d="M34.8262 42.2649C34.8262 41.6728 35.3061 41.1929 35.8982 41.1929H39.5612C40.1533 41.1929 40.6333 41.6728 40.6333 42.2649V45.928C40.6333 46.52 40.1533 47 39.5612 47H35.8982C35.3061 47 34.8262 46.52 34.8262 45.928V42.2649ZM35.9956 42.3624V45.8305H39.4638V42.3624H35.9956Z" fill="#FF4D5A"/>
<path fill-rule="evenodd" clip-rule="evenodd" d="M13.1832 9.80143C13.1832 9.20936 13.6632 8.7294 14.2552 8.7294H34.923C35.515 8.7294 35.995 9.20936 35.995 9.80143V25.8315C35.995 26.4236 35.515 26.9036 34.923 26.9036H14.2552C13.6632 26.9036 13.1832 26.4236 13.1832 25.8315V9.80143ZM14.3527 9.89889V25.7341H34.8255V9.89889H14.3527Z" fill="#FF4D5A"/>
<path fill-rule="evenodd" clip-rule="evenodd" d="M16.5663 12.0496C16.8223 11.8528 17.2375 11.8528 17.4935 12.0496L30.8683 22.3298C31.1243 22.5266 31.1243 22.8457 30.8683 23.0425C30.6122 23.2393 30.1971 23.2393 29.941 23.0425L16.5663 12.7623C16.3102 12.5655 16.3102 12.2464 16.5663 12.0496Z" fill="#FF4D5A"/>
<path fill-rule="evenodd" clip-rule="evenodd" d="M17.4265 23.0424C17.1704 22.8456 17.1704 22.5265 17.4265 22.3297L30.8012 12.0495C31.0573 11.8527 31.4724 11.8527 31.7285 12.0495C31.9845 12.2463 31.9845 12.5654 31.7285 12.7622L18.3537 23.0424C18.0977 23.2392 17.6825 23.2392 17.4265 23.0424Z" fill="#FF4D5A"/>
<path fill-rule="evenodd" clip-rule="evenodd" d="M13.768 31.9176C13.768 31.5946 14.0298 31.3328 14.3527 31.3328H34.8255C35.1485 31.3328 35.4103 31.5946 35.4103 31.9176C35.4103 32.2405 35.1485 32.5023 34.8255 32.5023H14.3527C14.0298 32.5023 13.768 32.2405 13.768 31.9176Z" fill="#FF4D5A"/>
<path fill-rule="evenodd" clip-rule="evenodd" d="M13.768 35.0093C13.768 34.6864 14.0298 34.4246 14.3527 34.4246H34.8255C35.1485 34.4246 35.4103 34.6864 35.4103 35.0093C35.4103 35.3323 35.1485 35.5941 34.8255 35.5941H14.3527C14.0298 35.5941 13.768 35.3323 13.768 35.0093Z" fill="#FF4D5A"/>
<path fill-rule="evenodd" clip-rule="evenodd" d="M13.768 38.1011C13.768 37.7781 14.0298 37.5163 14.3527 37.5163H34.8255C35.1485 37.5163 35.4103 37.7781 35.4103 38.1011C35.4103 38.424 35.1485 38.6858 34.8255 38.6858H14.3527C14.0298 38.6858 13.768 38.424 13.768 38.1011Z" fill="#FF4D5A"/>
</svg>
