<svg width="48" height="48" viewBox="0 0 48 48" fill="none" xmlns="http://www.w3.org/2000/svg">
<path fill-rule="evenodd" clip-rule="evenodd" d="M44 9.79201H4C3.00589 9.79201 2.2 10.5657 2.2 11.52V37.44C2.2 38.3944 3.00589 39.168 4 39.168H44C44.9941 39.168 45.8 38.3944 45.8 37.44V11.52C45.8 10.5657 44.9941 9.79201 44 9.79201ZM4 8.64001C2.34315 8.64001 1 9.92943 1 11.52V37.44C1 39.0306 2.34315 40.32 4 40.32H44C45.6569 40.32 47 39.0306 47 37.44V11.52C47 9.92943 45.6569 8.64001 44 8.64001H4Z" fill="#FF4D5A"/>
<path fill-rule="evenodd" clip-rule="evenodd" d="M47 13.44H1V12.288H47V13.44Z" fill="#FF4D5A"/>
<path fill-rule="evenodd" clip-rule="evenodd" d="M47 28.8H1V27.648H47V28.8Z" fill="#FF4D5A"/>
<path fill-rule="evenodd" clip-rule="evenodd" d="M27.51 20.64L21.2 17.3084V23.9717L27.51 20.64ZM28.4069 21.4812C29.0977 21.1165 29.0977 20.1636 28.4069 19.7988L21.4819 16.1425C20.8155 15.7906 20 16.2535 20 16.9836V24.2964C20 25.0266 20.8155 25.4894 21.4819 25.1376L28.4069 21.4812Z" fill="#FF4D5A"/>
<path fill-rule="evenodd" clip-rule="evenodd" d="M9 32.064C9 31.7459 9.26863 31.488 9.6 31.488H15.4C15.7314 31.488 16 31.7459 16 32.064C16 32.3821 15.7314 32.64 15.4 32.64H9.6C9.26863 32.64 9 32.3821 9 32.064Z" fill="#FF4D5A"/>
<path fill-rule="evenodd" clip-rule="evenodd" d="M22 32.064C22 31.7459 22.2686 31.488 22.6 31.488L39.4 31.488C39.7314 31.488 40 31.7459 40 32.064C40 32.3821 39.7314 32.64 39.4 32.64H22.6C22.2686 32.64 22 32.3821 22 32.064Z" fill="#FF4D5A"/>
<path fill-rule="evenodd" clip-rule="evenodd" d="M37 36.384C37 36.0659 37.2686 35.808 37.6 35.808H39.4C39.7314 35.808 40 36.0659 40 36.384C40 36.7021 39.7314 36.96 39.4 36.96H37.6C37.2686 36.96 37 36.7021 37 36.384Z" fill="#FF4D5A"/>
<path fill-rule="evenodd" clip-rule="evenodd" d="M9 36.384C9 36.0659 9.26863 35.808 9.6 35.808L30.4 35.808C30.7314 35.808 31 36.0659 31 36.384C31 36.7021 30.7314 36.96 30.4 36.96L9.6 36.96C9.26863 36.96 9 36.7021 9 36.384Z" fill="#FF4D5A"/>
<path fill-rule="evenodd" clip-rule="evenodd" d="M18.2 30.912V32.448H19.8V30.912H18.2ZM18 29.76C17.4477 29.76 17 30.1898 17 30.72V32.64C17 33.1702 17.4477 33.6 18 33.6H20C20.5523 33.6 21 33.1702 21 32.64V30.72C21 30.1898 20.5523 29.76 20 29.76H18Z" fill="#FF4D5A"/>
<path fill-rule="evenodd" clip-rule="evenodd" d="M33.2 35.712V37.248H34.8V35.712H33.2ZM33 34.56C32.4477 34.56 32 34.9898 32 35.52V37.44C32 37.9702 32.4477 38.4 33 38.4H35C35.5523 38.4 36 37.9702 36 37.44V35.52C36 34.9898 35.5523 34.56 35 34.56H33Z" fill="#FF4D5A"/>
</svg>
