<svg width="27" height="32" viewBox="0 0 27 32" fill="none" xmlns="http://www.w3.org/2000/svg">
<path d="M25.4115 8.27255H22.9925V9.36656H25.4115C25.6425 9.36656 25.8304 9.55056 25.8304 9.77682V22.3378H1.11699V9.77682C1.11699 9.55056 1.30485 9.36656 1.53586 9.36656H3.95491V8.27255H1.53586C0.688973 8.27255 0 8.94735 0 9.77682V25.8565C0 26.686 0.688973 27.3608 1.53586 27.3608H10.0715L9.0347 30.906H7.02572V32H19.9216V30.906H17.9126L16.8758 27.3608H25.4115C26.2584 27.3608 26.9474 26.686 26.9474 25.8565V9.77682C26.9474 8.94735 26.2584 8.27255 25.4115 8.27255ZM16.7507 30.906H10.1967L11.2336 27.3608H15.7139L16.7507 30.906ZM25.8304 25.8565C25.8304 26.0828 25.6425 26.2668 25.4115 26.2668H1.53586C1.30485 26.2668 1.11699 26.0828 1.11699 25.8565V23.4318H25.8304V25.8565Z" fill="#FF4D5A"/>
<path d="M5.04909 17.3594H3.74745V18.4534H5.04909V17.3594Z" fill="#FF4D5A"/>
<path d="M7.8414 17.3594H6.53976V18.4534H7.8414V17.3594Z" fill="#FF4D5A"/>
<path d="M20.4074 17.3594H19.1058V18.4534H20.4074V17.3594Z" fill="#FF4D5A"/>
<path d="M23.2 17.3594H21.8984V18.4534H23.2V17.3594Z" fill="#FF4D5A"/>
<path d="M18.8083 2.07576C17.417 0.737162 15.5225 0 13.4737 0C11.4249 0 9.53037 0.737162 8.13909 2.07576C6.74872 3.41354 5.98302 5.23179 5.98302 7.19562C5.98302 9.2919 6.92744 11.2922 8.57416 12.6836C9.39689 13.3789 9.92111 14.3372 10.106 15.471C9.67104 15.7457 9.38237 16.2232 9.38237 16.7656V17.2013C9.38237 17.8683 9.81862 18.4375 10.4272 18.6517C10.363 18.8193 10.3278 19.0005 10.3278 19.1897V19.6254C10.3278 20.4752 11.0359 21.1666 11.9061 21.1666H15.0413C15.9117 21.1666 16.6197 20.4752 16.6197 19.6254V19.1897C16.6197 19.0005 16.5844 18.8193 16.5203 18.6517C17.1288 18.4376 17.5651 17.8683 17.5651 17.2013V16.7656C17.5651 16.2232 17.2764 15.7458 16.8415 15.471C17.0263 14.3372 17.5506 13.3788 18.3733 12.6836C20.02 11.2922 20.9644 9.2919 20.9644 7.19562C20.9644 5.23179 20.1987 3.41354 18.8083 2.07576ZM15.5027 19.6254C15.5027 19.8719 15.2957 20.0726 15.0413 20.0726H11.9061C11.6517 20.0726 11.4448 19.872 11.4448 19.6254V19.1897C11.4448 18.9432 11.6517 18.7425 11.9061 18.7425H15.0413C15.2958 18.7425 15.5027 18.9431 15.5027 19.1897V19.6254ZM16.448 17.2013C16.448 17.4479 16.241 17.6485 15.9866 17.6485H10.9608C10.7064 17.6485 10.4994 17.4479 10.4994 17.2013V16.7656C10.4994 16.5499 10.6578 16.3694 10.8677 16.3276C10.8675 16.3276 10.8678 16.3276 10.8677 16.3276C10.962 16.3089 10.8971 16.3216 15.9867 16.3184C16.2486 16.3184 16.445 16.5287 16.4481 16.7789C16.4498 16.9196 16.448 17.0605 16.448 17.2013ZM11.9366 9.45819H11.1057C10.83 9.45819 10.5825 9.26167 10.5311 8.99542C10.4795 8.72779 10.6377 8.45744 10.8965 8.36089C11.0539 8.30215 11.2941 8.30284 11.4599 8.33299C11.7308 8.38229 11.9366 8.61983 11.9366 8.89073V9.45819ZM13.9271 15.2244H13.0536V10.5522H13.9271V15.2244ZM17.6436 11.8553C16.6349 12.7077 15.9874 13.8649 15.7505 15.2244H15.0441V10.5522H15.8902C16.8284 10.5522 17.5918 9.8069 17.5918 8.89073C17.5918 7.97463 16.8284 7.22933 15.8902 7.22933H15.6286C14.6904 7.22933 13.9271 7.97463 13.9271 8.89073V9.45819H13.0536V8.89073C13.0536 7.97463 12.2902 7.22933 11.352 7.22933H11.1057C10.1675 7.22933 9.40408 7.97463 9.40408 8.89073C9.40408 9.80684 10.1674 10.5522 11.1057 10.5522H11.9366V15.2244H11.1969C10.96 13.8649 10.3125 12.7077 9.30376 11.8553C7.9032 10.6719 7.09994 8.97347 7.09994 7.19569C7.10001 3.71713 9.84013 1.09402 13.4737 1.09402C17.1073 1.09402 19.8474 3.71713 19.8474 7.19562C19.8474 8.97347 19.0441 10.6719 17.6436 11.8553ZM15.0441 9.45819V8.89073C15.0441 8.57785 15.3063 8.32335 15.6287 8.32335H15.8902C16.2126 8.32335 16.4748 8.57791 16.4748 8.89073C16.4748 9.20362 16.2126 9.45819 15.8902 9.45819H15.0441Z" fill="#FF4D5A"/>
</svg>
