<svg width="48" height="48" viewBox="0 0 48 48" fill="none" xmlns="http://www.w3.org/2000/svg">
<path fill-rule="evenodd" clip-rule="evenodd" d="M8.13012 30C8.13474 30.0127 8.13938 30.0255 8.14407 30.0382C8.8273 31.8905 10.2812 33.3289 12.2779 34.3194C12.7923 34.5746 13.3427 34.8 13.9253 34.9951L5.5957 38.0385L5.72376 30.8794L8.13012 30ZM7.4973 31.5089L6.90885 31.7239L6.82679 36.3111L10.7868 34.8642C9.38809 34.0043 8.24949 32.8886 7.4973 31.5089Z" fill="#FF4D5A"/>
<path fill-rule="evenodd" clip-rule="evenodd" d="M1 26.051L5.68466 31.4533L8.09102 30.5739C7.41481 28.7079 7.60994 26.6502 8.5188 24.5815C8.75054 24.054 9.02867 23.5259 9.35059 23L1 26.051ZM3.04751 26.5805L6.0495 30.0423L6.64063 29.8263C6.33506 28.2843 6.49682 26.6929 7.0218 25.1284L3.04751 26.5805Z" fill="#FF4D5A"/>
<path fill-rule="evenodd" clip-rule="evenodd" d="M41.6231 23.1936C38.6512 25.6478 34.1794 28.0485 28.8664 29.8743C23.6221 31.6765 18.5683 32.6 14.5897 32.6C12.5528 32.6 10.7644 32.3577 9.36906 31.8434C7.97723 31.3304 6.89881 30.5151 6.43994 29.323L7.55984 28.8919C7.8469 29.6376 8.56608 30.2686 9.78402 30.7174C10.9984 31.165 12.632 31.4 14.5897 31.4C18.4036 31.4 23.3232 30.5103 28.4764 28.7395C33.6952 26.946 38.028 24.6062 40.859 22.2683C42.2765 21.0977 43.2898 19.9503 43.8606 18.8982C44.4297 17.8491 44.5305 16.9542 44.2459 16.2158L45.3656 15.7842C45.8183 16.9587 45.5876 18.2313 44.9154 19.4704C44.2448 20.7065 43.1071 21.968 41.6231 23.1936Z" fill="#FF4D5A"/>
<path fill-rule="evenodd" clip-rule="evenodd" d="M11.5065 23.8028C14.5339 21.3512 19.048 18.9516 24.3151 17.1262C29.5157 15.3238 34.5279 14.4 38.4743 14.4C40.4947 14.4 42.2692 14.6424 43.6541 15.1572C45.0362 15.6708 46.1058 16.4872 46.5605 17.6786L45.4394 18.1065C45.1545 17.3601 44.4417 16.7301 43.2361 16.282C42.0333 15.8349 40.4147 15.6 38.4743 15.6C34.694 15.6 29.8171 16.4894 24.7081 18.26C19.5322 20.0538 15.1521 22.3947 12.2616 24.7353C10.8142 25.9074 9.76875 27.0566 9.17341 28.1108C8.5791 29.163 8.46638 30.0544 8.74594 30.7858L7.62503 31.2142C7.17342 30.0327 7.43051 28.7566 8.12854 27.5206C8.82554 26.2865 9.99493 25.0268 11.5065 23.8028Z" fill="#FF4D5A"/>
<path fill-rule="evenodd" clip-rule="evenodd" d="M35.6032 33.0593C37.1981 36.7178 37.2049 38.4222 36.7237 38.7745C36.7217 38.776 36.7196 38.7775 36.7175 38.7789C36.7162 38.7798 36.7149 38.7808 36.7136 38.7817C36.6376 38.8338 36.5403 38.8615 36.4216 38.8661C36.4139 38.8664 36.4062 38.8666 36.3984 38.8668C36.3939 38.8668 36.3895 38.8668 36.385 38.8668C35.9856 38.8668 34.7646 38.5936 32.0555 36.0658C32.0555 36.0658 32.0555 36.0659 32.0555 36.0658C32.055 36.0654 32.0544 36.0649 32.0539 36.0644C29.5393 33.7194 26.654 30.2758 23.9252 26.3639C23.9252 26.3638 23.9253 26.364 23.9252 26.3639C23.9246 26.363 23.9238 26.3618 23.9231 26.3609C21.1961 22.4503 18.9582 18.5492 17.6221 15.3762C17.6221 15.3761 17.6222 15.3763 17.6221 15.3762C17.622 15.3758 17.6217 15.3751 17.6215 15.3747C16.1933 11.984 16.2144 10.3921 16.6686 10.0532C16.6715 10.0511 16.6744 10.049 16.6773 10.0469C16.678 10.0464 16.6787 10.0459 16.6794 10.0454C16.7505 9.99601 16.8462 9.9698 16.9653 9.9654C16.9731 9.96511 16.9809 9.96492 16.9888 9.96482C16.9933 9.96476 16.9977 9.96473 17.0022 9.96473C17.4435 9.96473 18.722 10.2711 21.5196 12.9283C21.6828 13.0833 21.8512 13.2463 22.0249 13.4177C22.0262 13.419 22.0276 13.4204 22.029 13.4218C22.0517 13.4441 22.0744 13.4666 22.0972 13.4893C22.1185 13.5104 22.1398 13.5316 22.1612 13.5529C22.1614 13.5531 22.161 13.5527 22.1612 13.5529C22.2158 13.6073 22.2715 13.6631 22.3272 13.7192L22.633 14.027L22.6674 13.593C22.6734 13.5166 22.6796 13.4399 22.686 13.363C22.686 13.3629 22.686 13.3632 22.686 13.363C22.6981 13.2191 22.711 13.0742 22.7247 12.9297L22.7343 12.8341L22.6655 12.7672C19.5603 9.70903 17.872 9.05572 17.0022 9.0491C16.9977 9.04907 16.9933 9.04905 16.9888 9.04905C16.6907 9.04141 16.3982 9.12743 16.1517 9.29566C16.1512 9.296 16.1507 9.29636 16.1502 9.29671C16.1494 9.29728 16.1486 9.29785 16.1478 9.29842C15.0877 10.0502 15.301 12.2128 16.78 15.729C16.78 15.729 16.78 15.7289 16.78 15.729C16.7801 15.7293 16.7804 15.7299 16.7805 15.7302C18.141 18.962 20.4109 22.9217 23.1737 26.8835C23.1737 26.8835 23.1737 26.8835 23.1737 26.8835C23.1744 26.8845 23.1751 26.8856 23.1758 26.8866C25.9409 30.8486 28.8703 34.3462 31.4292 36.7338C31.4293 36.7339 31.4291 36.7338 31.4292 36.7338C31.4297 36.7343 31.4304 36.7349 31.4308 36.7354C32.9275 38.1318 34.1882 39.0516 35.1984 39.486C35.2746 39.5188 35.3494 39.5488 35.4228 39.5761C35.7772 39.7077 36.0981 39.7747 36.385 39.7767C36.3894 39.7768 36.3939 39.7768 36.3984 39.7768C36.6698 39.7837 36.9366 39.714 37.1675 39.5761C37.1919 39.5615 37.2158 39.5462 37.2393 39.5302C37.2406 39.5293 37.2419 39.5284 37.2431 39.5275C37.2436 39.5272 37.244 39.5269 37.2444 39.5266C37.3086 39.4811 37.3675 39.4305 37.4214 39.3753C38.3993 38.3743 37.728 35.8345 36.8152 33.5486C36.6984 33.2562 36.5777 32.9679 36.4559 32.6876C36.4552 32.6859 36.4544 32.6841 36.4537 32.6824C36.4474 32.6678 36.441 32.6533 36.4347 32.6387L36.3448 32.4361L36.1518 32.545C36.0065 32.6292 35.8498 32.7152 35.6893 32.8031L35.5287 32.891L35.6032 33.0593Z" fill="#FF4D5A"/>
<path fill-rule="evenodd" clip-rule="evenodd" d="M22.4342 11.8943C22.0024 15.3751 21.9966 19.945 22.417 24.7635C22.417 24.7635 22.417 24.7635 22.417 24.7635C22.417 24.7639 22.4171 24.7643 22.4171 24.7647C22.8356 29.5827 23.6323 34.0816 24.6602 37.4344C24.6602 37.4345 24.6602 37.4343 24.6602 37.4344C24.6604 37.4351 24.6608 37.4362 24.661 37.437C25.1469 39.0252 25.6535 40.2626 26.1777 41.1444C26.1781 41.1452 26.1785 41.1459 26.179 41.1466C26.8234 42.2301 27.4943 42.7762 28.1855 42.7762C28.2217 42.7762 28.2598 42.7762 28.2979 42.7724C28.298 42.7724 28.2978 42.7724 28.2979 42.7724C28.3223 42.7702 28.3468 42.7674 28.3708 42.7639C29.9644 42.5331 30.6883 39.3949 31.0161 36.3948C31.0496 36.0888 31.0789 35.7843 31.1046 35.4844C31.1103 35.4175 31.1159 35.3508 31.1213 35.2844L31.1366 35.0856L30.1962 35.4068C29.77 40.3943 28.7569 41.8127 28.2199 41.8586C28.2192 41.8587 28.2185 41.8588 28.2178 41.8589C28.2142 41.8594 28.2106 41.8598 28.207 41.86C28.1998 41.8605 28.1926 41.8605 28.1855 41.8605C27.8472 41.8605 27.4133 41.4418 26.966 40.681C26.4789 39.8576 25.9842 38.6427 25.5334 37.1701C25.5333 37.1699 25.5334 37.1703 25.5334 37.1701C25.5331 37.1694 25.5328 37.1681 25.5325 37.1674C24.5235 33.8759 23.7399 29.4433 23.3251 24.6858C23.3251 24.6857 23.3251 24.6859 23.3251 24.6858C23.3251 24.6855 23.325 24.6847 23.325 24.6844C22.9102 19.9282 22.9159 15.4244 23.3403 12.0064C23.7952 8.32873 24.6132 6.96729 25.1751 6.91759C25.1753 6.91757 25.175 6.91761 25.1751 6.91759C25.1787 6.91709 25.1826 6.91666 25.1859 6.91639C25.1949 6.91568 25.2032 6.91568 25.2114 6.91568C25.5689 6.91568 26.0257 7.37256 26.4939 8.2003C27.0004 9.09877 27.5108 10.4025 27.979 12.0045L28.8946 11.8286C28.8863 11.8003 28.878 11.7721 28.8697 11.7441C28.7578 11.3645 28.646 11.0089 28.5347 10.6758C28.1071 9.39619 27.686 8.44893 27.2838 7.75502C27.2836 7.75462 27.2834 7.75423 27.2831 7.75384C26.4866 6.38014 25.764 6 25.2114 6C25.1732 6 25.1331 6.00191 25.0949 6.00573C25.0947 6.00575 25.095 6.00572 25.0949 6.00573C25.0785 6.00719 25.0618 6.00897 25.0456 6.01102C23.7763 6.17111 22.8984 8.14986 22.4342 11.8943Z" fill="#FF4D5A"/>
<path fill-rule="evenodd" clip-rule="evenodd" d="M42.3194 25.6606C45.1401 22.6796 46.1087 19.7694 45.3434 17.5066C44.5781 15.2438 42.0419 13.5189 37.9907 12.8621C33.9996 12.2151 28.8582 12.6805 23.5438 14.4779C18.2294 16.2753 13.861 19.0263 11.082 21.9631C8.26126 24.944 7.29265 27.8543 8.05797 30.1171C8.82329 32.3799 11.3595 34.1047 15.4107 34.7615C19.4018 35.4086 24.5432 34.9432 29.8576 33.1458C35.172 31.3484 39.5404 28.5974 42.3194 25.6606ZM30.242 34.2825C41.1659 30.5879 48.436 22.9049 46.4802 17.1221C44.5243 11.3393 34.0833 9.64653 23.1594 13.3412C12.2355 17.0358 4.9654 24.7188 6.92123 30.5016C8.87706 36.2844 19.3181 37.9771 30.242 34.2825Z" fill="#FF4D5A"/>
</svg>
